<svg width="34" height="29" viewBox="0 0 34 29" fill="none" xmlns="http://www.w3.org/2000/svg">
<g id="Frame" clip-path="url(#clip0_216_7680)">
<path id="Vector" d="M0.985266 15.5437C9.03292 14.7043 17.1436 14.5979 25.2228 14.7555C27.5283 14.7989 29.8378 14.8659 32.1433 14.9368C33.4123 14.9762 33.4123 13.0057 32.1433 12.9663C24.0602 12.7101 15.9652 12.5722 7.88606 13.0254C5.58185 13.1568 3.28159 13.3407 0.985266 13.5771C0.726156 13.5841 0.479574 13.6902 0.296289 13.8734C0.113005 14.0567 0.00696639 14.3033 0 14.5624C0.00103774 14.8234 0.105174 15.0734 0.289723 15.258C0.474271 15.4425 0.724277 15.5466 0.985266 15.5477V15.5437Z" fill="#4C85AA"/>
<path id="Vector_2" d="M2.45939 14.8105C1.85496 16.725 1.34853 18.6692 0.942079 20.6353C0.528268 22.5744 0.0277581 24.5134 1.00908 26.3735C1.3243 27.0062 1.80612 27.5409 2.40265 27.9201C2.99918 28.2992 3.68782 28.5085 4.39445 28.5254C5.3009 28.5254 6.2034 28.5254 7.10591 28.5254C10.1918 28.5254 13.2816 28.5766 16.3674 28.5687C17.8414 28.5687 19.3153 28.549 20.7893 28.5017C22.3342 28.4544 23.9815 28.4544 25.3688 27.6899C27.4812 26.5075 28.0684 24.2414 28.6872 22.0935L30.9493 14.2508C31.304 13.0291 29.4005 12.5089 29.0497 13.7267L27.1896 20.1664C26.894 21.2029 26.6102 22.2472 26.2871 23.2719C26.0892 24.0666 25.6964 24.7994 25.1442 25.404C24.1313 26.409 22.7795 26.4563 21.408 26.5115C20.0365 26.5667 18.7399 26.5824 17.4078 26.5903C14.456 26.6139 11.4963 26.5903 8.56016 26.5627C7.46849 26.5627 6.38075 26.5627 5.29302 26.5627C4.95803 26.5627 4.62304 26.5627 4.28411 26.5627C4.22637 26.5666 4.16844 26.5666 4.1107 26.5627C4.31169 26.5627 4.1107 26.5627 4.06341 26.5627L3.79147 26.4839C3.59437 26.3881 3.41027 26.2676 3.24366 26.1253C2.76477 25.6457 2.4632 25.0175 2.38846 24.3439C2.28205 23.3902 2.57369 22.4443 2.78256 21.5182C3.2279 19.4452 3.72053 17.3879 4.35899 15.3662C4.75309 14.1562 2.84562 13.636 2.45939 14.842V14.8105Z" fill="#4C85AA"/>
<path id="Vector_3" d="M9.89226 14.1404C11.5751 10.4003 13.2382 6.49474 16.265 3.62171C16.9271 2.99508 17.3487 2.59703 18.07 2.3448C18.8157 2.07078 19.61 1.95404 20.4031 2.00193C20.7118 1.99815 21.0177 2.06098 21.2999 2.18612C21.5822 2.31125 21.8341 2.49577 22.0386 2.72709C22.5008 3.36547 22.7863 4.11454 22.8662 4.89861C23.15 6.84944 22.7756 8.88697 22.4091 10.8102C22.3463 11.0613 22.3825 11.327 22.5102 11.5522C22.6378 11.7774 22.8471 11.9449 23.0948 12.0201C23.3467 12.0881 23.6152 12.0543 23.8423 11.926C24.0694 11.7977 24.237 11.5852 24.3087 11.3344C24.7028 9.29684 25.0772 7.18049 24.8644 5.10355C24.6515 3.02661 23.8318 0.914199 21.7115 0.256041C20.7959 0.00257513 19.8374 -0.0568382 18.8974 0.0816082C17.9575 0.220055 17.0568 0.553308 16.2531 1.06002C14.4284 2.31722 12.9466 4.21287 11.7682 6.06517C10.3455 8.29581 9.2814 10.7314 8.1976 13.1591C8.07394 13.3867 8.04178 13.6529 8.1077 13.9033C8.17362 14.1538 8.33263 14.3697 8.5523 14.5069C8.77807 14.6369 9.04588 14.673 9.29801 14.6074C9.55013 14.5418 9.76639 14.3797 9.90015 14.1562L9.89226 14.1404Z" fill="#4C85AA"/>
<path id="Vector_4" d="M5.56888 21.3056C5.53126 22.82 5.85267 24.3217 6.50684 25.688C7.06688 26.7425 7.90691 27.6221 8.93454 28.23C9.16031 28.3622 9.42936 28.3994 9.6825 28.3332C9.93563 28.2671 10.1521 28.1031 10.2844 27.8773C10.4166 27.6515 10.4537 27.3825 10.3876 27.1293C10.3214 26.8762 10.1574 26.6597 9.93163 26.5275C9.82916 26.4684 9.73064 26.4053 9.63211 26.3383L9.47446 26.228C9.3247 26.1216 9.44688 26.228 9.49417 26.228C9.43506 26.228 9.26953 26.0388 9.22224 25.9994C9.17495 25.96 9.04884 25.8339 8.96607 25.7511C8.88331 25.6683 8.80055 25.5737 8.72173 25.4792L8.61531 25.3491C8.63896 25.3767 8.78478 25.554 8.61531 25.3491C8.46966 25.1386 8.33801 24.9187 8.22121 24.6909C8.16603 24.5845 8.1148 24.4742 8.06357 24.3638C8.16603 24.5845 8.06357 24.3638 8.06357 24.3166C8.06357 24.2693 8.00839 24.1747 7.98474 24.0998C7.8872 23.8159 7.80692 23.5264 7.74434 23.2328C7.71281 23.0869 7.68522 22.9451 7.66551 22.7992C7.66551 22.7992 7.6261 22.4879 7.66551 22.7007C7.66551 22.6219 7.64582 22.5431 7.63794 22.4642C7.60247 22.0701 7.5867 21.676 7.58276 21.3056C7.58276 21.0443 7.47895 20.7937 7.29418 20.6089C7.1094 20.4241 6.8588 20.3203 6.59749 20.3203C6.33618 20.3203 6.08558 20.4241 5.9008 20.6089C5.71603 20.7937 5.61222 21.0443 5.61222 21.3056H5.56888Z" fill="#4C85AA"/>
<path id="Vector_5" d="M12.4619 22.6099C12.655 25.0691 14.1644 27.5007 16.4818 28.4899C16.714 28.6127 16.9826 28.6477 17.2385 28.5885C17.4858 28.5176 17.697 28.3557 17.8296 28.1353C18.0503 27.7136 17.9794 27.0002 17.4749 26.7874C17.2237 26.6744 16.9813 26.5427 16.7498 26.3933C16.6434 26.3263 16.5409 26.2593 16.4424 26.1884C16.4187 26.1884 16.2532 26.0386 16.3636 26.1332C16.4739 26.2278 16.3123 26.0898 16.2926 26.0701C16.0871 25.8955 15.8935 25.7072 15.7133 25.5066C15.626 25.4208 15.5468 25.3272 15.4768 25.2267C15.599 25.4317 15.4768 25.2267 15.4532 25.1913L15.3468 25.0415C15.2033 24.8296 15.0717 24.6099 14.9527 24.3834C14.8975 24.277 14.8502 24.1666 14.799 24.0563C14.6965 23.8356 14.8699 24.2572 14.799 24.0287C14.7793 23.9695 14.7556 23.9144 14.7359 23.8592C14.652 23.6258 14.5823 23.3876 14.527 23.1459C14.5034 23.0316 14.4837 22.9173 14.46 22.803C14.4167 22.5705 14.4797 23.0316 14.46 22.803C14.46 22.7321 14.46 22.6651 14.4403 22.5981C14.4353 22.3383 14.3299 22.0906 14.1462 21.907C13.9625 21.7233 13.7148 21.6178 13.4551 21.6128C13.1944 21.6149 12.945 21.7193 12.7606 21.9036C12.5763 22.088 12.4719 22.3374 12.4698 22.5981L12.4619 22.6099Z" fill="#4C85AA"/>
<path id="Vector_6" d="M18.8975 23.0235C19.0827 25.3487 20.533 27.5754 22.8385 28.2533C23.0904 28.3228 23.3596 28.2894 23.5869 28.1604C23.8142 28.0314 23.9809 27.8175 24.0504 27.5656C24.1199 27.3137 24.0865 27.0445 23.9575 26.8172C23.8286 26.5899 23.6146 26.4232 23.3627 26.3537C23.2364 26.2943 23.1044 26.248 22.9686 26.2158L23.0947 26.267L22.9883 26.2197L22.8306 26.1409C22.7282 26.0857 22.6297 26.0266 22.5351 25.9635C22.476 25.9281 22.4247 25.8886 22.3695 25.8532C22.1922 25.7271 22.4602 25.932 22.3892 25.8532C22.2198 25.6916 22.0464 25.5497 21.8887 25.3763L21.7626 25.2305C21.6207 25.065 21.8375 25.3369 21.7823 25.2581C21.7271 25.1793 21.6444 25.0689 21.5813 24.9704C21.4621 24.7825 21.3542 24.5878 21.2582 24.3871C21.2306 24.3319 21.2069 24.2767 21.1833 24.2216C21.1084 24.0639 21.266 24.4423 21.203 24.2689C21.1636 24.1703 21.1281 24.0758 21.0966 23.9812C21.0299 23.7808 20.9747 23.5769 20.9311 23.3703C20.9113 23.2797 20.8956 23.189 20.8798 23.0984C20.8483 22.921 20.9074 23.3467 20.8798 23.1811C20.8798 23.126 20.8798 23.0668 20.8798 23.0077C20.8738 22.7483 20.7681 22.5012 20.5846 22.3177C20.4011 22.1342 20.154 22.0285 19.8945 22.0225C19.6342 22.0255 19.3854 22.1303 19.2013 22.3144C19.0171 22.4985 18.9124 22.7474 18.9093 23.0077L18.8975 23.0235Z" fill="#4C85AA"/>
</g>
<defs>
<clipPath id="clip0_216_7680">
<rect width="33.097" height="28.62" fill="white"/>
</clipPath>
</defs>
</svg>
