<svg width="31" height="30" viewBox="0 0 31 30" fill="none" xmlns="http://www.w3.org/2000/svg">
<g id="Frame" clip-path="url(#clip0_328_4242)">
<path id="Vector" d="M28.8323 20.9721C29.4692 17.6681 29.947 14.3382 30.4298 11.0135C30.6764 9.33818 31.1541 7.57499 30.9435 5.87903C30.8086 4.48504 30.2731 3.16084 29.4025 2.06827C28.9141 1.49492 28.3125 1.03012 27.636 0.703425C26.9595 0.376735 26.2228 0.1953 25.4729 0.170652C23.4645 0.0724099 21.4303 0.170653 19.4167 0.129288L13.8537 0.0465578C12.4944 -0.0413908 11.1302 -0.0154495 9.77515 0.124116C8.59098 0.300162 7.46033 0.738358 6.46463 1.40714C5.46893 2.07592 4.63293 2.95865 4.01689 3.99175C3.12824 5.54294 2.86113 7.33715 2.47588 9.0538C2.14713 10.5688 1.82867 12.089 1.53075 13.6091C1.202 15.2792 0.888638 16.9493 0.580436 18.6246C0.236277 20.4861 -0.24141 22.3268 0.190073 24.2141C0.780794 26.7994 3.01526 29.2813 5.67607 29.7673C6.46482 29.8656 7.26041 29.8968 8.05436 29.8604L10.9925 29.9069C13.0164 29.9483 15.0454 29.9897 17.0693 30C18.1326 30 19.201 30 20.2643 30C21.1919 30.0239 22.1191 29.9406 23.0278 29.7518C24.6654 29.3309 26.1136 28.3652 27.1372 27.0114C27.6515 26.3177 28.025 25.5288 28.2365 24.6898C28.5292 23.5626 26.793 23.0765 26.5054 24.2089C26.3155 24.9161 25.9806 25.5754 25.5224 26.1444C25.0641 26.7135 24.4926 27.1796 23.8446 27.5129C22.3652 28.3144 20.706 28.1903 19.0726 28.2058C15.369 28.2368 11.6706 28.1024 7.96702 28.0714C6.69311 28.0714 5.80448 28.1334 4.67955 27.4768C3.65915 26.869 2.84186 25.9689 2.33207 24.8914C1.63861 23.4488 1.81841 21.9752 2.08552 20.4499C2.39372 18.7901 2.69678 17.1303 3.01526 15.4705C3.57516 12.544 4.12478 9.58637 4.8696 6.68048C5.13463 5.58951 5.68282 4.58901 6.45811 3.78134C7.2334 2.97367 8.20794 2.38784 9.28201 2.08379C9.48234 2.02691 9.68781 1.98037 9.89328 1.93901C9.97547 1.93901 10.0628 1.90798 10.1501 1.89247H10.2734C10.1347 1.89247 10.4172 1.89247 10.2734 1.89247C10.6953 1.85623 11.119 1.84587 11.5422 1.86145C13.3606 1.86145 15.179 1.90798 16.9973 1.93384C18.6856 1.95797 20.3756 1.97865 22.0673 1.99589H24.9541C25.8647 1.92221 26.771 2.18341 27.505 2.73107C28.2389 3.27872 28.7506 4.07567 28.9453 4.97417C29.3408 6.28234 29.1559 7.48709 28.9453 8.81078C28.483 11.9132 28.0669 15.0155 27.5276 18.1179C27.3889 18.9194 27.2399 19.7156 27.0858 20.5119C26.865 21.6495 28.6269 22.1355 28.822 20.9928L28.8323 20.9721Z" fill="#4C85AA"/>
<path id="Vector_2" d="M9.48222 16.6754C9.15861 19.178 10.3914 21.753 13.0779 22.1666C15.9956 22.6216 18.6923 20.8068 20.2077 18.4128C21.723 16.0188 22.6733 12.6372 21.3686 9.92775C20.2796 7.66819 17.4801 7.0322 15.261 7.70955C12.5951 8.52134 10.864 10.631 10.073 13.268C9.73907 14.3848 11.4701 14.8657 11.804 13.7488C12.3177 11.9753 13.3758 10.4293 15.1018 9.67957C16.5092 9.06943 18.2968 8.97636 19.4115 10.1966C20.146 11.0136 20.2231 12.3373 20.146 13.3817C20.0392 14.5057 19.7072 15.5963 19.17 16.5875C18.2095 18.4334 16.6736 20.0777 14.547 20.3776C14.0499 20.4834 13.5335 20.4512 13.0531 20.2846C12.5727 20.1179 12.1463 19.823 11.8194 19.4314C11.3075 18.6037 11.1241 17.6124 11.3057 16.6547C11.3044 16.4152 11.2093 16.1858 11.041 16.0164C10.8727 15.847 10.6448 15.7512 10.4068 15.7499C10.1701 15.7552 9.94445 15.8522 9.77699 16.0207C9.60953 16.1893 9.51313 16.4164 9.5079 16.6547L9.48222 16.6754Z" fill="#4C85AA"/>
</g>
<defs>
<clipPath id="clip0_328_4242">
<rect width="31" height="30" fill="white"/>
</clipPath>
</defs>
</svg>
