<svg width="37" height="28" viewBox="0 0 37 28" fill="none" xmlns="http://www.w3.org/2000/svg">
<g id="mc-black 1" clip-path="url(#clip0_339_2533)">
<path id="Vector" d="M6.5021 27.4431V25.6176C6.5021 24.9184 6.07114 24.4621 5.33656 24.4621C4.96438 24.4621 4.5726 24.5883 4.28856 24.9768C4.07309 24.6466 3.76946 24.4621 3.30912 24.4621C3.0055 24.4621 2.69208 24.5495 2.44721 24.8894V24.5203H1.80078V27.4431H2.44721V25.8312C2.44721 25.3166 2.72146 25.0739 3.15241 25.0739C3.58336 25.0739 3.79884 25.3457 3.79884 25.8312V27.4431H4.44527V25.8312C4.44527 25.3166 4.7489 25.0739 5.15047 25.0739C5.58143 25.0739 5.79691 25.3457 5.79691 25.8312V27.4431H6.5021ZM16.0516 24.5203H15.0036V23.6367H14.3572V24.5203H13.7696V25.1029H14.3572V26.443C14.3572 27.113 14.6314 27.5112 15.3661 27.5112C15.6403 27.5112 15.9537 27.4237 16.1594 27.2975L15.9733 26.7537C15.7872 26.88 15.5717 26.9091 15.4248 26.9091C15.1212 26.9091 14.9938 26.7246 14.9938 26.4236V25.1127H16.0418V24.5203H16.0516ZM21.5071 24.4621C21.135 24.4621 20.8901 24.6466 20.7432 24.8894V24.5203H20.0968V27.4431H20.7432V25.8021C20.7432 25.3166 20.9586 25.0447 21.3602 25.0447C21.4876 25.0447 21.6345 25.0739 21.7618 25.1029L21.9479 24.4912C21.8206 24.4621 21.6345 24.4621 21.5071 24.4621ZM13.2504 24.7631C12.9468 24.5495 12.5159 24.4621 12.0555 24.4621C11.3209 24.4621 10.8312 24.8311 10.8312 25.404C10.8312 25.8895 11.2034 26.1614 11.8401 26.2585L12.1437 26.2876C12.4767 26.3459 12.6628 26.443 12.6628 26.5886C12.6628 26.8023 12.4179 26.9576 11.987 26.9576C11.556 26.9576 11.223 26.8023 11.0076 26.6566L10.7039 27.1421C11.0369 27.3849 11.4973 27.5112 11.9576 27.5112C12.8195 27.5112 13.3092 27.113 13.3092 26.5692C13.3092 26.0546 12.9076 25.7827 12.3004 25.6856L11.9967 25.6565C11.7225 25.6273 11.507 25.5691 11.507 25.3845C11.507 25.171 11.7225 25.0544 12.0555 25.0544C12.4277 25.0544 12.7901 25.2098 12.9762 25.2971L13.2504 24.7631ZM30.3809 24.4621C30.0087 24.4621 29.7638 24.6466 29.6169 24.8894V24.5203H28.9705V27.4431H29.6169V25.8021C29.6169 25.3166 29.8324 25.0447 30.234 25.0447C30.3613 25.0447 30.5082 25.0739 30.6355 25.1029L30.8216 24.4912C30.6845 24.4621 30.4984 24.4621 30.3809 24.4621ZM22.1535 25.9866C22.1535 26.8702 22.7706 27.5112 23.7207 27.5112C24.1516 27.5112 24.4552 27.4237 24.7687 27.181L24.4651 26.6663C24.2202 26.8508 23.9753 26.9382 23.7011 26.9382C23.1819 26.9382 22.8098 26.5692 22.8098 25.9963C22.8098 25.4526 23.1819 25.0836 23.7011 25.0544C23.9753 25.0544 24.2202 25.1418 24.4651 25.3263L24.7687 24.8116C24.4651 24.5689 24.1516 24.4815 23.7207 24.4815C22.7706 24.4621 22.1535 25.1029 22.1535 25.9866ZM28.1085 25.9866V24.53H27.4622V24.899C27.2467 24.6271 26.943 24.4718 26.5415 24.4718C25.7089 24.4718 25.0723 25.1127 25.0723 25.9963C25.0723 26.88 25.7187 27.5208 26.5415 27.5208C26.9724 27.5208 27.276 27.3655 27.4622 27.0936V27.4626H28.1085V25.9866ZM25.7481 25.9866C25.7481 25.472 26.0812 25.0447 26.6394 25.0447C27.1585 25.0447 27.5307 25.4428 27.5307 25.9866C27.5307 26.5013 27.1585 26.9285 26.6394 26.9285C26.0812 26.8994 25.7481 26.5013 25.7481 25.9866ZM18.0399 24.4621C17.178 24.4621 16.5708 25.0739 16.5708 25.9866C16.5708 26.8994 17.1878 27.5112 18.0791 27.5112C18.5101 27.5112 18.941 27.3849 19.274 27.113L18.9704 26.6566C18.7255 26.8411 18.4219 26.9576 18.1084 26.9576C17.7069 26.9576 17.3151 26.7731 17.2172 26.2585H19.3915V26.0157C19.4209 25.0739 18.8724 24.4621 18.0399 24.4621ZM18.0399 25.0058C18.4415 25.0058 18.7158 25.2486 18.7745 25.705H17.2368C17.3053 25.3166 17.5796 25.0058 18.0399 25.0058ZM34.0342 25.9866V23.3745H33.3877V24.899C33.1723 24.6271 32.8687 24.4718 32.4671 24.4718C31.6346 24.4718 30.9979 25.1127 30.9979 25.9963C30.9979 26.88 31.6444 27.5208 32.4671 27.5208C32.898 27.5208 33.2017 27.3655 33.3877 27.0936V27.4626H34.0342V25.9866ZM31.6639 25.9866C31.6639 25.472 31.9969 25.0447 32.5552 25.0447C33.0743 25.0447 33.4465 25.4428 33.4465 25.9866C33.4465 26.5013 33.0743 26.9285 32.5552 26.9285C32.0067 26.8994 31.6639 26.5013 31.6639 25.9866ZM10.126 25.9866V24.53H9.47957V24.899C9.26409 24.6271 8.96051 24.4718 8.5589 24.4718C7.72639 24.4718 7.08976 25.1127 7.08976 25.9963C7.08976 26.88 7.73618 27.5208 8.5589 27.5208C8.98987 27.5208 9.29352 27.3655 9.47957 27.0936V27.4626H10.126V25.9866ZM7.73618 25.9866C7.73618 25.472 8.0692 25.0447 8.62749 25.0447C9.14656 25.0447 9.5188 25.4428 9.5188 25.9866C9.5188 26.5013 9.14656 26.9285 8.62749 26.9285C8.0692 26.8994 7.73618 26.5013 7.73618 25.9866Z" fill="#5293BD"/>
<path id="Vector_2" d="M22.7144 2.34082H13.0474V19.5573H22.7144V2.34082Z" fill="#5293BD"/>
<path id="Vector_3" d="M13.6534 10.9537C13.6534 7.45802 15.3087 4.35072 17.8552 2.34068C15.9845 0.88413 13.624 0.000488281 11.0481 0.000488281C4.93638 0.000488281 0 4.8945 0 10.9537C0 17.0033 4.93638 21.907 11.0481 21.907C13.624 21.907 15.9845 21.0234 17.865 19.5668C15.3087 17.5859 13.6534 14.4495 13.6534 10.9537Z" fill="#4C85AA"/>
<path id="Vector_4" d="M35.7498 10.9537C35.7498 17.0033 30.8134 21.907 24.7017 21.907C22.1258 21.907 19.7653 21.0234 17.8848 19.5668C20.4607 17.5568 22.0866 14.4592 22.0866 10.9537C22.0866 7.45802 20.4314 4.35072 17.8848 2.34068C19.7653 0.88413 22.1258 0.000488281 24.7017 0.000488281C30.8134 0.000488281 35.7498 4.93335 35.7498 10.9537Z" fill="#5E9FCA"/>
</g>
<defs>
<clipPath id="clip0_339_2533">
<rect width="36.1744" height="27.6628" fill="white"/>
</clipPath>
</defs>
</svg>
