<svg width="59" height="18" viewBox="0 0 59 18" fill="none" xmlns="http://www.w3.org/2000/svg">
<g id="mir-black 1">
<path id="Vector" fill-rule="evenodd" clip-rule="evenodd" d="M9.35425 1.84656C9.81714 1.84389 11.1927 1.72448 11.7753 3.61986C12.1678 4.8966 12.793 6.98797 13.6509 9.89397H14.0003C14.9204 6.83026 15.5524 4.73889 15.8964 3.61986C16.4851 1.70474 17.9569 1.8466 18.5456 1.8466L23.0877 1.84661V15.4652H18.4583V7.4395H18.1478L15.5672 15.4652H12.0841L9.50335 7.43361H9.19296V15.4652H4.56348V1.84661L9.35425 1.84656ZM29.7356 1.84661V9.87822H30.1048L33.2441 3.27388C33.8534 1.9596 35.1521 1.84661 35.1521 1.84661H39.6321V15.4652H34.9059V7.43361H34.5366L31.459 14.0379C30.8497 15.3462 29.4893 15.4652 29.4893 15.4652H25.0094V1.84661H29.7356ZM55.9678 8.31825C55.3085 10.1189 53.2382 11.4085 50.9461 11.4085H45.9898V15.4652H41.4955V8.31825H55.9678Z" fill="#4C85AA"/>
<path id="Vector_2" opacity="0.5" fill-rule="evenodd" clip-rule="evenodd" d="M51.1618 1.84668H41.2588C41.4944 4.87864 44.2034 7.4742 47.0078 7.4742H56.2789C56.8139 4.95428 54.9722 1.84668 51.1618 1.84668Z" fill="#4C85AA"/>
</g>
</svg>
