<svg width="40" height="12" viewBox="0 0 40 12" fill="none" xmlns="http://www.w3.org/2000/svg">
<g id="&#208;&#188;&#208;&#184;&#209;&#128; &#208;&#187;&#208;&#190;&#208;&#179;&#208;&#190; 1" clip-path="url(#clip0_28_5473)">
<path id="Vector" d="M10.779 0.0025637V0.00771767C10.7741 0.00771767 9.21606 0.00256348 8.80059 1.55377C8.41975 2.97615 7.34647 6.90141 7.31679 7.00963H7.02003C7.02003 7.00963 5.92202 2.99676 5.53623 1.54862C5.12076 -0.00259049 3.55783 0.0025637 3.55783 0.0025637H0V11.8007H3.55948V4.79357H3.85624L5.93356 11.8006H8.40491L10.4822 4.79872H10.779V11.8006H14.3385V0.0025637H10.779ZM23.782 0.0025637C23.782 0.0025637 22.7384 0.10048 22.2488 1.23946L19.728 7.00963H19.4312V0.0025637H15.8717V11.8007H19.2334C19.2334 11.8007 20.3264 11.6976 20.8161 10.5638L23.2875 4.79362H23.5843V11.8007H27.1437V0.0025637H23.782ZM28.7264 5.36051V11.8007H32.2859V8.04034H36.1422C37.8238 8.04034 39.2466 6.92202 39.7758 5.36223H28.7264V5.36051Z" fill="#4C85AA"/>
<path id="Vector_2" d="M36.1437 0.00256348H28.2268C28.6225 2.2495 30.2398 4.05151 32.3303 4.63902C32.8156 4.77598 33.3162 4.84531 33.819 4.84521H39.9208C39.9752 4.57723 39.9999 4.30409 39.9999 4.02065C40 1.80114 38.2738 0.00256348 36.1437 0.00256348Z" fill="#769AB2"/>
</g>
<defs>
<clipPath id="clip0_28_5473">
<rect width="40" height="11.8033" fill="white"/>
</clipPath>
</defs>
</svg>
