<svg width="10" height="13" viewBox="0 0 10 13" fill="none" xmlns="http://www.w3.org/2000/svg">
<path id="Vector" d="M5.95488 8.00815C7.02772 8.00815 8.05661 7.5863 8.81521 6.83539C9.57382 6.08448 10 5.06602 10 4.00408C10 2.94213 9.57382 1.92368 8.81521 1.17277C8.05661 0.421857 7.02772 0 5.95488 0H0V1.21106H1.52716V6.79709H0V8.00815H1.52716V9.66958H0V10.8806H1.52716V13H2.75064V10.8806H6.42325V9.66958H2.75064V8.00815H5.95488ZM2.75064 1.21106H5.95488C6.70323 1.21106 7.42093 1.50533 7.95009 2.02912C8.47925 2.55291 8.77652 3.26332 8.77652 4.00408C8.77652 4.74483 8.47925 5.45524 7.95009 5.97903C7.42093 6.50283 6.70323 6.79709 5.95488 6.79709H2.75064V1.21106Z" fill="#4C85AA"/>
</svg>
