<svg width="16" height="20" viewBox="0 0 16 20" fill="none" xmlns="http://www.w3.org/2000/svg">
<path id="Vector" d="M9.33684 12.0882C10.8388 12.0882 12.2792 11.5041 13.3413 10.4644C14.4033 9.42466 15 8.01449 15 6.54411C15 5.07372 14.4033 3.66355 13.3413 2.62383C12.2792 1.58411 10.8388 1 9.33684 1H1V2.67686H3.13803V10.4114H1V12.0882H3.13803V14.3886H1V16.0655H3.13803V19H4.8509V16.0655H9.99255V14.3886H4.8509V12.0882H9.33684ZM4.8509 2.67686H9.33684C10.3845 2.67686 11.3893 3.0843 12.1301 3.80955C12.8709 4.5348 13.2871 5.51845 13.2871 6.54411C13.2871 7.56976 12.8709 8.55341 12.1301 9.27866C11.3893 10.0039 10.3845 10.4114 9.33684 10.4114H4.8509V2.67686Z" fill="#4C85AA" stroke="#4C85AA"/>
</svg>
