<svg width="43" height="30" viewBox="0 0 43 30" fill="none" xmlns="http://www.w3.org/2000/svg">
<g id="Group 112">
<path id="Vector" d="M29.8003 7.12281C29.7214 7.05649 29.6254 7.0124 29.5225 6.99529C29.4197 6.97817 29.3141 6.9887 29.217 7.02571L12.6351 13.3374C12.4334 13.4142 12.2627 13.5525 12.1488 13.7316C12.0348 13.9108 11.9837 14.121 12.003 14.3308C12.0224 14.5406 12.1112 14.7387 12.2562 14.8952C12.4011 15.0517 12.5944 15.1583 12.8069 15.1989L17.2351 16.0448V20.8349C17.2351 21.057 17.3035 21.2739 17.4312 21.458C17.559 21.642 17.7404 21.7847 17.9522 21.8678C18.1639 21.9508 18.3963 21.9704 18.6196 21.9241C18.8429 21.8777 19.0469 21.7675 19.2053 21.6076L21.385 19.4088L24.7872 22.3096C24.9949 22.4883 25.2626 22.5871 25.5399 22.5873C25.661 22.587 25.7814 22.5685 25.8967 22.5324C26.0857 22.4742 26.2557 22.3689 26.3898 22.2269C26.5239 22.0849 26.6173 21.9111 26.6609 21.723L29.9844 7.66954C30.0078 7.57074 30.003 7.46761 29.9706 7.37127C29.9381 7.27492 29.8793 7.18902 29.8003 7.12281ZM12.9844 14.259C12.9813 14.2508 12.9813 14.2417 12.9844 14.2335C12.9881 14.2307 12.9923 14.2286 12.9967 14.2271L26.0644 9.25164L17.6123 15.1408L12.9967 14.2622L12.9844 14.259ZM18.4984 20.9439C18.4758 20.9667 18.4468 20.9824 18.4151 20.9891C18.3833 20.9957 18.3502 20.993 18.32 20.9813C18.2898 20.9696 18.2639 20.9495 18.2455 20.9234C18.2272 20.8973 18.2172 20.8665 18.2169 20.8349V16.7054L20.6462 18.7745L18.4984 20.9439ZM25.7044 21.5074C25.6983 21.5343 25.685 21.5591 25.6657 21.5793C25.6464 21.5994 25.6219 21.6142 25.5947 21.622C25.567 21.6314 25.5372 21.6335 25.5084 21.6279C25.4796 21.6223 25.4529 21.6092 25.4311 21.5901L18.5147 15.6891L28.7719 8.53938L25.7044 21.5074Z" fill="#4C85AA" stroke="#4C85AA" stroke-width="0.4"/>
<g id="Clip path group">
<g id="Group">
<path id="Vector_2" d="M4.55138 4.78624C3.6348 8.60775 2.63674 12.4084 1.73543 16.2247C1.35861 17.8157 1.00216 19.4171 0.686453 21.0237C0.340188 22.7758 -0.245396 24.736 0.111054 26.5297C0.523518 28.5731 2.23956 29.5505 4.13384 29.7689C6.21188 29.9094 8.29561 29.9406 10.3768 29.8625L24.2121 29.9457C26.4119 29.9457 28.6117 29.9977 30.8319 29.9821C32.8128 29.9821 34.9056 29.7689 36.4333 28.3703C37.8082 27.1173 38.4294 25.2195 38.8775 23.4466C39.3256 21.6736 39.7126 19.9474 40.0589 18.1797C40.7871 14.4986 41.4236 10.7602 41.9175 7.03755C42.1518 5.25938 42.1263 3.39803 40.8227 2.04101C39.5191 0.683998 37.686 0.257653 35.9088 0.122471C33.9076 -0.0387075 31.8707 0.0548803 29.8644 0.049681L23.5298 0.0184864C19.2066 0.0184864 14.8731 -0.023108 10.5601 0.0184864L7.58122 0.0444826C6.43548 0.0444826 6.43039 1.87463 7.58122 1.86423C15.5198 1.77585 23.4585 1.86424 31.3921 1.89543C33.1896 1.89543 35.0635 1.75505 36.8356 2.07221C38.2716 2.32697 39.8908 3.00288 40.2015 4.61987C40.3161 5.40953 40.2954 6.21352 40.1404 6.99595C39.9927 8.03581 39.8094 9.07567 39.6312 10.1155C39.3613 11.8053 39.0965 13.5003 38.8011 15.1901C38.5363 16.7083 38.2393 18.2213 37.91 19.7291C37.5906 21.4774 37.1465 23.1995 36.581 24.8816C35.9343 26.5765 34.8395 27.6996 33.0521 28.0375C31.1324 28.4015 29.0497 28.1831 27.1096 28.1675L14.2672 28.0895L7.88673 28.0531C6.91413 28.0531 5.93645 28.0531 4.96385 28.0531C4.18797 28.0895 3.41702 27.9098 2.7335 27.5332C1.2466 26.5401 1.90347 24.3564 2.16827 22.9058C2.45343 21.3634 2.76915 19.8244 3.11541 18.2888C3.86905 14.9769 4.72962 11.6857 5.54436 8.41016C5.79557 7.37031 6.0434 6.34604 6.28782 5.33737C6.5628 4.19872 4.84164 3.71519 4.57176 4.85383L4.55138 4.78624Z" fill="#4C85AA"/>
</g>
</g>
</g>
</svg>
