<svg width="16" height="14" viewBox="0 0 16 14" fill="none" xmlns="http://www.w3.org/2000/svg">
<path d="M15.8234 0.120445C15.7532 0.0614964 15.6679 0.0223029 15.5765 0.00709371C15.4851 -0.00811552 15.3912 0.0012369 15.3048 0.0341418L0.565372 5.64454C0.386094 5.71277 0.234413 5.83573 0.13311 5.99496C0.0318069 6.15418 -0.0136506 6.34108 0.00356438 6.52758C0.0207794 6.71407 0.0997376 6.8901 0.228581 7.02923C0.357425 7.16836 0.529198 7.26307 0.718105 7.29915L4.65425 8.05112V12.309C4.65433 12.5064 4.71506 12.6992 4.82864 12.8628C4.94221 13.0264 5.10346 13.1532 5.29168 13.2271C5.4799 13.3009 5.68651 13.3183 5.88498 13.2771C6.08346 13.2359 6.26475 13.138 6.40559 12.9959L8.34312 11.0413L11.3672 13.6198C11.5519 13.7787 11.7898 13.8665 12.0363 13.8667C12.144 13.8664 12.251 13.85 12.3535 13.8179C12.5215 13.7661 12.6726 13.6725 12.7918 13.5463C12.911 13.42 12.994 13.2656 13.0327 13.0984L15.987 0.606429C16.0078 0.518608 16.0035 0.426939 15.9747 0.341301C15.9459 0.255662 15.8936 0.179301 15.8234 0.120445ZM0.875929 6.46371C0.873144 6.45641 0.873144 6.44838 0.875929 6.44108C0.879214 6.43861 0.882902 6.4367 0.886839 6.43542L12.5025 2.01274L4.98954 7.24751L0.886839 6.46654L0.875929 6.46371ZM5.7772 12.4059C5.75716 12.4261 5.73137 12.4401 5.70314 12.446C5.6749 12.4519 5.64548 12.4495 5.61865 12.4391C5.59181 12.4287 5.56876 12.4108 5.55244 12.3876C5.53612 12.3644 5.52727 12.3371 5.52701 12.309V8.63826L7.68637 10.4775L5.7772 12.4059ZM12.1825 12.9067C12.1772 12.9306 12.1653 12.9527 12.1482 12.9706C12.131 12.9886 12.1092 13.0017 12.0851 13.0086C12.0605 13.017 12.034 13.0188 12.0084 13.0138C11.9828 13.0089 11.959 12.9973 11.9396 12.9803L5.79175 7.73491L14.9092 1.37962L12.1825 12.9067Z" fill="white"/>
</svg>
