<svg width="52" height="16" viewBox="0 0 52 16" fill="none" xmlns="http://www.w3.org/2000/svg">
<g id="visa-black 1" clip-path="url(#clip0_339_2538)">
<g id="Group">
<path id="Vector" d="M22.4366 15.3792H18.2422L20.8657 0.273438H25.0599L22.4366 15.3792Z" fill="#4C85AA"/>
<path id="Vector_2" d="M37.6438 0.64311C36.8165 0.337468 35.5042 0 33.8817 0C29.7395 0 26.8226 2.05684 26.8048 4.9975C26.7704 7.16715 28.8932 8.37218 30.4809 9.0956C32.1036 9.83483 32.6552 10.3173 32.6552 10.9762C32.6387 11.9882 31.344 12.4546 30.1363 12.4546C28.4617 12.4546 27.5644 12.2142 26.2008 11.6511L25.6485 11.4098L25.0615 14.8007C26.0453 15.2181 27.8578 15.5884 29.7395 15.6047C34.1407 15.6047 37.006 13.5797 37.0399 10.4459C37.0566 8.72633 35.9357 7.40866 33.519 6.33199C32.0521 5.64083 31.1536 5.17478 31.1536 4.4676C31.1708 3.8247 31.9135 3.16621 33.5695 3.16621C34.9331 3.13396 35.935 3.43917 36.694 3.74461L37.0733 3.90501L37.6438 0.64311Z" fill="#4C85AA"/>
<path id="Vector_3" d="M43.2181 10.0278C43.5635 9.15994 44.8927 5.80128 44.8927 5.80128C44.8753 5.83353 45.2374 4.91746 45.4446 4.35508L45.7377 5.65668C45.7377 5.65668 46.532 9.27251 46.7045 10.0278C46.049 10.0278 44.0465 10.0278 43.2181 10.0278ZM48.3956 0.273438H45.1512C44.1507 0.273438 43.3906 0.546402 42.9589 1.52676L36.7285 15.379H41.1297C41.1297 15.379 41.8543 13.5146 42.01 13.113C42.4928 13.113 46.7742 13.113 47.3954 13.113C47.5157 13.6434 47.8958 15.379 47.8958 15.379H51.7795L48.3956 0.273438Z" fill="#4C85AA"/>
<path id="Vector_4" d="M14.7386 0.273438L10.6309 10.5741L10.1819 8.48497C9.42248 6.07445 7.04074 3.45546 4.38281 2.15321L8.14538 15.3631H12.5809L19.1739 0.273438H14.7386Z" fill="#4C85AA"/>
<path id="Vector_5" opacity="0.7" d="M6.81753 0.273438H0.0690397L0 0.578653C5.26424 1.8322 8.75066 4.85381 10.183 8.48561L8.71605 1.54321C8.47446 0.57844 7.73225 0.305262 6.81753 0.273438Z" fill="#4C85AA"/>
</g>
</g>
<defs>
<clipPath id="clip0_339_2538">
<rect width="51.7791" height="15.6047" fill="white"/>
</clipPath>
</defs>
</svg>
