<svg width="42" height="30" viewBox="0 0 42 30" fill="none" xmlns="http://www.w3.org/2000/svg">
<g id="Group 119">
<g id="Group 111">
<path id="Vector" d="M39.0667 20.9706C39.9302 17.6676 40.578 14.3386 41.2326 11.0148C41.567 9.33996 42.2147 7.57727 41.9291 5.88178C41.7462 4.48818 41.0202 3.16435 39.8398 2.07208C39.1776 1.4989 38.3619 1.03423 37.4447 0.707622C36.5275 0.381023 35.5286 0.199639 34.5119 0.174998C31.7888 0.076783 29.0308 0.174999 26.3007 0.133645L18.7582 0.0509381C16.9152 -0.0369859 15.0656 -0.0110518 13.2283 0.128475C11.6228 0.304471 10.0898 0.742545 8.73982 1.41114C7.38981 2.07973 6.25633 2.96222 5.42109 3.99503C4.21622 5.54578 3.85406 7.33949 3.33173 9.05566C2.886 10.5702 2.45422 12.09 2.05029 13.6097C1.60456 15.2793 1.17969 16.949 0.761819 18.6238C0.295196 20.4848 -0.352469 22.3249 0.232551 24.2117C1.03347 26.7963 4.06304 29.2775 7.67066 29.7634C8.74008 29.8616 9.81877 29.8928 10.8952 29.8564L14.8789 29.9029C17.6229 29.9443 20.3739 29.9857 23.118 29.996C24.5597 29.996 26.0082 29.996 27.4499 29.996C28.7076 30.0199 29.9647 29.9366 31.1968 29.7479C33.4171 29.3271 35.3806 28.3617 36.7684 27.0082C37.4657 26.3147 37.9721 25.5261 38.2589 24.6873C38.6557 23.5604 36.3017 23.0744 35.9118 24.2065C35.6543 24.9135 35.2003 25.5726 34.579 26.1415C33.9576 26.7104 33.1828 27.1764 32.3042 27.5096C30.2984 28.3109 28.0488 28.1868 25.8342 28.2023C20.8127 28.2333 15.7983 28.0989 10.7768 28.0679C9.0496 28.0679 7.84476 28.1299 6.31954 27.4735C4.93605 26.8659 3.82794 25.966 3.13675 24.8888C2.19653 23.4466 2.44031 21.9734 2.80247 20.4486C3.22033 18.7892 3.63123 17.1299 4.06304 15.4706C4.82217 12.5449 5.56737 9.58808 6.57722 6.683C6.93656 5.59234 7.67981 4.59212 8.73098 3.78468C9.78214 2.97723 11.1035 2.39157 12.5597 2.0876C12.8313 2.03074 13.1099 1.98421 13.3885 1.94286C13.4999 1.94286 13.6183 1.91184 13.7367 1.89633H13.9039C13.7158 1.89633 14.0989 1.89633 13.9039 1.89633C14.4759 1.8601 15.0504 1.84975 15.6242 1.86532C18.0896 1.86532 20.5551 1.91184 23.0204 1.93769C25.3094 1.96182 27.6008 1.98249 29.8945 1.99973H33.8085C35.0431 1.92607 36.2719 2.18719 37.2671 2.7347C38.2621 3.2822 38.9559 4.07892 39.2199 4.97717C39.7561 6.28498 39.5054 7.48939 39.2199 8.81271C38.5931 11.9143 38.0289 15.0157 37.2977 18.1172C37.1097 18.9185 36.9077 19.7145 36.6987 20.5106C36.3994 21.6478 38.7882 22.1337 39.0527 20.9913L39.0667 20.9706Z" fill="#4C85AA"/>
</g>
<path id="Vector_2" d="M22.8205 21.7376V18.2783C25.1077 18.6326 25.8308 20.4612 27.2872 21.7376H31C30.0717 19.6323 28.6868 17.7676 26.9487 16.283C28.2821 14.4179 29.6974 12.6622 30.3897 10H27.0154C25.6923 12.037 24.9949 14.4231 22.8205 15.9964V10H17.9231L19.0923 11.4692V16.705C17.1949 16.481 15.9128 12.9539 14.5231 10H11C12.2821 13.9907 14.9795 22.7483 22.8205 21.7376Z" stroke="#4C85AA" stroke-width="1.5" stroke-linecap="round" stroke-linejoin="round"/>
</g>
</svg>
