<svg width="42" height="30" viewBox="0 0 42 30" fill="none" xmlns="http://www.w3.org/2000/svg">
<g id="Frame" clip-path="url(#clip0_328_4239)">
<path id="Vector" d="M4.55236 4.79894C3.63578 8.62044 2.63772 12.4211 1.73641 16.2374C1.35959 17.8284 1.00314 19.4298 0.687429 21.0364C0.341164 22.7885 -0.24442 24.7487 0.11203 26.5424C0.524494 28.5858 2.24054 29.5632 4.13482 29.7816C6.21286 29.9221 8.29659 29.9533 10.3778 29.8752L24.2131 29.9584C26.4129 29.9584 28.6127 30.0104 30.8329 29.9948C32.8138 29.9948 34.9066 29.7816 36.4343 28.383C37.8092 27.13 38.4304 25.2322 38.8785 23.4593C39.3266 21.6863 39.7136 19.9601 40.0599 18.1924C40.7881 14.5113 41.4246 10.7729 41.9185 7.05025C42.1528 5.27208 42.1273 3.41073 40.8237 2.05371C39.5201 0.696693 37.687 0.270348 35.9098 0.135166C33.9086 -0.0260122 31.8717 0.0675756 29.8654 0.0623763L23.5308 0.0311817C19.2076 0.0311817 14.8741 -0.0104127 10.5611 0.0311817L7.5822 0.0571779C6.43646 0.0571779 6.43137 1.88733 7.5822 1.87693C15.5208 1.78855 23.4595 1.87694 31.3931 1.90813C33.1906 1.90813 35.0645 1.76775 36.8366 2.08491C38.2726 2.33967 39.8918 3.01558 40.2025 4.63257C40.3171 5.42223 40.2964 6.22622 40.1414 7.00865C39.9937 8.04851 39.8104 9.08837 39.6322 10.1282C39.3623 11.818 39.0975 13.513 38.8021 15.2028C38.5373 16.721 38.2403 18.234 37.911 19.7418C37.5916 21.4901 37.1475 23.2122 36.582 24.8943C35.9353 26.5892 34.8405 27.7123 33.0531 28.0502C31.1334 28.4142 29.0507 28.1958 27.1106 28.1802L14.2682 28.1022L7.88771 28.0658C6.91511 28.0658 5.93743 28.0658 4.96483 28.0658C4.18895 28.1022 3.418 27.9225 2.73448 27.5459C1.24758 26.5528 1.90445 24.3691 2.16925 22.9185C2.45441 21.3761 2.77013 19.8371 3.11639 18.3015C3.87003 14.9896 4.7306 11.6984 5.54534 8.42286C5.79655 7.383 6.04438 6.35874 6.2888 5.35007C6.56378 4.21142 4.84262 3.72789 4.57274 4.86653L4.55236 4.79894Z" fill="#4C85AA"/>
<path id="Vector_2" d="M29.1472 13.7625C25.4706 11.7244 21.75 9.77635 17.9852 7.91846C17.8684 7.84987 17.7381 7.80889 17.6038 7.79852C17.4694 7.78815 17.3345 7.80866 17.2089 7.85853C17.0834 7.90841 16.9704 7.9864 16.8783 8.08675C16.7861 8.18709 16.7172 8.30725 16.6765 8.43839L14.5276 20.3968C14.485 20.5708 14.4927 20.7537 14.55 20.9233C14.6073 21.0929 14.7116 21.2418 14.8502 21.352C14.9889 21.4622 15.1559 21.5288 15.331 21.5439C15.506 21.5589 15.6816 21.5216 15.8363 21.4367C20.1697 19.3569 24.493 17.2772 28.9333 15.4575C29.1675 15.3918 29.3667 15.2339 29.487 15.0185C29.6073 14.803 29.6389 14.5477 29.5749 14.3084C29.5108 14.0758 29.3591 13.8786 29.153 13.7598C28.947 13.6409 28.7032 13.6101 28.475 13.6741C23.8921 15.5614 19.4263 17.6932 14.9554 19.8353L16.2641 20.8751L18.4079 8.91673L17.0992 9.43666C20.864 11.3049 24.5863 13.2599 28.2662 15.3015C29.2847 15.8578 30.1707 14.2616 29.1625 13.7417L29.1472 13.7625Z" fill="#4C85AA"/>
</g>
<defs>
<clipPath id="clip0_328_4239">
<rect width="42" height="30" fill="white"/>
</clipPath>
</defs>
</svg>
