<svg width="406" height="281" viewBox="0 0 406 281" fill="none" xmlns="http://www.w3.org/2000/svg">
<g clip-path="url(#clip0_216_7532)">
<path d="M237.029 244.92C241.574 256.94 255.468 264.06 267.277 266.296C281.153 268.942 296.091 267.19 309.725 264.022C324.28 260.594 338.233 254.983 351.111 247.38C364.5 239.655 376.546 229.804 386.779 218.214C394.844 208.896 401.567 197.956 404.492 185.824C406.694 177.403 406.5 168.534 403.933 160.217C401.249 152.497 395.737 146.083 388.511 142.27C375.473 134.648 360.461 133.195 345.672 134.462C329.686 136.045 314.069 140.245 299.443 146.892C295.718 148.551 291.993 150.34 288.361 152.222C286.759 153.042 288.175 155.446 289.777 154.626C303.529 147.318 318.265 142.039 333.528 138.953C347.795 136.232 363.329 135.394 377.186 140.165C386.145 143.24 395.421 148.476 399.723 157.291C402.859 164.208 403.932 171.882 402.815 179.394C399.63 205.187 378.36 225.985 357.909 239.776C334.664 255.487 306.223 265.495 277.95 264.656C263.347 264.209 246.733 258.618 239.879 244.584C239.637 244.063 239.73 244.249 239.711 244.174C239.078 242.516 236.377 243.224 237.011 244.92H237.029Z" fill="#4C85AA"/>
<path d="M360.33 134.424C361.767 128.032 361.782 121.402 360.376 115.004C358.969 108.605 356.175 102.593 352.191 97.3939C343.753 86.3984 330.92 80.0061 317.659 76.8938C302.311 73.2784 286.275 74.0238 270.815 76.5211C256.045 78.8614 241.753 83.5883 228.498 90.5171C217.52 96.0807 207.609 103.538 199.219 112.545C198.027 113.887 199.982 115.863 201.193 114.521C216.913 97.0026 239.99 86.063 262.657 80.9752C277.545 77.3584 292.948 76.3558 308.178 78.012C321.645 79.708 335.707 84.4975 345.597 94.1325C350.816 99.1441 354.665 105.411 356.774 112.334C358.884 119.257 359.185 126.606 357.648 133.679C357.275 135.431 359.957 136.176 360.349 134.424H360.33Z" fill="#4C85AA"/>
<path d="M76.7189 230.197C78.2574 239.536 82.037 248.362 87.7336 255.919C93.4301 263.475 100.873 269.537 109.425 273.583C128.237 282.584 149.675 282.435 169.716 278.242C189.205 274.29 207.823 266.86 224.68 256.307C240.725 246.013 254.55 232.611 265.34 216.89C275.752 201.814 283.034 183.923 281.581 165.305C281.056 156.353 278.233 147.688 273.386 140.146C268.6 133.276 262.41 127.501 255.226 123.205C219.838 101.419 175.453 113.887 140.865 131.014C124.289 139.251 108.513 149.93 96.4247 164.112C83.7723 178.537 76.4598 196.874 75.7131 216.052C75.5916 220.807 75.9284 225.563 76.7189 230.253C76.9983 232.116 79.699 231.278 79.401 229.507C76.5311 210.48 80.8833 191.067 91.6007 175.089C101.416 160.292 115.386 148.756 130.547 139.773C146.952 130.084 164.658 122.792 183.127 118.117C202.255 113.347 222.706 112.415 241.387 119.515C256.642 125.311 271.486 136.53 276.329 152.744C281.637 170.542 277.968 189.048 269.251 205.131C251.52 237.819 220.005 260.612 184.915 271.477C165.488 277.478 144.218 280.963 124.177 275.968C106.185 271.477 90.2597 260.09 83.0888 242.572C81.3841 238.369 80.1352 233.995 79.3637 229.526C79.0844 227.737 76.4023 228.426 76.7189 230.197Z" fill="#4C85AA"/>
<path d="M146.583 0.950228C139.59 19.8603 137.663 40.2724 140.996 60.1582C143.969 75.8724 151.466 90.3753 162.564 101.885C168.909 108.559 176.562 113.85 185.045 117.428C186.703 118.099 187.429 115.397 185.79 114.726C171.169 108.669 159.714 96.611 152.096 82.8946C143.808 67.855 141.163 50.6722 142.355 33.6385C143.189 22.732 145.488 11.9877 149.191 1.69569C149.806 -0.000227239 147.105 -0.727051 146.509 0.950228H146.583Z" fill="#4C85AA"/>
<path d="M146.136 10.2313C168.096 11.5172 191.918 17.2014 206.669 34.7941C215.777 45.6592 219.707 59.6924 220.396 73.6511C220.551 78.6974 220.446 83.7484 220.08 88.7839C219.968 90.6475 222.762 90.6475 222.873 88.7839C223.525 77.602 223.451 66.4201 220.452 55.611C218.192 47.3971 214.219 39.7556 208.793 33.1898C203.367 26.6239 196.613 21.2828 188.975 17.5182C175.751 10.9022 160.888 8.19997 146.136 7.43587C144.274 7.34269 144.274 10.1382 146.136 10.2313Z" fill="#4C85AA"/>
<path d="M160.85 96.872C140.698 89.5292 118.44 89.846 97.5235 93.5174C74.347 97.7457 52.0417 105.828 31.5332 117.428C20.4393 123.592 9.99897 130.867 0.372582 139.139C0.1544 139.354 0.0139895 139.636 -0.0264829 139.94C-0.0669552 140.243 -0.00517539 140.552 0.149084 140.817C14.8074 165.23 40.8832 182.134 68.2628 188.731C76.4132 190.694 84.7633 191.707 93.1465 191.75C93.517 191.75 93.8723 191.603 94.1343 191.341C94.3963 191.078 94.5434 190.723 94.5434 190.352C94.5434 189.982 94.3963 189.626 94.1343 189.364C93.8723 189.102 93.517 188.955 93.1465 188.955C64.5342 188.612 37.1505 177.268 16.6699 157.273C11.2393 151.944 6.50209 145.952 2.5704 139.438L2.3469 141.133C19.7116 126.409 39.4835 114.789 60.7939 106.787C81.58 98.7729 103.893 93.592 126.244 93.7411C137.763 93.735 149.2 95.6821 160.068 99.4997C161.763 100.115 162.489 97.4124 160.813 96.7974L160.85 96.872Z" fill="#4C85AA"/>
<path d="M79.7921 134.555C92.932 128.467 106.983 124.582 121.383 123.056C133.229 121.826 145.82 122.068 157.032 126.467C158.709 127.119 159.435 124.417 157.777 123.764C146.118 119.198 132.931 118.993 120.638 120.335C106.01 121.957 91.7432 125.948 78.3952 132.151C76.7562 132.896 78.1717 135.3 79.7921 134.555Z" fill="#4C85AA"/>
<path d="M180.482 166.442C187.581 164.492 194.039 160.698 199.201 155.446C203.598 150.571 206.732 144.69 208.327 138.319H205.626C209.351 150.154 222.557 159.062 234.98 156.695L233.621 154.365C229.169 159.36 225.22 165.249 224.978 172.163C224.773 178.127 227.4 183.699 230.231 188.787L232.093 186.923C226.773 184.372 220.968 182.993 215.069 182.879C205.57 183.01 197.543 188.023 191.713 195.31L194.041 196.67C195.904 189.532 197.003 182.264 194.153 175.201C191.75 169.274 186.274 166.908 180.78 164.522C179.141 163.814 177.707 166.218 179.364 166.945C184.337 169.088 189.664 171.101 191.713 176.599C194.097 183.047 192.998 189.476 191.359 195.925C191.043 197.173 192.775 198.44 193.687 197.285C199.182 190.427 206.576 185.637 215.572 185.656C220.814 185.863 225.958 187.131 230.696 189.383C230.957 189.508 231.25 189.548 231.535 189.5C231.819 189.451 232.082 189.315 232.286 189.11C232.49 188.906 232.626 188.643 232.675 188.358C232.724 188.073 232.683 187.78 232.559 187.52C230.063 183.01 227.66 178.201 227.679 172.853C227.679 166.498 231.404 161.037 235.539 156.471C235.74 156.248 235.864 155.967 235.894 155.668C235.925 155.37 235.86 155.069 235.709 154.81C235.557 154.551 235.328 154.347 235.053 154.226C234.778 154.106 234.472 154.077 234.179 154.142C223.265 156.21 211.475 148.01 208.253 137.704C208.162 137.417 207.983 137.166 207.74 136.987C207.497 136.809 207.203 136.713 206.902 136.713C206.601 136.713 206.308 136.809 206.065 136.987C205.822 137.166 205.642 137.417 205.552 137.704C204.102 143.614 201.216 149.075 197.152 153.601C192.338 158.51 186.31 162.053 179.681 163.87C177.949 164.392 178.694 167.094 180.407 166.572L180.482 166.442Z" fill="#4C85AA"/>
<path d="M329.654 172.704C334.946 172.412 340.068 170.724 344.497 167.811C348.927 164.898 352.507 160.863 354.873 156.117L352.284 155.409C353.345 165.566 364.39 171.101 373.647 171.231L372.958 168.622C368.246 171.138 363.645 174.865 362.528 180.4C361.596 185.134 363.273 189.719 365.508 193.912L367.706 192.216C363.971 189.069 359.287 187.27 354.407 187.11C346.435 186.662 339.134 190.24 333.174 195.272L335.372 196.95C337.849 191.899 339.805 186.718 338.855 180.978C337.998 175.984 334.142 173.263 330.268 170.523C328.797 169.498 327.4 171.921 328.853 172.946C332.224 175.331 335.651 177.605 336.191 182.059C336.769 186.923 335.055 191.247 332.95 195.552C332.774 195.846 332.711 196.194 332.774 196.531C332.837 196.868 333.022 197.17 333.294 197.38C333.565 197.589 333.904 197.692 334.246 197.667C334.588 197.643 334.909 197.494 335.148 197.248C343.194 190.483 356.866 186.066 365.713 194.191C365.952 194.437 366.273 194.587 366.615 194.611C366.957 194.635 367.296 194.533 367.567 194.324C367.838 194.114 368.023 193.812 368.087 193.475C368.15 193.138 368.087 192.789 367.911 192.495C366.048 189.085 364.465 185.041 365.228 181.127C366.141 176.3 370.276 173.207 374.355 171.045C374.609 170.883 374.805 170.643 374.914 170.362C375.022 170.08 375.038 169.771 374.959 169.48C374.88 169.189 374.71 168.931 374.474 168.743C374.238 168.555 373.949 168.447 373.647 168.436C366.197 168.324 355.972 163.926 355.022 155.39C354.891 154.142 353.159 153.34 352.414 154.701C350.307 159.031 347.09 162.724 343.092 165.405C339.094 168.087 334.457 169.66 329.654 169.964C327.884 170.113 327.791 172.909 329.654 172.76V172.704Z" fill="#4C85AA"/>
</g>
<defs>
<clipPath id="clip0_216_7532">
<rect width="406" height="281" fill="white"/>
</clipPath>
</defs>
</svg>
