<svg width="214" height="323" viewBox="0 0 214 323" fill="none" xmlns="http://www.w3.org/2000/svg">
<g clip-path="url(#clip0_216_8200)">
<path d="M36.3273 322.557C76.1334 284.12 114.548 243.953 148.071 199.863C164.814 178.182 179.789 155.191 192.853 131.111C205.271 107.906 216.846 81.4512 213.389 54.4062C212.09 43.0703 207.941 32.2486 201.329 22.9522C194.183 13.3165 183.987 6.38626 172.402 3.2908C145.689 -4.13497 116.551 1.87736 91.651 12.6785C67.6999 23.0366 45.4355 38.4577 29.5384 59.3638C14.4846 79.1518 5.73481 103.18 2.12949 127.651C-1.4596 153.459 -0.352469 179.703 5.39745 205.116C10.9003 230.283 20.9994 253.932 31.0985 277.538C33.9097 284.106 36.7209 290.688 39.532 297.284C40.291 299.14 43.3482 298.318 42.5681 296.44C32.7642 272.623 21.5897 249.248 13.9152 224.608C6.19004 200.269 2.62602 174.801 3.37336 149.275C4.25888 124.846 9.69856 100.269 21.1049 78.6033C33.1437 55.883 51.8871 38.0147 74.0039 25.1673C97.3647 11.5815 124.457 2.236 151.761 3.37518C164.959 3.92368 178.874 6.75054 189.522 15.0623C198.233 22.2192 204.576 31.8459 207.717 42.6769C215.75 68.5194 207.127 95.4168 195.72 118.749C184.044 142.117 170.388 164.44 154.902 185.475C123.15 229.418 86.0427 269.353 47.3751 307.347C42.9757 311.692 38.541 316.017 34.0713 320.321C32.6165 321.734 34.8514 323.97 36.3062 322.557H36.3273Z" fill="#4C85AA"/>
<path d="M81.1724 152.292C101.832 136.389 121.263 118.949 139.3 100.121C147.228 91.6829 158.276 81.3459 156.715 68.6884C156.525 65.992 155.599 63.3995 154.037 61.1936C152.476 58.9877 150.339 57.253 147.86 56.1785C142.126 53.879 135.611 55.5667 130.171 57.9294C116.825 63.773 107.738 75.2703 100.654 87.4637L103.542 88.6873C105.883 81.2826 109.024 72.2747 106.81 64.5114C106.39 62.7506 105.622 61.0921 104.549 59.6341C103.477 58.1762 102.123 56.9485 100.568 56.0238C99.0125 55.0991 97.2875 54.4963 95.495 54.2511C93.7026 54.0059 91.8793 54.1233 90.133 54.5963C81.5519 56.8324 77.0399 64.9333 75.1424 73.013C72.9922 82.9444 72.3807 93.1474 73.3292 103.265C74.4868 114.909 76.6023 126.439 79.6543 137.735C79.7097 137.936 79.804 138.124 79.932 138.289C80.06 138.453 80.2191 138.59 80.4002 138.693C80.5813 138.796 80.7808 138.862 80.9875 138.888C81.1941 138.914 81.4038 138.898 81.6045 138.843C81.8053 138.788 81.9932 138.693 82.1575 138.565C82.3217 138.437 82.4592 138.278 82.5619 138.097C82.6647 137.915 82.7309 137.716 82.7565 137.509C82.7822 137.302 82.7668 137.092 82.7115 136.892C78.4947 120.015 74.9316 102.822 76.3864 85.2698C77.0821 77.1689 78.1785 67.3382 84.3139 61.347C89.88 55.8831 99.3466 55.6089 102.91 63.4566C106.473 71.3043 102.678 80.6498 100.38 87.949C100.276 88.3194 100.311 88.7148 100.478 89.0614C100.645 89.4079 100.932 89.6817 101.286 89.8317C101.64 89.9816 102.037 89.9974 102.401 89.8761C102.766 89.7548 103.074 89.5047 103.268 89.1725C109.172 79.0254 116.319 69.3001 126.608 63.2667C131.837 60.2078 138.562 57.2122 144.74 58.5412C150.917 59.8703 153.869 65.7771 153.658 71.684C153.384 78.4769 148.999 84.3416 144.782 89.2991C141.451 93.2019 137.93 96.9569 134.367 100.649C125.933 109.235 117.289 117.399 108.37 125.373C98.7983 133.812 89.0155 142.25 78.8531 150.055C77.2507 151.321 79.5067 153.536 81.088 152.292H81.1724Z" fill="#4C85AA"/>
</g>
<defs>
<clipPath id="clip0_216_8200">
<rect width="214" height="323" fill="white"/>
</clipPath>
</defs>
</svg>
