<svg width="370" height="222" viewBox="0 0 370 222" fill="none" xmlns="http://www.w3.org/2000/svg">
<g clip-path="url(#clip0_216_8189)">
<path d="M120.733 190.891C126.273 182.973 129.539 173.691 130.18 164.051C131.114 153.676 131.663 143.109 132.315 132.645C133.383 115.987 134.337 99.3136 135.178 82.6255C135.949 67.0192 136.661 51.413 137.358 35.7919C137.714 27.8035 138.44 19.6817 137.358 11.723C136.765 7.27676 134.94 -0.518956 128.919 0.0294118C125.79 0.311006 123.625 4.32743 122.246 6.69875C119.457 11.6671 117.038 16.8337 115.009 22.1568C110.263 33.8948 106.244 45.9441 102.358 57.9934C96.6042 75.8672 90.4942 93.5632 84.2358 111.348C77.0877 131.816 69.7615 152.446 64.5858 173.521C63.1027 179.746 61.6197 186.86 64.4078 192.996C65.501 195.258 67.0326 197.281 68.9139 198.947C70.7952 200.614 72.9887 201.89 75.3673 202.703C83.1383 205.667 92.5259 205.667 100.579 203.8C106.745 202.467 112.431 199.479 117.026 195.159C118.376 193.83 119.62 192.398 120.748 190.876C121.608 189.735 119.68 188.623 118.82 189.765C110.767 200.465 97.1233 203.83 84.2358 202.451C78.3927 201.829 72.0602 199.932 68.2785 195.13C65.1345 191.143 64.8379 186.237 65.3124 181.406C66.098 176.15 67.3233 170.969 68.9755 165.918C70.4486 160.672 71.9959 155.45 73.6173 150.253C76.5834 140.649 79.7867 131.104 83.0642 121.589C89.6933 102.322 96.6635 83.1294 102.892 63.7142C106.244 53.3396 109.64 42.8317 113.422 32.5906C115.557 26.7957 117.782 21.0452 120.347 15.4282C122.157 11.5007 124.04 7.11373 126.977 3.8828C127.261 3.46835 127.633 3.12101 128.066 2.86502C128.499 2.60903 128.982 2.45058 129.483 2.40073C132.286 2.56376 133.621 5.55756 134.303 7.88441C136.32 14.702 135.786 22.305 135.43 29.3152C134.733 44.4768 134.065 59.6533 133.339 74.8149C132.612 89.9765 131.856 105.242 130.862 120.463C130.308 129.474 129.725 138.49 129.112 147.511C128.445 157.515 128.445 167.83 125.241 177.449C123.761 181.918 121.589 186.129 118.805 189.928C117.96 190.921 119.888 192.032 120.733 190.891Z" fill="#4C85AA"/>
<path d="M17.6332 119.248C38.9591 106.887 60.4036 94.7393 81.9668 82.8036C87.5034 79.7407 93.045 76.6827 98.5915 73.6296C99.8373 72.9478 98.725 71.0211 97.4644 71.7029C75.8419 83.5595 54.343 95.6186 32.9677 107.88C27.4805 111.003 21.9982 114.154 16.5209 117.336C16.2982 117.498 16.1435 117.736 16.0868 118.006C16.03 118.275 16.0752 118.556 16.2136 118.794C16.352 119.032 16.5737 119.21 16.836 119.294C17.0982 119.377 17.3822 119.361 17.6332 119.248Z" fill="#4C85AA"/>
<path d="M136.557 54.7624L214.875 14.1091C216.136 13.4422 215.009 11.5303 213.748 12.1824L135.43 52.7616C134.154 53.4286 135.282 55.3405 136.557 54.6883V54.7624Z" fill="#4C85AA"/>
<path d="M57.2745 94.4232C53.2851 113.957 48.8806 133.402 44.4908 152.847C40.2592 171.62 35.9782 190.358 31.6478 209.062L28.9783 220.607C28.6521 222 30.8025 222.593 31.1287 221.2C33.6499 210.331 36.1562 199.463 38.6477 188.594C43.4922 167.48 48.2626 146.345 52.9588 125.191C55.1685 115.172 57.408 105.139 59.41 95.0753C59.7066 93.6821 57.5563 93.0745 57.2745 94.4825V94.4232Z" fill="#4C85AA"/>
<path d="M213.748 14.0351L273.277 54.5402L336.157 97.3277L368.383 119.248C369.57 120.063 370.682 118.136 369.496 117.336L309.967 76.8306L247.087 34.0135L214.876 12.0936C213.689 11.2933 212.562 13.22 213.748 14.0203V14.0351Z" fill="#4C85AA"/>
<path d="M326.755 104.753C322.869 122.538 319.77 140.412 316.878 158.345C314.505 172.948 312.29 187.571 310.234 202.214C309.839 205.07 309.448 207.92 309.062 210.766C308.87 212.174 311.094 212.159 311.287 210.766C311.287 210.884 311.287 210.899 311.287 210.529C311.287 210.158 311.42 209.595 311.48 209.135C311.702 207.461 311.94 205.786 312.177 204.111C312.993 198.183 313.853 192.358 314.713 186.475C317.278 169.194 320.022 151.913 323.107 134.706C324.857 124.894 326.74 115.098 328.861 105.346C329.172 103.953 327.022 103.36 326.725 104.753H326.755Z" fill="#4C85AA"/>
<path d="M1.39397 219.184C15.7793 216.338 30.2537 213.982 44.7577 211.863C65.876 208.77 87.0734 206.265 108.35 204.348C133.324 202.111 158.402 200.703 183.48 200.436C209.155 200.017 234.831 201.195 260.36 203.963C283.999 206.66 307.654 211.062 330.181 218.873C332.732 219.742 335.268 220.671 337.789 221.659C339.123 222.178 339.702 220.029 338.367 219.51C316.389 210.988 293.12 206.068 269.792 202.926C244.333 199.645 218.685 198.055 193.016 198.168C167.686 198.168 142.356 199.309 117.129 201.369C95.1015 203.178 73.1477 205.618 51.2681 208.691C35.6964 210.884 20.1246 213.345 4.70118 216.279L0.800817 217.035C-0.682208 217.317 -0.0149008 219.451 1.39397 219.184Z" fill="#4C85AA"/>
<path d="M247.22 128.867C244.121 149.838 240.591 170.691 236.394 191.47C236.112 192.863 238.248 193.47 238.53 192.062C242.742 171.313 246.271 150.416 249.371 129.459C249.578 127.977 247.428 127.459 247.22 128.867Z" fill="#4C85AA"/>
<path d="M242.875 128.867C256.222 128.555 269.569 128.363 283.006 128.037L281.923 126.629C277.741 152.343 274.241 178.16 270.059 203.874C269.836 205.268 271.972 205.875 272.209 204.467C276.391 178.753 279.891 152.935 284.074 127.221C284.116 127.057 284.121 126.885 284.087 126.718C284.054 126.552 283.983 126.395 283.881 126.259C283.778 126.124 283.646 126.013 283.494 125.936C283.343 125.859 283.176 125.817 283.006 125.813C269.658 126.14 256.311 126.332 242.875 126.643C242.58 126.643 242.297 126.761 242.089 126.969C241.88 127.177 241.763 127.46 241.763 127.755C241.763 128.05 241.88 128.333 242.089 128.541C242.297 128.749 242.58 128.867 242.875 128.867Z" fill="#4C85AA"/>
</g>
<defs>
<clipPath id="clip0_216_8189">
<rect width="370" height="222" fill="white"/>
</clipPath>
</defs>
</svg>
