<svg width="514" height="308" viewBox="0 0 514 308" fill="none" xmlns="http://www.w3.org/2000/svg">
<mask id="mask0_86_3" style="mask-type:luminance" maskUnits="userSpaceOnUse" x="0" y="0" width="514" height="308">
<path d="M513.333 0H0V308H513.333V0Z" fill="white"/>
</mask>
<g mask="url(#mask0_86_3)">
<path d="M167.503 264.84C175.19 253.854 179.721 240.977 180.61 227.602C181.906 213.208 182.668 198.548 183.572 184.03C185.054 160.919 186.377 137.786 187.544 114.634C188.614 92.9816 189.602 71.3297 190.569 49.6572C191.063 38.5742 192.07 27.3061 190.569 16.2643C189.746 10.0957 187.214 -0.720017 178.861 0.0407814C174.52 0.431462 171.516 6.0038 169.603 9.29374C165.733 16.1868 162.377 23.3548 159.562 30.74C152.978 47.0252 147.402 63.7422 142.01 80.4593C134.027 105.257 125.551 129.808 116.868 154.483C106.951 182.88 96.7863 211.502 89.6056 240.741C87.5479 249.377 85.4904 259.247 89.3586 267.76C90.8753 270.898 93.0002 273.705 95.6103 276.017C98.2204 278.329 101.264 280.1 104.564 281.228C115.345 285.34 128.369 285.34 139.542 282.75C148.097 280.9 155.985 276.755 162.36 270.761C164.233 268.917 165.959 266.931 167.524 264.819C168.717 263.236 166.043 261.693 164.849 263.278C153.677 278.123 134.748 282.791 116.868 280.878C108.761 280.015 99.9755 277.383 94.7288 270.721C90.3668 265.189 89.9553 258.383 90.6136 251.68C91.7036 244.388 93.4035 237.2 95.6958 230.193C97.7395 222.914 99.8862 215.669 102.136 208.459C106.251 195.135 110.695 181.892 115.242 168.691C124.439 141.96 134.11 115.333 142.751 88.3963C147.402 74.0027 152.113 59.4241 157.36 45.2158C160.322 37.176 163.409 29.1978 166.968 21.4049C169.479 15.9559 172.092 9.86948 176.166 5.38692C176.56 4.81192 177.076 4.33003 177.677 3.97487C178.278 3.61971 178.948 3.39988 179.643 3.33072C183.532 3.5569 185.384 7.71046 186.33 10.9387C189.129 20.3973 188.388 30.9457 187.894 40.6715C186.927 61.7065 186 82.7622 184.993 103.797C183.984 124.832 182.935 146.011 181.556 167.129C180.788 179.631 179.979 192.139 179.128 204.655C178.203 218.534 178.203 232.845 173.758 246.19C171.704 252.391 168.691 258.233 164.829 263.504C163.656 264.881 166.331 266.423 167.503 264.84Z" fill="white"/>
<path d="M24.4643 165.443C54.0516 148.294 83.8034 131.44 113.72 114.881C121.401 110.631 129.09 106.389 136.785 102.153C138.513 101.207 136.97 98.5338 135.221 99.4797C105.222 115.929 75.395 132.66 45.7392 149.671C38.1263 154.004 30.5202 158.376 22.9211 162.79C22.6121 163.015 22.3975 163.345 22.3188 163.72C22.24 164.093 22.3027 164.483 22.4947 164.813C22.6868 165.143 22.9943 165.39 23.3583 165.507C23.722 165.622 24.116 165.6 24.4643 165.443Z" fill="white"/>
<path d="M189.457 75.9767L298.115 19.5748C299.864 18.6496 298.301 15.997 296.551 16.9017L187.894 73.2008C186.124 74.1262 187.689 76.7787 189.457 75.8739V75.9767Z" fill="white"/>
<path d="M79.4631 131.002C73.9282 158.103 67.8175 185.08 61.7271 212.058C55.8562 238.103 49.9168 264.1 43.9089 290.05L40.2053 306.067C39.7527 308 42.7361 308.823 43.1887 306.89C46.6866 291.811 50.1638 276.732 53.6205 261.653C60.3417 232.36 66.9601 203.037 73.4755 173.688C76.5412 159.788 79.6483 145.869 82.4258 131.906C82.8373 129.973 79.854 129.13 79.4631 131.084V131.002Z" fill="white"/>
<path d="M296.551 19.4721L379.141 75.6684L466.38 135.031L511.09 165.443C512.737 166.574 514.28 163.9 512.634 162.79L430.044 106.594L342.806 47.1899L298.116 16.7785C296.47 15.6682 294.906 18.3412 296.551 19.4516V19.4721Z" fill="white"/>
<path d="M453.337 145.333C447.946 170.008 443.646 194.806 439.634 219.686C436.341 239.946 433.268 260.234 430.416 280.549C429.868 284.512 429.326 288.466 428.79 292.414C428.524 294.368 431.609 294.347 431.877 292.414C431.877 292.578 431.877 292.599 431.877 292.085C431.877 291.571 432.061 290.789 432.145 290.151C432.453 287.829 432.783 285.505 433.112 283.181C434.244 274.957 435.437 266.875 436.63 258.713C440.189 234.738 443.996 210.762 448.276 186.889C450.704 173.276 453.316 159.685 456.259 146.156C456.69 144.223 453.707 143.4 453.295 145.333H453.337Z" fill="white"/>
<path d="M1.93412 304.093C21.8921 300.145 41.9737 296.876 62.0964 293.936C91.3957 289.645 120.805 286.169 150.324 283.51C184.972 280.406 219.765 278.453 254.558 278.082C290.179 277.501 325.802 279.135 361.22 282.976C394.017 286.717 426.835 292.825 458.089 303.662C461.628 304.867 465.147 306.156 468.644 307.527C470.495 308.247 471.298 305.265 469.446 304.545C438.954 292.722 406.671 285.896 374.306 281.537C338.985 276.985 303.401 274.779 267.788 274.936C232.646 274.936 197.503 276.519 162.503 279.377C131.943 281.887 101.484 285.272 71.1289 289.535C49.5249 292.578 27.9208 295.992 6.5225 300.063L1.11119 301.112C-0.946344 301.503 -0.0205305 304.464 1.93412 304.093Z" fill="white"/>
<path d="M342.991 178.788C338.692 207.883 333.794 236.815 327.972 265.643C327.58 267.576 330.544 268.418 330.935 266.464C336.779 237.678 341.675 208.685 345.976 179.61C346.263 177.554 343.28 176.835 342.991 178.788Z" fill="white"/>
<path d="M336.963 178.788C355.481 178.356 373.998 178.089 392.64 177.637L391.138 175.683C385.336 211.359 380.48 247.177 374.678 282.852C374.369 284.786 377.332 285.628 377.661 283.675C383.463 248 388.319 212.18 394.122 176.505C394.18 176.277 394.187 176.039 394.14 175.807C394.094 175.577 393.996 175.359 393.854 175.17C393.712 174.983 393.528 174.829 393.317 174.722C393.108 174.615 392.876 174.557 392.64 174.551C374.122 175.005 355.604 175.271 336.963 175.703C336.554 175.703 336.161 175.867 335.873 176.155C335.583 176.444 335.42 176.836 335.42 177.246C335.42 177.655 335.583 178.048 335.873 178.336C336.161 178.625 336.554 178.788 336.963 178.788Z" fill="white"/>
</g>
</svg>
