<svg width="269" height="22" viewBox="0 0 269 22" fill="none" xmlns="http://www.w3.org/2000/svg">
<path d="M191.946 17.6442C189.935 17.4283 188.131 16.8699 186.868 15.17C186.12 14.1625 185.819 13.0012 185.821 11.7628C185.826 10.0803 186.382 8.61869 187.652 7.50695C188.869 6.43987 190.354 6.06019 191.946 5.89889C191.946 4.33549 191.932 2.83662 191.951 1.33775C191.965 0.32775 192.733 -0.235568 193.618 0.094482C194.188 0.307897 194.376 0.78436 194.376 1.36753C194.376 2.62321 194.376 3.87888 194.376 5.13456C194.376 5.3579 194.376 5.58373 194.376 5.87159C194.884 5.96589 195.37 6.04778 195.851 6.14456C199.743 6.92874 201.735 11.0903 199.859 14.567C198.863 16.4108 197.193 17.2049 195.252 17.5251C195.054 17.5573 194.855 17.5722 194.657 17.602C194.58 17.6144 194.508 17.6442 194.374 17.6864C194.374 18.5475 194.378 19.4061 194.371 20.2672C194.364 21.2474 193.95 21.7289 193.132 21.7164C192.365 21.7065 191.951 21.2052 191.944 20.2697C191.941 19.426 191.946 18.5822 191.946 17.6442ZM194.376 8.14967C194.376 10.5866 194.376 12.9813 194.376 15.3735C196.426 15.5398 198.033 13.9665 198.069 11.8026C198.102 9.64855 196.486 8.02808 194.376 8.14967ZM191.992 8.14223C189.817 8.05289 188.21 9.67832 188.258 11.8497C188.304 13.9839 189.952 15.5547 191.992 15.3711C191.992 12.9788 191.992 10.5816 191.992 8.14223Z" fill="#4C85AA"/>
<path d="M134.82 15.2949C135.06 15.2949 135.197 15.2924 135.338 15.2949C136.148 15.3178 136.615 15.775 136.635 16.6234C136.659 17.6547 136.654 18.6885 136.637 19.7224C136.625 20.5403 136.107 21.1118 135.432 21.0991C134.752 21.0864 134.276 20.5174 134.266 19.6944C134.259 19.0213 134.261 18.3456 134.256 17.6725C134.256 17.6318 134.239 17.5912 134.22 17.5048C131.621 17.5048 129.013 17.5048 126.302 17.5048C126.302 18.0078 126.305 18.5234 126.302 19.0391C126.3 19.354 126.302 19.6716 126.276 19.9865C126.218 20.6419 125.768 21.0839 125.175 21.1016C124.587 21.1194 123.994 20.6241 123.975 19.9992C123.938 18.8003 123.943 17.5963 123.975 16.3973C123.989 15.836 124.328 15.4194 124.853 15.3406C125.264 15.2797 125.494 15.0485 125.589 14.7132C125.881 13.6921 126.22 12.671 126.356 11.6219C126.537 10.2274 126.561 8.80998 126.622 7.40276C126.665 6.42227 127.031 5.97521 127.987 5.95742C129.497 5.92948 131.009 5.94726 132.519 5.94472C132.821 5.94472 133.124 5.93456 133.426 5.9498C134.392 5.99553 134.815 6.45275 134.818 7.45864C134.822 9.81841 134.82 12.1807 134.82 14.5405C134.82 14.7615 134.82 14.9876 134.82 15.2949ZM128.814 8.21559C128.804 10.6643 128.64 13.0139 127.779 15.2517C129.344 15.2517 130.844 15.2517 132.354 15.2517C132.354 12.8843 132.354 10.5601 132.354 8.21559C131.166 8.21559 130.024 8.21559 128.814 8.21559Z" fill="#4C85AA"/>
<path d="M218.109 7.40932C219.142 6.35725 220.362 5.93989 221.747 5.96211C224.336 6.0041 226.573 8.21689 226.765 10.9211C226.908 12.9042 226.575 14.717 225.167 16.1666C223.306 18.0806 220.271 18.1621 218.304 16.3691C218.264 16.3321 218.212 16.3049 218.083 16.2185C218.083 17.4385 218.083 18.5918 218.083 19.7451C218.083 20.0316 218.1 20.3205 218.076 20.6046C218.015 21.3207 217.546 21.7381 216.853 21.7159C216.203 21.6961 215.769 21.2565 215.743 20.5502C215.722 19.9773 215.739 19.4043 215.739 18.8289C215.739 14.9985 215.736 11.1681 215.741 7.3377C215.741 6.36713 216.281 5.82628 217.116 5.96211C217.867 6.08312 218.025 6.69559 218.109 7.40932ZM218.076 11.7633C218.081 13.4574 218.806 14.7021 220.074 15.1812C221.604 15.7616 223.23 15.1195 223.979 13.6402C224.805 12.0053 224.413 9.89376 223.087 8.87381C222.064 8.08846 220.937 7.99956 219.829 8.55275C218.576 9.17757 218.093 10.3531 218.076 11.7633Z" fill="#4C85AA"/>
<path d="M259.841 7.36551C261.325 6.02427 263.036 5.66858 264.916 6.14777C267.391 6.77764 268.896 8.8352 268.996 11.6387C269.092 14.3731 267.644 16.5838 265.174 17.3866C263.708 17.8633 261.669 17.8485 259.802 16.2256C259.802 16.7295 259.802 17.1445 259.802 17.5595C259.802 18.4808 259.809 19.4046 259.799 20.3259C259.789 21.2275 259.318 21.7265 258.517 21.7166C257.733 21.7042 257.324 21.2349 257.324 20.3284C257.322 16.0231 257.322 11.7178 257.324 7.41491C257.324 6.50593 257.674 6.02427 258.378 5.95264C259.135 5.87359 259.534 6.20705 259.765 7.10369C259.784 7.17779 259.809 7.25436 259.841 7.36551ZM259.787 12.0735C259.774 13.1381 260.213 14.2842 261.456 14.9807C262.949 15.8156 264.826 15.3661 265.794 13.9902C266.87 12.4588 266.632 10.1814 265.253 9.01799C264.172 8.10406 262.924 7.96821 261.674 8.52891C260.308 9.14149 259.787 10.3321 259.787 12.0735Z" fill="#4C85AA"/>
<path d="M107.324 10.6563C106.513 11.6726 105.705 12.6889 104.891 13.7028C104.314 14.427 103.616 14.4317 103.041 13.7098C102.325 12.8127 101.62 11.9062 100.909 11.0044C100.817 10.8899 100.713 10.7848 100.539 10.5885C100.52 10.8806 100.499 11.0628 100.499 11.2474C100.496 12.7402 100.501 14.2331 100.496 15.726C100.494 16.5367 100.055 17.0039 99.3108 17.0016C98.5967 16.9993 98.1418 16.5414 98.1395 15.7657C98.1301 12.9155 98.1395 10.0652 98.1348 7.21732C98.1348 6.62391 98.3893 6.19637 98.9573 6.01181C99.5017 5.83425 99.9612 6.02115 100.303 6.46738C101.368 7.85746 102.429 9.24987 103.492 10.6423C103.642 10.8409 103.798 11.0371 103.986 11.2754C105.12 9.78254 106.232 8.33639 107.328 6.87389C107.75 6.31085 108.167 5.73846 108.997 6.01181C109.822 6.28515 109.815 6.98369 109.812 7.68924C109.798 10.3643 109.81 13.0393 109.805 15.7143C109.803 16.5647 109.291 17.0623 108.502 16.9993C107.852 16.9479 107.456 16.4736 107.451 15.698C107.441 14.2238 107.449 12.7519 107.449 11.2777C107.449 11.0862 107.449 10.8969 107.449 10.7054C107.404 10.6913 107.364 10.6727 107.324 10.6563Z" fill="#4C85AA"/>
<path d="M235.453 11.5609C236.317 10.4268 237.146 9.33944 237.972 8.24966C238.394 7.69491 238.811 7.13522 239.238 6.58294C239.682 6.00846 240.179 5.81614 240.735 6.02079C241.365 6.25501 241.551 6.7358 241.546 7.38178C241.526 10.3257 241.539 13.272 241.536 16.2159C241.536 17.1159 241.124 17.6016 240.36 17.6188C239.586 17.6361 239.082 17.1159 239.072 16.2184C239.052 14.6651 239.067 13.1093 239.067 11.556C239.067 11.3735 239.067 11.1911 239.067 10.8188C238.647 11.3292 238.33 11.7064 238.024 12.091C237.473 12.7814 236.94 13.4816 236.381 14.1646C235.783 14.8968 235.078 14.8968 234.475 14.1547C233.763 13.2794 233.075 12.3844 232.375 11.4993C232.216 11.2971 232.053 11.0999 231.8 10.7892C231.78 11.1368 231.762 11.3316 231.762 11.5264C231.76 13.1216 231.77 14.7169 231.752 16.3121C231.742 17.1578 231.288 17.6164 230.534 17.6164C229.794 17.6164 229.273 17.1356 229.268 16.3244C229.248 13.2967 229.251 10.2714 229.268 7.24371C229.27 6.64457 229.578 6.17119 230.189 6.00106C230.797 5.8334 231.271 6.08736 231.641 6.57307C232.78 8.07707 233.922 9.5786 235.066 11.0801C235.17 11.2281 235.289 11.3612 235.453 11.5609Z" fill="#4C85AA"/>
<path d="M169.285 12.7214C170.825 10.7897 172.362 8.85798 173.902 6.92629C173.978 6.83285 174.046 6.73475 174.124 6.64599C174.668 6.00832 175.19 5.81445 175.79 6.02C176.39 6.22555 176.601 6.59694 176.601 7.43549C176.601 10.166 176.601 12.8966 176.601 15.6294C176.601 16.5147 176.173 16.9865 175.371 16.9959C174.532 17.0075 174.084 16.531 174.084 15.6201C174.081 13.8776 174.084 12.1351 174.084 10.2174C173.854 10.4767 173.718 10.6238 173.595 10.7757C172.163 12.5415 170.732 14.3074 169.3 16.0732C169.212 16.1807 169.121 16.2881 169.028 16.3932C168.612 16.8581 168.108 17.136 167.433 16.9421C166.866 16.7786 166.571 16.3302 166.568 15.5991C166.561 12.8475 166.561 10.0983 166.568 7.34673C166.571 6.5549 166.966 6.06204 167.619 5.96161C168.473 5.8308 169.109 6.35869 169.119 7.2603C169.136 8.86733 169.124 10.4767 169.124 12.0837C169.124 12.2893 169.124 12.4925 169.124 12.698C169.182 12.7074 169.232 12.7144 169.285 12.7214Z" fill="#4C85AA"/>
<path d="M246.448 12.9152C246.676 14.5877 247.985 15.7672 249.601 15.8782C250.765 15.9582 251.788 15.6407 252.774 15.0187C253.069 14.8355 253.65 14.8148 253.924 14.9929C254.2 15.1736 254.357 15.6897 254.383 16.0691C254.398 16.3195 254.142 16.6653 253.911 16.8434C251.859 18.4152 249.593 18.6294 247.29 17.6125C244.928 16.5698 243.756 14.5903 243.802 12.0067C243.845 9.47226 245.017 7.55462 247.346 6.47836C250.671 4.9427 254.4 6.84228 255.002 10.3782C255.083 10.8582 255.08 11.3615 255.047 11.8493C255.002 12.5203 254.487 12.9101 253.708 12.9126C251.534 12.9178 249.36 12.9152 247.186 12.9152C246.955 12.9152 246.724 12.9152 246.448 12.9152ZM246.526 10.8556C248.543 10.8556 250.514 10.8556 252.485 10.8556C252.5 9.41548 251.448 8.31599 249.987 8.19727C248.284 8.0579 246.785 9.18835 246.526 10.8556Z" fill="#4C85AA"/>
<path d="M204.865 12.9392C205.085 14.612 206.399 15.8039 208.04 15.9073C209.178 15.9797 210.177 15.6694 211.148 15.067C211.456 14.8757 212.002 14.8938 212.364 15.0282C212.824 15.2015 212.91 15.7237 212.784 16.1865C212.715 16.4347 212.538 16.6881 212.344 16.8587C209.782 19.09 205.358 18.5289 203.348 15.7341C201.32 12.9133 202.081 8.74818 205.024 6.89442C206.895 5.71545 208.897 5.61462 210.842 6.67983C212.647 7.67005 213.459 9.33249 213.479 11.4009C213.489 12.4867 213.052 12.934 212 12.9366C209.621 12.9418 207.246 12.9392 204.865 12.9392ZM210.854 10.8838C210.968 9.5264 209.889 8.35778 208.427 8.21558C206.718 8.0527 205.135 9.25493 204.966 10.8838C206.933 10.8838 208.895 10.8838 210.854 10.8838Z" fill="#4C85AA"/>
<path d="M117.702 5.94141C120.873 5.94375 123.334 8.36141 123.334 11.4742C123.332 14.6033 120.852 17.007 117.631 17.0046C114.495 16.9999 112.057 14.5472 112.066 11.4063C112.076 8.32631 114.537 5.93907 117.702 5.94141ZM120.913 11.4578C120.899 9.56439 119.496 8.07822 117.713 8.06418C115.886 8.05013 114.429 9.59014 114.443 11.5187C114.457 13.4238 115.848 14.8561 117.678 14.8514C119.532 14.8444 120.927 13.3816 120.913 11.4578Z" fill="#4C85AA"/>
<path d="M140.912 10.201C142.517 10.201 144.014 10.201 145.598 10.201C145.598 9.12643 145.579 8.08458 145.605 7.04507C145.622 6.3326 146.153 5.90745 146.873 5.96351C147.443 6.00789 147.906 6.42136 147.908 6.97966C147.923 9.98373 147.923 12.9878 147.908 15.9895C147.906 16.5992 147.401 17.0033 146.752 17.001C146.105 17.001 145.629 16.6062 145.608 15.9779C145.576 14.9897 145.591 14.0016 145.586 13.0135C145.586 12.7846 145.586 12.5533 145.586 12.28C144.026 12.28 142.515 12.28 140.917 12.28C140.917 13.205 140.917 14.1278 140.917 15.0505C140.917 15.3214 140.921 15.5924 140.912 15.8634C140.885 16.5245 140.497 16.945 139.874 16.9987C139.203 17.0547 138.696 16.7114 138.536 16.083C138.502 15.9545 138.498 15.8143 138.498 15.6812C138.495 12.8897 138.495 10.1005 138.495 7.30903C138.495 6.71803 138.7 6.23916 139.314 6.01957C140.098 5.73692 140.888 6.25084 140.907 7.07777C140.931 8.10327 140.912 9.12643 140.912 10.201Z" fill="#4C85AA"/>
<path d="M153.155 9.6238C154.167 9.6238 155.072 9.56163 155.964 9.63575C157.984 9.80313 159.667 11.0943 159.594 13.4663C159.545 15.0994 158.478 16.4193 156.849 16.8091C156.378 16.9215 155.886 16.9765 155.404 16.9884C154.288 17.0147 153.172 17.0028 152.056 16.9956C151.302 16.9908 150.808 16.5604 150.803 15.8048C150.782 12.9116 150.782 10.0183 150.803 7.12748C150.808 6.39819 151.333 5.93431 152.006 5.94149C152.705 5.94866 153.136 6.39341 153.15 7.16095C153.167 7.94046 153.155 8.72952 153.155 9.6238ZM153.195 11.7088C153.195 12.8135 153.195 13.8561 153.195 14.9966C154.087 14.9536 154.947 14.9751 155.787 14.8555C156.724 14.724 157.179 14.1526 157.179 13.3133C157.181 12.486 156.649 11.8236 155.736 11.7256C154.911 11.6371 154.069 11.7088 153.195 11.7088Z" fill="#4C85AA"/>
<path d="M160.834 11.4771C160.834 10.0468 160.811 8.61414 160.843 7.18384C160.863 6.23186 161.98 5.62988 162.89 6.11053C163.266 6.30886 163.642 6.77318 163.651 7.12317C163.711 10.0234 163.697 12.9237 163.68 15.8263C163.677 16.5449 163.081 17.0023 162.257 17.0046C161.43 17.0093 160.854 16.5613 160.843 15.8286C160.817 14.3773 160.834 12.9284 160.834 11.4771Z" fill="#4C85AA"/>
<path d="M167.792 1.14325C167.837 0.658315 167.847 0.189684 168.561 0.0409448C169.367 -0.12817 169.873 0.23451 169.898 0.982281C169.928 1.87064 170.269 2.31075 171.086 2.51042C172.175 2.77938 173.164 2.23536 173.262 1.3144C173.285 1.11268 173.272 0.906893 173.307 0.709253C173.385 0.289523 173.688 0.0470574 174.221 0.0164945C174.755 -0.0140683 175.176 0.120408 175.303 0.584964C175.586 1.61799 175.005 3.12576 173.41 3.75535C171.361 4.56425 168.887 3.88779 168.115 2.26388C167.95 1.90732 167.897 1.51611 167.792 1.14325Z" fill="#4C85AA"/>
<path d="M11.3033 16.7211C11.5596 17.3858 12.218 17.8317 12.8869 18.0046C13.5703 18.1817 14.3038 18.1255 14.9914 18.0046C15.7123 17.8775 16.4104 17.6275 17.0626 17.2982C18.2898 16.6752 19.5484 15.6584 20.1089 14.3707C20.4881 13.4976 20.4881 12.4975 19.8713 11.7348C19.4067 11.1618 18.6545 10.9076 17.9439 10.8284C17.0501 10.7284 16.1207 10.9055 15.2748 11.191C14.7059 11.3848 14.9497 12.2891 15.5248 12.0953C16.1853 11.8703 16.8646 11.7286 17.5647 11.7432C18.069 11.7515 18.6378 11.8557 19.0275 12.2037C19.0566 12.2287 19.215 12.4079 19.1587 12.3349C19.1983 12.387 19.2358 12.4454 19.2692 12.5016C19.3546 12.6517 19.3629 12.6662 19.4109 12.8642C19.4775 13.1413 19.4421 13.4914 19.3213 13.8352C18.9545 14.8833 17.9335 15.7147 17.0105 16.2606C15.9853 16.8669 14.7538 17.2545 13.5537 17.1711C13.3286 17.1545 13.0661 17.0982 12.8744 17.019C12.6827 16.9378 12.5493 16.8461 12.4451 16.7502C12.391 16.7002 12.341 16.644 12.291 16.5898C12.2159 16.5064 12.3451 16.6731 12.2889 16.5856C12.2743 16.5627 12.2597 16.5419 12.2451 16.521C12.2076 16.4606 12.1284 16.2668 12.2076 16.4731C12.1159 16.2377 11.893 16.073 11.6304 16.146C11.4054 16.2064 11.2137 16.4835 11.3033 16.7211Z" fill="#4C85AA"/>
<path d="M18.096 11.3306C18.2419 10.6304 18.1356 9.8949 17.721 9.30106C17.2896 8.68221 16.6499 8.29256 15.9332 8.08211C15.1601 7.85499 14.3392 7.86124 13.5474 7.96543C12.7535 8.06961 11.9846 8.26964 11.2553 8.6072C10.6802 8.87391 10.1364 9.24272 9.70924 9.71362C9.30501 10.1595 9.96553 10.8263 10.3718 10.3762C11.3178 9.33023 12.8639 8.89891 14.2433 8.83848C15.0143 8.80514 15.8644 8.90516 16.5083 9.3719C17.0458 9.76363 17.3292 10.4242 17.1917 11.0805C17.0667 11.6702 17.971 11.9202 18.096 11.3306Z" fill="#4C85AA"/>
<path d="M26.9328 16.9789C27.9226 15.8267 28.9769 14.5994 30.3501 13.8993C30.7355 13.7034 31.1356 13.545 31.5544 13.4388C31.9087 13.3492 32.3379 13.2554 32.6942 13.3804C33.5318 13.6742 33.0505 14.8723 32.838 15.4183C32.7109 15.7412 33.0963 16.1121 33.4151 15.9954C34.1153 15.7392 34.9466 15.5162 35.7009 15.6079C35.8968 15.6308 36.1781 15.6891 36.2552 15.8975C36.3094 16.0455 36.251 16.2351 36.2156 16.3809C36.1635 16.6018 36.1052 16.8206 36.0447 17.0394C35.8864 17.6228 36.7907 17.8707 36.9491 17.2894C37.0887 16.7789 37.3033 16.1976 37.1637 15.6662C37.0407 15.1995 36.6407 14.8932 36.1948 14.7577C35.753 14.6244 35.2717 14.6494 34.8195 14.7036C34.2528 14.7702 33.7006 14.8953 33.1651 15.0932C33.3568 15.2849 33.5506 15.4787 33.7423 15.6704C34.0423 14.9015 34.2799 14.0722 33.8986 13.2867C33.5381 12.5449 32.7192 12.324 31.9545 12.4178C30.4063 12.6074 29.0624 13.4575 27.958 14.516C27.3621 15.0849 26.8078 15.6954 26.2702 16.3184C25.8785 16.7706 26.539 17.4373 26.9328 16.9789Z" fill="#4C85AA"/>
<path d="M36.8368 18.0446C35.5991 18.0613 34.3614 18.0779 33.1216 18.0925C30.5587 18.1238 27.9958 18.1529 25.4329 18.18C24.0327 18.1946 22.6324 18.2071 21.2322 18.2155C21.3677 18.4509 21.5031 18.6864 21.6364 18.9218C22.2428 17.9196 23.0929 17.0528 24.166 16.5589C25.1766 16.0922 26.383 15.7942 27.4999 15.938C27.752 15.9713 27.9687 15.6984 27.9687 15.4692C27.9687 15.1879 27.752 15.0337 27.4999 15.0004C26.2205 14.8337 24.8474 15.2171 23.693 15.7484C22.4845 16.3047 21.5093 17.3195 20.828 18.4467C20.6446 18.751 20.8801 19.1552 21.2322 19.1531C23.8076 19.1364 26.3851 19.1093 28.9606 19.0802C31.1505 19.0552 33.3425 19.0281 35.5324 19.001C35.9658 18.9947 36.4013 18.9906 36.8347 18.9843C37.439 18.9739 37.4411 18.0363 36.8368 18.0446Z" fill="#4C85AA"/>
<path d="M31.3272 13.2371C31.7689 11.5785 32.1502 9.90319 32.5065 8.22375C32.6628 7.48613 32.8524 6.72351 32.6628 5.9713C32.4857 5.27535 31.9752 4.67109 31.4043 4.25644C30.6687 3.72094 29.7623 3.60217 28.8809 3.74177C28.6726 3.77511 28.5476 4.00432 28.5371 4.19393C28.4642 5.42746 28.7309 6.72976 29.7665 7.50905C30.452 8.0258 31.3397 8.19458 32.1815 8.19666C32.4774 8.19666 32.7712 8.17166 33.067 8.14248C33.3192 8.11748 33.5359 7.94454 33.5359 7.67366C33.5359 7.4382 33.3212 7.17983 33.067 7.20483C32.842 7.22567 32.6149 7.24859 32.3878 7.25484C32.2294 7.25901 32.069 7.25901 31.9106 7.25067C31.8273 7.24651 31.7439 7.24026 31.6606 7.23192C31.6168 7.22775 31.5751 7.22359 31.5314 7.21734C31.6376 7.23192 31.5064 7.21317 31.4709 7.20692C31.2876 7.17566 31.1042 7.12982 30.9271 7.07148C30.8833 7.05689 30.8396 7.04022 30.7979 7.02355C30.7229 6.99438 30.8417 7.04647 30.7458 7.00063C30.6541 6.95688 30.5666 6.91104 30.4791 6.85894C30.4374 6.83394 30.3979 6.80894 30.3604 6.78185C30.3374 6.76726 30.2395 6.69017 30.3062 6.74434C30.2249 6.67766 30.1457 6.60682 30.0749 6.52972C29.9374 6.38387 29.8603 6.27552 29.7478 6.0484C29.6852 5.92338 29.6707 5.88379 29.6227 5.73376C29.5769 5.58999 29.5436 5.44205 29.5165 5.29202C29.454 4.93363 29.4581 4.5544 29.481 4.18976C29.3664 4.33979 29.2518 4.49189 29.1372 4.64192C30.2437 4.46897 31.5668 5.13367 31.7877 6.31302C31.9064 6.94437 31.6856 7.6174 31.5543 8.23208C31.3939 8.9822 31.2272 9.73024 31.0521 10.4762C30.8563 11.3159 30.6521 12.1535 30.4291 12.9849C30.2666 13.5725 31.1709 13.8205 31.3272 13.2371Z" fill="#4C85AA"/>
<path d="M31.4024 11.4703C31.5837 11.4974 31.7629 11.5557 31.9421 11.5932C32.2963 11.6703 32.6589 11.7245 33.0214 11.7474C33.9174 11.7995 34.8217 11.5974 35.5177 11.0098C36.0011 10.6035 36.3074 10.0284 36.4991 9.43665C36.5574 9.25745 36.4636 8.98866 36.2844 8.9074C35.7427 8.66361 35.1655 8.58651 34.5738 8.62193C34.1362 8.64902 33.6965 8.70528 33.286 8.86781C32.3567 9.23245 31.6066 9.91172 31.1232 10.7848C30.8294 11.312 31.6399 11.787 31.9337 11.2578C32.2963 10.6056 32.8901 10.0305 33.5361 9.77212C33.832 9.65335 34.1404 9.59501 34.4571 9.57C34.9051 9.5325 35.3947 9.53041 35.8115 9.72003C35.7406 9.54292 35.6677 9.36789 35.5968 9.19077C35.4531 9.63251 35.2489 9.99507 34.9259 10.291C34.8926 10.3222 34.8571 10.3514 34.8217 10.3806C34.878 10.3347 34.7717 10.4139 34.755 10.4264C34.6717 10.4827 34.5842 10.5347 34.4925 10.5806C34.455 10.5993 34.4154 10.6181 34.3779 10.6348C34.3279 10.6577 34.3841 10.6306 34.3925 10.6285C34.3654 10.6389 34.3404 10.6493 34.3133 10.6577C34.2216 10.6889 34.1278 10.7181 34.0341 10.741C33.9528 10.7598 33.8736 10.7764 33.7924 10.791C33.709 10.8056 33.8445 10.7889 33.734 10.7994C33.6861 10.8035 33.6403 10.8098 33.5923 10.8119C33.4152 10.8244 33.2381 10.8244 33.061 10.816C32.9797 10.8119 32.8985 10.8056 32.8172 10.7973C32.7818 10.7931 32.7443 10.7889 32.7089 10.7848C32.5755 10.7702 32.7297 10.7889 32.6589 10.7785C32.5172 10.7556 32.3755 10.7327 32.2359 10.7014C32.0421 10.6598 31.8504 10.5973 31.6545 10.5702C31.4045 10.5347 31.1503 10.6327 31.0774 10.8973C31.0148 11.114 31.1503 11.4349 31.4024 11.4703Z" fill="#4C85AA"/>
<path d="M49.92 16.3751C50.3096 15.8354 50.4909 15.1916 50.5534 14.5352C50.6159 13.883 50.6451 13.2246 50.6868 12.5724C50.7534 11.5202 50.8139 10.4658 50.866 9.41357C50.916 8.41549 50.9597 7.41533 51.0056 6.41725C51.0285 5.90884 51.0639 5.38375 50.9472 4.88367C50.843 4.43151 50.4742 3.95227 49.9491 4.07937C49.3407 4.22731 49.0532 5.18163 48.851 5.67963C48.5447 6.42975 48.2905 7.19863 48.0426 7.9675C47.6696 9.12602 47.2654 10.2741 46.8653 11.4243C46.6403 12.0723 46.4194 12.7224 46.2152 13.3767C46.0131 14.0206 45.7797 14.6811 45.6714 15.3499C45.5984 15.8063 45.5984 16.2793 45.8651 16.6731C46.1527 17.0981 46.6299 17.3232 47.1258 17.3961C48.1989 17.5524 49.2553 17.2502 49.92 16.3751C50.0721 16.173 49.9512 15.85 49.7512 15.7333C49.5116 15.5937 49.2636 15.7 49.1094 15.9021C49.2032 15.7792 49.0886 15.9271 49.0677 15.95C49.0344 15.9875 48.999 16.0251 48.9615 16.0605C48.8365 16.1813 48.7927 16.2105 48.6198 16.3001C48.2384 16.5001 47.7509 16.5397 47.33 16.4835C47.1758 16.4626 47.0007 16.4168 46.8841 16.3543C46.7986 16.3084 46.7653 16.2834 46.7403 16.2605C46.7195 16.2397 46.6986 16.2209 46.6799 16.198C46.5944 16.1084 46.7153 16.2647 46.6549 16.1647C46.6382 16.1376 46.6236 16.1105 46.609 16.0834C46.5736 16.0209 46.6403 16.1876 46.6069 16.0813C46.5944 16.0396 46.5861 15.9959 46.5715 15.9542C46.5403 15.8584 46.5757 16.0376 46.5715 15.9771C46.5694 15.9313 46.5653 15.8896 46.5653 15.8438C46.5632 15.6979 46.5819 15.5562 46.6111 15.4145C46.8611 14.2206 47.2966 13.0475 47.6946 11.8973C48.0905 10.7513 48.5031 9.60943 48.874 8.45508C49.0719 7.83623 49.2719 7.21946 49.4949 6.60895C49.6178 6.27139 49.747 5.93592 49.8866 5.62546C49.9471 5.4921 50.0117 5.35875 50.0825 5.22956C50.1117 5.17538 50.1429 5.12121 50.1763 5.06912C50.1929 5.04411 50.2096 5.01702 50.2263 4.99202C50.2784 4.91076 50.1742 5.06287 50.2304 4.98577C50.2804 4.91701 50.3054 4.94826 50.2284 4.97118C50.245 4.96493 50.3138 4.93993 50.2242 4.96702C50.17 4.98369 50.1117 5.01077 50.0533 4.98994C49.9637 4.95868 49.9846 4.88784 50.0054 4.98577C50.0096 5.01286 50.0512 5.13996 50.0637 5.21914C50.1304 5.63379 50.0846 6.07553 50.0658 6.49226C50.0262 7.37574 49.9866 8.25921 49.9429 9.14061C49.8929 10.172 49.8366 11.2034 49.772 12.2349C49.7324 12.8704 49.6887 13.508 49.6449 14.1435C49.6012 14.7832 49.4949 15.3708 49.1115 15.9021C48.9636 16.1084 49.0761 16.4251 49.2803 16.5439C49.5137 16.6814 49.7699 16.5814 49.92 16.3751Z" fill="#4C85AA"/>
<path d="M43.071 12.1222C44.888 11.0679 46.7195 10.0365 48.5615 9.02591C49.0908 8.73628 48.6178 7.92573 48.0885 8.21536C46.2466 9.22594 44.415 10.2574 42.598 11.3117C42.075 11.6138 42.548 12.4265 43.071 12.1222Z" fill="#4C85AA"/>
<path d="M50.7201 7.97376C52.2016 7.2028 53.6852 6.43393 55.1667 5.66297C55.7022 5.38376 55.2292 4.57529 54.6937 4.85242C53.2122 5.62338 51.7286 6.39225 50.2471 7.16321C49.7095 7.44242 50.1846 8.25297 50.7201 7.97376Z" fill="#4C85AA"/>
<path d="M44.9129 10.1449C44.3941 12.6891 43.7961 15.2187 43.2147 17.7503C43.1543 18.0171 43.0918 18.2838 43.0314 18.5505C42.8959 19.1381 43.8002 19.3881 43.9357 18.8005C44.4337 16.6502 44.9254 14.4956 45.4026 12.3411C45.5463 11.6931 45.688 11.0472 45.8193 10.3971C45.9381 9.80531 45.0338 9.55318 44.9129 10.1449Z" fill="#4C85AA"/>
<path d="M54.6934 5.66483C57.1917 7.36719 59.6921 9.06746 62.1905 10.7698C62.8531 11.2199 63.5136 11.672 64.1762 12.1221C64.6763 12.4618 65.1451 11.6512 64.6492 11.3116C62.1509 9.60921 59.6505 7.90894 57.1521 6.20658C56.4895 5.75651 55.829 5.30435 55.1664 4.85428C54.6663 4.51464 54.1954 5.32727 54.6934 5.66483Z" fill="#4C85AA"/>
<path d="M61.2888 11.6886C61.0096 13.6222 60.7616 15.5601 60.522 17.4999C60.4908 17.7521 60.7596 17.9688 60.9908 17.9688C61.2701 17.9688 61.4284 17.7521 61.4597 17.4999C61.6868 15.6434 61.9243 13.7889 62.1931 11.9386C62.2286 11.6886 62.1306 11.4344 61.866 11.3615C61.6451 11.301 61.3242 11.4365 61.2888 11.6886Z" fill="#4C85AA"/>
<path d="M41.9792 18.2943C44.1316 17.8713 46.2528 17.5942 48.4344 17.3984C51.5099 17.1233 54.6313 17.0233 57.7047 17.3692C59.2987 17.5484 60.8948 17.8672 62.395 18.4464C62.6305 18.5381 62.9097 18.3464 62.9722 18.1193C63.0451 17.8547 62.8826 17.6338 62.645 17.5421C59.8154 16.4482 56.6628 16.2252 53.6582 16.2169C50.716 16.2107 47.776 16.4649 44.863 16.8712C43.8149 17.017 42.7689 17.1837 41.7292 17.3879C41.1374 17.5067 41.3874 18.411 41.9792 18.2943Z" fill="#4C85AA"/>
<path d="M56.5623 12.2553C56.4165 13.2513 56.2477 14.239 56.0476 15.2287C55.9997 15.4684 56.1164 15.7476 56.3748 15.8059C56.6082 15.8601 56.8999 15.7351 56.952 15.4788C57.152 14.4911 57.3187 13.5035 57.4666 12.5054C57.502 12.2637 57.4062 11.9886 57.1395 11.9282C56.9165 11.8782 56.5998 11.997 56.5623 12.2553Z" fill="#4C85AA"/>
<path d="M56.5003 12.77C57.3817 12.7492 58.261 12.7409 59.1424 12.72C58.9923 12.5221 58.8402 12.3241 58.6902 12.1262C58.4339 13.7035 58.2276 15.2892 57.9713 16.8665C57.9317 17.1166 58.0359 17.3708 58.2985 17.4437C58.5214 17.5041 58.834 17.3666 58.8757 17.1166C59.1319 15.5392 59.3382 13.9536 59.5945 12.3762C59.6424 12.0866 59.4737 11.7741 59.1424 11.7824C58.261 11.8032 57.3817 11.8116 56.5003 11.8324C55.8981 11.8449 55.896 12.7826 56.5003 12.77Z" fill="#4C85AA"/>
<path d="M67.5058 18.223C67.9142 16.5894 68.4935 15.0037 69.7333 13.8098C70.9147 12.67 72.492 12.0407 74.0694 11.6823C75.4029 11.3781 77.074 11.1239 78.2992 11.8157C78.6889 12.0345 78.9472 12.2908 79.1431 12.6867C79.3431 13.093 79.3932 13.7618 79.4057 14.2869C79.4369 15.7184 79.1994 17.1291 79.0452 18.546C79.0181 18.7981 79.2806 19.0148 79.514 19.0148C79.7911 19.0148 79.9557 18.7981 79.9828 18.546C80.1287 17.2062 80.3454 15.8768 80.3454 14.5245C80.3454 13.8598 80.3141 13.1493 80.0828 12.52C79.8828 11.9761 79.5286 11.5365 79.0639 11.1948C77.7929 10.2592 76.0093 10.3717 74.5424 10.6322C72.765 10.9489 71.0105 11.5677 69.5832 12.6971C67.91 14.0202 67.1016 15.9601 66.5994 17.975C66.4556 18.5605 67.36 18.8106 67.5058 18.223Z" fill="#4C85AA"/>
<path d="M68.3457 7.78838C71.8421 7.39456 75.3447 7.07785 78.8536 6.83614C79.8642 6.76738 80.8748 6.70487 81.8854 6.64653C82.4854 6.61319 82.4896 5.67554 81.8854 5.70888C78.3744 5.90682 74.8655 6.17979 71.367 6.52776C70.3606 6.62777 69.3521 6.73613 68.3477 6.84864C68.0956 6.87781 67.8789 7.04451 67.8789 7.31747C67.8768 7.55084 68.0935 7.81755 68.3457 7.78838Z" fill="#4C85AA"/>
<path d="M71.3545 10.7951C70.8648 13.3268 70.4231 15.8709 70.0272 18.4214C69.9876 18.6714 70.0918 18.9256 70.3543 18.9985C70.5773 19.059 70.8919 18.9235 70.9315 18.6714C71.3274 16.1231 71.7691 13.5789 72.2588 11.0452C72.3067 10.7972 72.1879 10.5388 71.9317 10.468C71.7004 10.4055 71.4024 10.5451 71.3545 10.7951Z" fill="#4C85AA"/>
<path d="M70.317 15.3726C72.5986 15.1392 74.9073 15.0829 77.1993 15.1288C77.8036 15.1413 77.8036 14.2036 77.1993 14.1911C74.9073 14.1474 72.5986 14.2015 70.317 14.4349C70.0648 14.4599 69.8481 14.6328 69.8481 14.9037C69.8481 15.1371 70.0648 15.3996 70.317 15.3726Z" fill="#4C85AA"/>
<path d="M77.189 11.0699C76.8535 13.5745 76.5514 16.0832 76.2846 18.5961C76.2576 18.8482 76.5201 19.0649 76.7535 19.0649C77.0285 19.0649 77.1952 18.8482 77.2223 18.5961C77.4911 16.0832 77.7911 13.5745 78.1266 11.0699C78.16 10.8178 77.887 10.6011 77.6578 10.6011C77.3765 10.6011 77.2223 10.8178 77.189 11.0699Z" fill="#4C85AA"/>
<path d="M3.47469 16.004C3.66222 17.0229 4.29983 17.896 5.23539 18.3502C6.23347 18.8357 7.34615 18.8566 8.41924 18.6461C10.4529 18.2481 12.2719 17.1271 13.443 15.406C13.9972 14.5913 14.3577 13.6057 14.2494 12.6118C14.141 11.6283 13.6242 10.8469 12.7824 10.3302C10.9342 9.19041 8.63386 9.80301 6.81898 10.6969C5.83758 11.1803 4.93535 11.8367 4.27691 12.7201C3.57263 13.662 3.29341 14.8413 3.47469 16.004C3.51428 16.2541 3.82683 16.3937 4.05187 16.3311C4.31858 16.2582 4.4186 16.0061 4.37901 15.754C4.1123 14.0495 5.30832 12.6493 6.68146 11.8346C8.11503 10.9844 10.0424 10.2677 11.6969 10.8428C12.3178 11.0595 12.9762 11.5033 13.2013 12.1513C13.4721 12.9285 13.3013 13.7661 12.9158 14.4725C12.1011 15.9686 10.6654 17.0167 9.05685 17.5168C8.10669 17.8126 7.06694 17.9856 6.09595 17.6876C5.16663 17.4022 4.55612 16.7062 4.38109 15.754C4.33525 15.5039 4.03312 15.3643 3.80391 15.4268C3.54137 15.4977 3.42885 15.754 3.47469 16.004Z" fill="#4C85AA"/>
<path d="M9.74083 9.62857C8.67815 9.36186 7.7155 8.53881 7.51755 7.4303C7.32585 6.34887 7.61757 5.32787 7.98638 4.32355C8.07389 4.08601 7.88844 3.81096 7.65924 3.74637C7.3967 3.67552 7.16958 3.83597 7.08206 4.0735C6.63199 5.2987 6.34861 6.56349 6.65074 7.86578C6.95704 9.18891 8.21558 10.2099 9.49079 10.5308C10.0763 10.6808 10.3263 9.77651 9.74083 9.62857Z" fill="#4C85AA"/>
<path d="M7.2546 5.56292C7.75051 5.59209 8.22351 5.66502 8.70692 5.82963C8.91945 5.90256 8.98196 5.92756 9.19866 6.04842C9.27993 6.09426 9.35911 6.14218 9.4362 6.19427C9.47371 6.21928 9.50913 6.24637 9.54455 6.27137C9.57164 6.29221 9.56539 6.28596 9.52372 6.2547C9.54247 6.26929 9.56122 6.28596 9.57998 6.30054C9.70708 6.40681 9.81751 6.52349 9.92586 6.64643C9.94045 6.6631 10.0092 6.75478 9.93628 6.65477C9.96129 6.69019 9.98838 6.72561 10.0134 6.76103C10.0551 6.82146 10.0946 6.88605 10.1321 6.95065C10.1676 7.01316 10.2009 7.07775 10.2322 7.14234C10.2447 7.16943 10.2572 7.1986 10.2697 7.22569C10.2113 7.0965 10.2676 7.22361 10.278 7.25278C10.3259 7.37988 10.3634 7.50907 10.3947 7.64034C10.4551 7.88621 10.7322 8.03416 10.9719 7.96748C11.224 7.89872 11.3594 7.63826 11.299 7.3903C11.1344 6.70686 10.7656 6.06092 10.2155 5.61293C9.37578 4.92949 8.3131 4.6857 7.25252 4.62319C7.00039 4.6086 6.78369 4.85031 6.78369 5.09201C6.78578 5.36081 7.00039 5.54834 7.2546 5.56292Z" fill="#4C85AA"/>
<path d="M9.28835 9.67605C7.42763 8.24665 4.84179 8.0487 2.69561 8.91759C1.78297 9.2864 0.903657 9.82607 0.282724 10.6012C0.0743567 10.8617 -0.0694165 11.0617 0.034767 11.4138C0.120197 11.6993 0.243134 11.9806 0.393158 12.2369C0.69529 12.7557 1.11202 13.1954 1.58918 13.5558C2.11844 13.958 2.75187 14.258 3.40823 14.3789C3.74787 14.4414 4.09376 14.4727 4.43965 14.4456C4.48965 14.4414 4.54175 14.4351 4.59175 14.4289C4.90222 14.3914 4.56883 14.4206 4.74178 14.4185C4.83138 14.4164 4.92097 14.4185 5.01057 14.4185C5.61484 14.4185 5.61484 13.4808 5.01057 13.4808C4.64176 13.4808 4.27712 13.5371 3.90831 13.5079C3.45199 13.4725 2.99983 13.3162 2.60185 13.0974C1.79964 12.6557 1.13703 11.9264 0.903657 11.0283C0.886988 11.1492 0.872402 11.2701 0.855733 11.3888C1.41416 10.5762 2.38098 9.99485 3.32905 9.67605C4.4584 9.29473 5.68985 9.20722 6.84837 9.50727C7.56932 9.6948 8.22567 10.0282 8.81744 10.4824C9.01747 10.6366 9.34252 10.5137 9.45921 10.3136C9.59673 10.0761 9.48838 9.83024 9.28835 9.67605Z" fill="#4C85AA"/>
<path d="M75.3301 8.72989C74.8508 8.86325 74.2883 8.88825 73.8569 8.60279C73.4027 8.30065 73.2818 7.70056 73.3235 7.19006C73.361 6.72748 73.5277 6.28991 73.8028 5.9211C74.0153 5.63772 74.3008 5.41269 74.6487 5.23558C74.6904 5.21474 74.7321 5.1939 74.7737 5.17515C74.8508 5.13973 74.7487 5.1814 74.8279 5.15223C74.9175 5.11889 75.005 5.08764 75.0967 5.06055C75.1759 5.03763 75.2572 5.01679 75.3384 5.0022C75.378 4.99387 75.4176 4.98762 75.4551 4.98137C75.5093 4.97095 75.4301 4.98345 75.4259 4.98345C75.4509 4.98137 75.4759 4.9772 75.5009 4.97512C75.6489 4.96261 75.7906 4.9647 75.9364 4.97512C75.8718 4.97095 75.8593 4.95845 75.9239 4.9772C75.9781 4.99179 76.0323 5.0022 76.0844 5.01887C76.2052 5.05638 76.3157 5.11056 76.4219 5.17723C76.7949 5.41269 77.0199 5.85026 77.0387 6.28158C77.0429 6.40243 77.0324 6.5212 77.0241 6.64205C77.0179 6.71081 77.0179 6.68581 77.0283 6.62538C77.0241 6.65455 77.0199 6.68581 77.0137 6.71498C77.0012 6.78791 76.9866 6.85875 76.972 6.9296C76.9345 7.08796 76.8595 7.32758 76.8178 7.42343C76.8303 7.39634 76.7803 7.50261 76.7678 7.52761C76.7449 7.57554 76.7199 7.62346 76.6928 7.6693C76.6386 7.76515 76.5782 7.861 76.5115 7.94851C76.5032 7.95893 76.4844 7.98185 76.4449 8.02769C76.4053 8.07353 76.3636 8.11729 76.3219 8.15896C76.2365 8.24231 76.1636 8.3069 76.0844 8.36316C75.8531 8.53194 75.603 8.64654 75.3301 8.72989C74.7529 8.90283 74.9988 9.80923 75.5801 9.6342C76.6928 9.30082 77.5117 8.47777 77.8347 7.36092C78.1097 6.4066 78.0097 5.31059 77.2241 4.61256C76.4011 3.88119 75.3218 3.9187 74.3653 4.33751C73.3089 4.80009 72.5817 5.77941 72.4192 6.91918C72.2983 7.75682 72.4942 8.70489 73.1818 9.26123C73.8548 9.80506 74.7717 9.85716 75.5801 9.6342C76.1594 9.47376 75.9135 8.56736 75.3301 8.72989Z" fill="#4C85AA"/>
<path d="M9.28418 12.7473C9.83635 12.5848 10.1135 12.2326 10.2281 11.793C10.351 12.2035 10.8303 12.4806 11.1991 12.4035C10.7886 12.8556 10.8719 13.1703 11.0866 13.5537C10.8803 13.4641 10.2406 13.1869 9.728 13.8412C9.79676 13.5745 9.82385 13.4016 9.74884 13.1619C9.67174 12.9182 9.48421 12.8556 9.28418 12.7681" fill="#4C85AA"/>
<path d="M9.36534 13.037C9.65288 12.9495 9.92793 12.8078 10.1342 12.5869C10.3217 12.3869 10.4468 12.1389 10.5197 11.8743C10.3259 11.8743 10.1342 11.8743 9.94043 11.8743C10.1175 12.4286 10.7031 12.8015 11.2802 12.6953C11.1823 12.5286 11.0864 12.3619 10.9885 12.1931C10.7864 12.4202 10.6239 12.6807 10.6114 12.9932C10.601 13.2474 10.7093 13.4891 10.8302 13.7059C10.9677 13.5683 11.1031 13.4329 11.2406 13.2954C11.0073 13.1954 10.7718 13.1141 10.5134 13.1183C10.1175 13.1245 9.76332 13.3225 9.51744 13.6288C9.68414 13.7267 9.85083 13.8225 10.0196 13.9205C10.0946 13.6225 10.1342 13.3183 10.0196 13.0245C9.91126 12.7515 9.69456 12.6203 9.43826 12.5098C9.29032 12.4452 9.11738 12.4661 9.02778 12.6182C8.95277 12.7453 8.98611 12.9641 9.13613 13.0287C9.21531 13.0641 9.29866 13.0953 9.37367 13.1391C9.37992 13.1433 9.43618 13.1828 9.40493 13.1578C9.37367 13.1328 9.42993 13.1828 9.42993 13.1828C9.46952 13.2183 9.42368 13.1662 9.43826 13.1933C9.44243 13.2016 9.46952 13.2558 9.45285 13.212C9.47369 13.262 9.48619 13.3183 9.49452 13.3725C9.48827 13.3412 9.49452 13.3704 9.49452 13.385C9.49452 13.41 9.49661 13.435 9.49661 13.46C9.49661 13.485 9.49452 13.51 9.49244 13.5371C9.49661 13.4912 9.48827 13.56 9.48619 13.5683C9.47369 13.6329 9.4591 13.6975 9.44243 13.7621C9.40909 13.8913 9.46327 14.033 9.57995 14.1017C9.68622 14.1643 9.86125 14.158 9.94251 14.0538C9.99877 13.983 10.0613 13.9163 10.13 13.858C10.0988 13.885 10.1801 13.8225 10.1905 13.8184C10.2217 13.7996 10.2551 13.7829 10.2884 13.7663C10.2301 13.7954 10.3238 13.7538 10.3384 13.7496C10.3613 13.7434 10.3863 13.7371 10.4093 13.7309C10.4259 13.7267 10.4405 13.7246 10.4572 13.7225C10.4155 13.7267 10.4134 13.7288 10.4468 13.7246C10.478 13.7225 10.5072 13.7204 10.5364 13.7204C10.5655 13.7204 10.5947 13.7225 10.6239 13.7246C10.6572 13.7288 10.653 13.7267 10.6072 13.7204C10.6197 13.7225 10.6343 13.7246 10.6468 13.7267C10.6905 13.735 10.7343 13.7454 10.7781 13.7579C10.8218 13.7704 10.8635 13.785 10.9052 13.7996C10.9218 13.8059 10.9406 13.8142 10.9573 13.8205C10.8614 13.7892 10.9156 13.8017 10.9385 13.8121C11.0635 13.8663 11.199 13.8684 11.3011 13.7642C11.3969 13.6683 11.4136 13.5183 11.349 13.4016C11.3261 13.36 11.3031 13.3183 11.2823 13.2766C11.2781 13.2704 11.249 13.2037 11.2636 13.2391C11.2781 13.2745 11.2531 13.2099 11.249 13.2016C11.2344 13.162 11.2261 13.1224 11.2156 13.0807C11.201 13.0266 11.2115 13.1099 11.2136 13.0766C11.2156 13.0578 11.2115 13.0349 11.2115 13.0162C11.2115 12.9995 11.2136 12.9828 11.2136 12.9682C11.2156 13.0307 11.2136 12.9724 11.2177 12.9495C11.2219 12.9328 11.2261 12.9161 11.2323 12.8995C11.2323 12.8995 11.2594 12.8307 11.2469 12.8578C11.2323 12.8891 11.2677 12.8203 11.2719 12.814C11.2844 12.7911 11.299 12.7682 11.3136 12.7453C11.3427 12.6994 11.3719 12.6661 11.4136 12.6182C11.6199 12.3869 11.4178 12.0618 11.1219 12.116C11.0531 12.1285 11.1552 12.1223 11.1177 12.116C11.0989 12.1139 11.076 12.1181 11.0552 12.1181C11.0427 12.1181 10.9656 12.1056 11.0344 12.1202C11.0177 12.116 11.001 12.1139 10.9843 12.1098C10.9427 12.0993 10.901 12.0868 10.8593 12.0723C10.9177 12.0952 10.8406 12.0618 10.8343 12.0577C10.8135 12.0472 10.7947 12.0368 10.776 12.0243C10.7572 12.0118 10.7385 11.9993 10.7197 11.9868C10.7551 12.0097 10.7218 11.9889 10.7051 11.9743C10.6697 11.9451 10.6385 11.9118 10.6093 11.8785C10.578 11.843 10.6426 11.9326 10.5968 11.8639C10.5843 11.8451 10.5718 11.8264 10.5614 11.8055C10.5509 11.7868 10.5405 11.766 10.5301 11.7451C10.553 11.793 10.5259 11.7305 10.5218 11.7139C10.4343 11.4388 10.0238 11.4201 9.94251 11.7139C9.92793 11.7639 9.91334 11.8139 9.89667 11.8618C9.8925 11.8701 9.85917 11.9452 9.88834 11.8847C9.87792 11.9076 9.8675 11.9306 9.855 11.9535C9.83208 11.9972 9.80499 12.041 9.7779 12.0827C9.77374 12.0889 9.72164 12.1535 9.76332 12.1035C9.74665 12.1223 9.72998 12.1431 9.71331 12.1619C9.57787 12.3056 9.41118 12.3973 9.20906 12.4577C9.05487 12.5057 8.95485 12.6682 8.99861 12.8265C9.0382 12.9807 9.20906 13.0828 9.36534 13.037Z" fill="#4C85AA"/>
<path d="M16.288 13.291C16.7902 13.2514 17.0881 12.9992 17.2631 12.645C17.2944 13.018 17.7486 13.2305 18.0758 13.2305C17.5799 13.4868 17.6049 13.841 17.7924 14.1807C17.6236 14.0223 17.0694 13.791 16.4693 14.3057C16.5755 14.089 16.6297 13.9473 16.6089 13.7285C16.588 13.5077 16.438 13.4201 16.2817 13.3097" fill="#4C85AA"/>
<path d="M16.2877 13.6368C16.5648 13.6118 16.8419 13.5472 17.0732 13.3847C17.2816 13.2388 17.4483 13.0472 17.565 12.82C17.3503 12.7617 17.1336 12.7033 16.919 12.645C16.9524 12.9555 17.1086 13.193 17.367 13.3639C17.5733 13.5014 17.8317 13.5722 18.0775 13.5764C18.0192 13.3618 17.9609 13.1451 17.9025 12.9305C17.6483 13.0659 17.4024 13.2868 17.3462 13.5827C17.292 13.8577 17.3649 14.114 17.4962 14.3557C17.6775 14.2161 17.8588 14.0765 18.04 13.9348C17.8358 13.7493 17.567 13.6577 17.2941 13.6431C16.8919 13.6202 16.5252 13.8077 16.2252 14.0598C16.4064 14.1994 16.5877 14.339 16.769 14.4807C16.9065 14.2015 16.9982 13.9223 16.9399 13.6077C16.8878 13.3264 16.6773 13.1638 16.4585 13.0096C16.3106 12.9055 16.0668 12.9784 15.9835 13.1347C15.8897 13.3118 15.9501 13.4972 16.1085 13.6097C16.1314 13.6264 16.1793 13.6743 16.2085 13.6806C16.1939 13.6764 16.1585 13.6368 16.1939 13.6702C16.2085 13.6827 16.2231 13.6952 16.2356 13.7077C16.2418 13.7118 16.2752 13.7452 16.2731 13.7493C16.2773 13.7368 16.221 13.6973 16.2585 13.7348C16.2627 13.741 16.2668 13.7493 16.2689 13.7556C16.2523 13.7118 16.2481 13.7035 16.2564 13.7285C16.2606 13.7493 16.2877 13.8014 16.2627 13.7285C16.2752 13.766 16.2689 13.8202 16.2668 13.8598C16.2668 13.8681 16.2668 13.8785 16.2648 13.8869C16.2627 13.914 16.2627 13.9056 16.2689 13.8619C16.2689 13.8619 16.2585 13.9098 16.2585 13.914C16.2481 13.9577 16.2314 14.0015 16.2147 14.0431C16.2272 14.0119 16.2293 14.0119 16.2147 14.0431C16.2002 14.0723 16.1877 14.1015 16.1731 14.1307C16.096 14.2869 16.1189 14.4682 16.2627 14.5786C16.4064 14.6891 16.5836 14.6641 16.719 14.5516C16.7523 14.5245 16.7544 14.5224 16.7294 14.5411C16.7461 14.5286 16.7648 14.5161 16.7836 14.5036C16.8169 14.4807 16.8524 14.4578 16.8878 14.437C16.9211 14.4182 16.9565 14.4015 16.9899 14.3849C16.9169 14.4203 16.9899 14.387 17.0086 14.3807C17.0399 14.3703 17.0732 14.3599 17.1066 14.3515C17.1232 14.3474 17.1378 14.3453 17.1545 14.3411C17.1941 14.3349 17.1857 14.3349 17.1316 14.3432C17.1316 14.3432 17.2816 14.3369 17.2962 14.339C17.3337 14.3411 17.3858 14.3661 17.2962 14.3369C17.3191 14.3453 17.3483 14.3453 17.3712 14.3515C17.3941 14.3578 17.4191 14.364 17.442 14.3724C17.4545 14.3765 17.5275 14.4057 17.4649 14.3786C17.4024 14.3515 17.4691 14.3828 17.4816 14.387C17.4983 14.3953 17.517 14.4057 17.5337 14.4161C17.5483 14.4245 17.5629 14.437 17.5775 14.4453C17.492 14.4015 17.5212 14.3995 17.5525 14.4265C17.6817 14.5432 17.8671 14.562 18.0088 14.4536C18.1463 14.3474 18.1817 14.1598 18.0984 14.0056C18.088 13.9869 18.0775 13.966 18.0671 13.9473C18.063 13.9369 18.0567 13.9285 18.0525 13.9181C18.0421 13.8931 18.0463 13.9056 18.0671 13.9515C18.0671 13.9202 18.04 13.8765 18.0317 13.8431C18.0275 13.8244 18.0255 13.8035 18.0192 13.7848C18.0067 13.7452 18.0234 13.8681 18.0234 13.8098C18.0234 13.791 18.0234 13.7702 18.0234 13.7514C18.0213 13.6868 18.0025 13.8306 18.0192 13.7681C18.0234 13.7493 18.0296 13.7306 18.0338 13.7118C18.0484 13.6556 18.0025 13.7639 18.0255 13.7306C18.0359 13.716 18.0421 13.6993 18.0505 13.6848C18.0942 13.6139 18.0463 13.6827 18.0484 13.6848C18.038 13.6702 18.1942 13.566 18.1067 13.6222C18.1567 13.5889 18.2047 13.5576 18.2588 13.5306C18.388 13.4618 18.463 13.2805 18.4193 13.1388C18.3713 12.9909 18.2422 12.8867 18.0838 12.8846C18.063 12.8846 18.0442 12.8846 18.0234 12.8825C18.0088 12.8825 17.9463 12.8805 18.0067 12.8825C18.065 12.8846 18.0046 12.8805 17.99 12.8784C17.9692 12.8742 17.9463 12.868 17.9254 12.8617C17.9046 12.8555 17.8817 12.8492 17.8608 12.8409C17.8504 12.8367 17.7858 12.8159 17.84 12.8346C17.8921 12.8534 17.8317 12.8304 17.8192 12.8242C17.7983 12.8138 17.7796 12.8034 17.7608 12.7909C17.7442 12.7804 17.7296 12.77 17.7129 12.7596C17.6504 12.7179 17.7233 12.7638 17.7212 12.7679C17.7171 12.7721 17.6337 12.6763 17.6296 12.6742C17.6483 12.6763 17.6712 12.7409 17.64 12.6825C17.6358 12.6763 17.6212 12.6388 17.615 12.6367C17.6337 12.6846 17.6379 12.695 17.6296 12.67C17.6254 12.6596 17.6233 12.6492 17.6191 12.6388C17.6129 12.6137 17.6066 12.545 17.6171 12.645C17.6004 12.4971 17.5212 12.347 17.3628 12.3095C17.2191 12.2762 17.042 12.3283 16.9711 12.47C16.9503 12.5096 16.9294 12.5492 16.9044 12.5887C16.8919 12.6075 16.8794 12.6262 16.8669 12.645C16.8253 12.7096 16.9169 12.5867 16.8669 12.645C16.8378 12.6783 16.8086 12.7117 16.7773 12.7429C16.7607 12.7575 16.744 12.7721 16.7273 12.7867C16.6711 12.8367 16.7919 12.745 16.7273 12.7867C16.6898 12.8117 16.6502 12.8367 16.6106 12.8575C16.594 12.8659 16.5648 12.8888 16.5481 12.8888C16.5606 12.8825 16.5731 12.8784 16.5877 12.8721C16.5731 12.8784 16.5565 12.8846 16.5419 12.8888C16.4981 12.9034 16.4523 12.9159 16.4064 12.9263C16.3794 12.9325 16.3544 12.9367 16.3273 12.9409C16.3023 12.9451 16.3085 12.9451 16.3502 12.9388C16.3314 12.9409 16.3127 12.943 16.2939 12.9451C16.1126 12.9617 15.9376 13.093 15.948 13.2909C15.948 13.4639 16.0939 13.6556 16.2877 13.6368Z" fill="#4C85AA"/>
</svg>
