<svg width="170" height="50" viewBox="0 0 170 50" fill="none" xmlns="http://www.w3.org/2000/svg">
<g id="Group 12">
<path id="Vector" d="M72.1014 44.7383C69.5551 44.4651 67.2707 43.7585 65.6716 41.6075C64.7244 40.3325 64.3437 38.8629 64.3467 37.296C64.3528 35.1669 65.0564 33.3173 66.6646 31.9105C68.2058 30.5602 70.085 30.0798 72.1014 29.8756C72.1014 27.8973 72.0831 26.0006 72.1075 24.1039C72.1257 22.8259 73.0974 22.113 74.2182 22.5307C74.9401 22.8007 75.1777 23.4037 75.1777 24.1416C75.1777 25.7306 75.1777 27.3195 75.1777 28.9085C75.1777 29.1911 75.1777 29.4768 75.1777 29.8411C75.8203 29.9604 76.4356 30.0641 77.0448 30.1865C81.9729 31.1788 84.4949 36.445 82.1191 40.8444C80.8581 43.1776 78.7443 44.1824 76.2863 44.5875C76.0366 44.6283 75.7838 44.6472 75.534 44.6849C75.4366 44.7006 75.3452 44.7383 75.1746 44.7916C75.1746 45.8813 75.1807 46.9678 75.1716 48.0575C75.1624 49.2978 74.6386 49.907 73.603 49.8913C72.6314 49.8788 72.1075 49.2445 72.0983 48.0606C72.0953 46.9929 72.1014 45.9252 72.1014 44.7383ZM75.1777 32.7238C75.1777 35.8075 75.1777 38.8378 75.1777 41.865C77.7727 42.0754 79.8073 40.0845 79.853 37.3462C79.8957 34.6205 77.8489 32.5699 75.1777 32.7238ZM72.1593 32.7144C69.4058 32.6013 67.3712 34.6582 67.4321 37.4059C67.49 40.1064 69.5764 42.0942 72.1593 41.8618C72.1593 38.8347 72.1593 35.8012 72.1593 32.7144Z" fill="#F3F2ED"/>
<path id="Vector_2" d="M112.654 19.3218C112.966 19.3218 113.145 19.3186 113.328 19.3218C114.384 19.3507 114.992 19.9301 115.017 21.0051C115.049 22.3118 115.042 23.6217 115.02 24.9316C115.004 25.968 114.33 26.6922 113.451 26.6761C112.565 26.66 111.945 25.939 111.932 24.8962C111.923 24.0433 111.926 23.1872 111.919 22.3343C111.919 22.2828 111.897 22.2313 111.872 22.1219C108.488 22.1219 105.091 22.1219 101.562 22.1219C101.562 22.7591 101.565 23.4125 101.562 24.0659C101.558 24.465 101.562 24.8673 101.527 25.2664C101.451 26.0967 100.865 26.6568 100.093 26.6793C99.3274 26.7018 98.5554 26.0742 98.5302 25.2825C98.4829 23.7633 98.4892 22.2377 98.5302 20.7186C98.5491 20.0073 98.9903 19.4795 99.6741 19.3797C100.21 19.3025 100.509 19.0096 100.632 18.5847C101.013 17.2909 101.454 15.997 101.631 14.6678C101.867 12.9008 101.899 11.1049 101.978 9.32185C102.034 8.0795 102.51 7.51304 103.755 7.49051C105.721 7.45511 107.691 7.47764 109.657 7.47442C110.051 7.47442 110.445 7.46154 110.839 7.48086C112.096 7.53879 112.647 8.11812 112.651 9.39265C112.657 12.3827 112.654 15.3759 112.654 18.3659C112.654 18.6459 112.654 18.9323 112.654 19.3218ZM104.833 10.3518C104.82 13.4544 104.606 16.4315 103.484 19.2671C105.523 19.2671 107.476 19.2671 109.443 19.2671C109.443 16.2674 109.443 13.3225 109.443 10.3518C107.895 10.3518 106.408 10.3518 104.833 10.3518Z" fill="#F3F2ED"/>
<path id="Vector_3" d="M105.27 31.7438C106.59 30.4093 108.15 29.8799 109.92 29.9081C113.229 29.9614 116.088 32.7681 116.334 36.1983C116.517 38.7138 116.091 41.0131 114.291 42.8519C111.912 45.2797 108.033 45.383 105.519 43.1088C105.468 43.0618 105.402 43.0273 105.237 42.9177C105.237 44.4652 105.237 45.9281 105.237 47.391C105.237 47.7544 105.258 48.1209 105.228 48.4812C105.15 49.3896 104.55 49.919 103.665 49.8908C102.834 49.8658 102.279 49.3082 102.246 48.4123C102.219 47.6855 102.24 46.9587 102.24 46.2288C102.24 41.3702 102.237 36.5116 102.243 31.6529C102.243 30.4218 102.933 29.7358 104.001 29.9081C104.961 30.0616 105.162 30.8385 105.27 31.7438ZM105.228 37.2665C105.234 39.4155 106.161 40.9943 107.781 41.602C109.737 42.3382 111.816 41.5237 112.773 39.6473C113.829 37.5735 113.328 34.8952 111.633 33.6014C110.325 32.6053 108.885 32.4925 107.469 33.1942C105.867 33.9867 105.249 35.4778 105.228 37.2665Z" fill="#F3F2ED"/>
<path id="Vector_4" d="M158.283 31.6882C160.18 29.9869 162.37 29.5358 164.775 30.1436C167.942 30.9425 169.868 33.5524 169.995 37.1085C170.118 40.5769 168.265 43.3811 165.105 44.3993C163.23 45.004 160.621 44.9852 158.232 42.9268C158.232 43.5659 158.232 44.0923 158.232 44.6187C158.232 45.7873 158.241 46.9591 158.229 48.1278C158.216 49.2714 157.613 49.9043 156.588 49.8917C155.586 49.8761 155.062 49.2808 155.062 48.1309C155.059 42.6699 155.059 37.2088 155.062 31.7509C155.062 30.5979 155.509 29.9869 156.411 29.8961C157.378 29.7958 157.889 30.2188 158.184 31.3561C158.21 31.4501 158.241 31.5472 158.283 31.6882ZM158.213 37.66C158.197 39.0104 158.759 40.4641 160.348 41.3477C162.259 42.4067 164.661 41.8364 165.898 40.0913C167.275 38.1487 166.971 35.26 165.206 33.7843C163.823 32.625 162.227 32.4527 160.628 33.1639C158.879 33.941 158.213 35.4511 158.213 37.66Z" fill="#F3F2ED"/>
<path id="Vector_5" d="M77.4371 13.4966C76.3998 14.7955 75.3656 16.0945 74.3253 17.3904C73.5866 18.3161 72.6941 18.3221 71.9584 17.3994C71.0417 16.2527 70.1402 15.0941 69.2296 13.9415C69.112 13.7952 68.9793 13.6608 68.7562 13.41C68.7321 13.7832 68.7049 14.0161 68.7049 14.252C68.7019 16.1602 68.708 18.0683 68.7019 19.9764C68.6989 21.0126 68.1381 21.6098 67.1853 21.6068C66.2716 21.6038 65.6897 21.0185 65.6867 20.0272C65.6746 16.3841 65.6867 12.7411 65.6807 9.10102C65.6807 8.34255 66.0063 7.7961 66.733 7.5602C67.4295 7.33325 68.0175 7.57214 68.4547 8.14249C69.8176 9.91921 71.1744 11.6989 72.5343 13.4786C72.7273 13.7325 72.9263 13.9833 73.1675 14.2879C74.6178 12.3798 76.041 10.5314 77.4431 8.66207C77.9828 7.94242 78.5165 7.21082 79.5779 7.5602C80.6332 7.90957 80.6242 8.80241 80.6211 9.70422C80.603 13.1233 80.6181 16.5424 80.6121 19.9615C80.6091 21.0484 79.9548 21.6844 78.9447 21.6038C78.1125 21.5381 77.6059 20.9319 77.5999 19.9406C77.5878 18.0563 77.5969 16.1751 77.5969 14.2909C77.5969 14.046 77.5969 13.8041 77.5969 13.5593C77.5396 13.5413 77.4883 13.5175 77.4371 13.4966Z" fill="#F3F2ED"/>
<path id="Vector_6" d="M127.246 36.9432C128.352 35.518 129.414 34.1517 130.472 32.7823C131.012 32.0852 131.546 31.382 132.093 30.688C132.662 29.9661 133.297 29.7244 134.009 29.9816C134.817 30.2759 135.055 30.8801 135.049 31.6918C135.023 35.391 135.039 39.0933 135.036 42.7925C135.036 43.9233 134.508 44.5337 133.53 44.5554C132.538 44.5771 131.893 43.9233 131.88 42.7956C131.855 40.8438 131.874 38.8888 131.874 36.937C131.874 36.7077 131.874 36.4784 131.874 36.0106C131.336 36.6519 130.93 37.126 130.539 37.6093C129.833 38.4768 129.15 39.3566 128.435 40.2148C127.669 41.135 126.766 41.135 125.994 40.2024C125.081 39.1026 124.201 37.978 123.305 36.8657C123.101 36.6117 122.892 36.3638 122.567 35.9734C122.542 36.4103 122.52 36.655 122.52 36.8998C122.517 38.9043 122.529 40.9088 122.507 42.9133C122.494 43.976 121.913 44.5523 120.946 44.5523C119.999 44.5523 119.332 43.9481 119.326 42.9288C119.3 39.1243 119.303 35.3228 119.326 31.5183C119.329 30.7654 119.723 30.1706 120.505 29.9568C121.283 29.7461 121.89 30.0652 122.364 30.6756C123.823 32.5655 125.285 34.4522 126.75 36.339C126.884 36.5249 127.036 36.6922 127.246 36.9432Z" fill="#F3F2ED"/>
<path id="Vector_7" d="M157.926 16.136C159.85 13.667 161.77 11.198 163.693 8.72904C163.788 8.60962 163.873 8.48423 163.97 8.37078C164.65 7.55574 165.302 7.30795 166.051 7.57067C166.801 7.83339 167.065 8.30809 167.065 9.37988C167.065 12.8699 167.065 16.3599 167.065 19.853C167.065 20.9845 166.53 21.5875 165.529 21.5995C164.48 21.6144 163.92 21.0054 163.92 19.841C163.917 17.6138 163.92 15.3867 163.92 12.9356C163.634 13.267 163.464 13.4551 163.309 13.6491C161.521 15.9061 159.733 18.1632 157.945 20.4202C157.835 20.5575 157.721 20.6949 157.605 20.8292C157.086 21.4233 156.456 21.7786 155.612 21.5308C154.904 21.3218 154.536 20.7486 154.532 19.8142C154.523 16.2972 154.523 12.7833 154.532 9.26643C154.536 8.25435 155.03 7.62441 155.845 7.49603C156.912 7.32885 157.706 8.00357 157.718 9.15596C157.74 11.21 157.725 13.267 157.725 15.321C157.725 15.5837 157.725 15.8435 157.725 16.1062C157.797 16.1181 157.86 16.1271 157.926 16.136Z" fill="#F3F2ED"/>
<path id="Vector_8" d="M141.306 38.6609C141.593 40.7663 143.235 42.2511 145.263 42.3908C146.724 42.4915 148.007 42.0919 149.245 41.3089C149.615 41.0782 150.344 41.0522 150.688 41.2764C151.035 41.5038 151.232 42.1536 151.264 42.6312C151.283 42.9464 150.961 43.3817 150.672 43.6059C148.096 45.5846 145.254 45.8543 142.363 44.5741C139.399 43.2615 137.929 40.7695 137.986 37.5172C138.04 34.3267 139.511 31.9126 142.433 30.5578C146.607 28.6246 151.286 31.0159 152.04 35.4671C152.142 36.0714 152.139 36.705 152.098 37.319C152.04 38.1638 151.394 38.6544 150.417 38.6576C147.689 38.6641 144.961 38.6609 142.233 38.6609C141.943 38.6609 141.653 38.6609 141.306 38.6609ZM141.405 36.0682C143.936 36.0682 146.409 36.0682 148.883 36.0682C148.902 34.2552 147.581 32.8711 145.747 32.7216C143.611 32.5462 141.73 33.9693 141.405 36.0682Z" fill="#F3F2ED"/>
<path id="Vector_9" d="M88.4876 38.6911C88.7636 40.7968 90.4135 42.2973 92.4727 42.4275C93.9004 42.5186 95.1537 42.128 96.3721 41.3697C96.7592 41.1288 97.4445 41.1516 97.8982 41.3209C98.4757 41.5389 98.5836 42.1964 98.4249 42.779C98.3393 43.0914 98.1172 43.4104 97.8729 43.6252C94.6588 46.434 89.1063 45.7277 86.5838 42.2094C84.0392 38.6585 84.9942 33.4152 88.6874 31.0815C91.0353 29.5974 93.5483 29.4705 95.9882 30.8114C98.2536 32.058 99.2721 34.1507 99.2975 36.7545C99.3102 38.1215 98.7613 38.6845 97.4414 38.6878C94.4557 38.6943 91.4764 38.6911 88.4876 38.6911ZM96.004 36.1036C96.1468 34.3948 94.792 32.9237 92.9581 32.7447C90.8133 32.5397 88.827 34.0531 88.6145 36.1036C91.0829 36.1036 93.5451 36.1036 96.004 36.1036Z" fill="#F3F2ED"/>
<path id="Vector_10" d="M90.6284 7.47022C94.6087 7.47321 97.6971 10.5633 97.6971 14.5419C97.6941 18.5415 94.5823 21.6137 90.54 21.6107C86.6038 21.6047 83.5449 18.4697 83.5567 14.4552C83.5685 10.5185 86.6568 7.46723 90.6284 7.47022ZM94.6588 14.521C94.6411 12.1009 92.8806 10.2014 90.6431 10.1834C88.3496 10.1655 86.5214 12.1338 86.539 14.5988C86.5567 17.0338 88.3025 18.8645 90.5989 18.8586C92.9247 18.8496 94.6765 16.9799 94.6588 14.521Z" fill="#F3F2ED"/>
<path id="Vector_11" d="M120.984 12.9146C122.984 12.9146 124.848 12.9146 126.821 12.9146C126.821 11.5411 126.797 10.2095 126.83 8.88086C126.851 7.97021 127.513 7.42681 128.409 7.49847C129.119 7.5552 129.696 8.08367 129.699 8.79726C129.717 12.6369 129.717 16.4766 129.699 20.3132C129.696 21.0925 129.068 21.609 128.259 21.6061C127.453 21.6061 126.86 21.1015 126.833 20.2983C126.794 19.0353 126.812 17.7724 126.806 16.5094C126.806 16.2168 126.806 15.9212 126.806 15.5719C124.864 15.5719 122.981 15.5719 120.99 15.5719C120.99 16.7542 120.99 17.9336 120.99 19.113C120.99 19.4593 120.996 19.8057 120.984 20.152C120.951 20.997 120.467 21.5344 119.691 21.6031C118.855 21.6747 118.223 21.2358 118.025 20.4327C117.983 20.2684 117.977 20.0893 117.977 19.9191C117.974 16.3512 117.974 12.7862 117.974 9.21825C117.974 8.46286 118.229 7.85078 118.993 7.57013C119.971 7.20885 120.954 7.86571 120.978 8.92266C121.008 10.2334 120.984 11.5411 120.984 12.9146Z" fill="#F3F2ED"/>
<path id="Vector_12" d="M137.261 12.1769C138.549 12.1769 139.699 12.0974 140.834 12.1921C143.403 12.4061 145.545 14.0564 145.452 17.0882C145.389 19.1756 144.032 20.8626 141.96 21.3607C141.361 21.5044 140.735 21.5747 140.121 21.59C138.702 21.6236 137.282 21.6083 135.862 21.5991C134.904 21.593 134.275 21.0429 134.269 20.0771C134.242 16.3791 134.242 12.6811 134.269 8.98619C134.275 8.05405 134.943 7.46115 135.8 7.47032C136.689 7.47949 137.237 8.04794 137.255 9.02898C137.276 10.0253 137.261 11.0338 137.261 12.1769ZM137.312 14.8419C137.312 16.2538 137.312 17.5863 137.312 19.0441C138.447 18.9891 139.54 19.0166 140.609 18.8638C141.801 18.6957 142.379 17.9653 142.379 16.8926C142.382 15.8351 141.705 14.9886 140.543 14.8633C139.495 14.7502 138.423 14.8419 137.312 14.8419Z" fill="#F3F2ED"/>
<path id="Vector_13" d="M147.065 14.5456C147.065 12.7175 147.035 10.8864 147.076 9.05823C147.102 7.84146 148.558 7.07204 149.742 7.68639C150.232 7.93988 150.722 8.53335 150.733 8.98069C150.811 12.6877 150.793 16.3946 150.771 20.1046C150.767 21.0231 149.991 21.6076 148.918 21.6106C147.841 21.6166 147.091 21.044 147.076 20.1076C147.043 18.2526 147.065 16.4006 147.065 14.5456Z" fill="#F3F2ED"/>
<path id="Vector_14" d="M155.859 1.48881C155.916 0.857301 155.929 0.247019 156.834 0.0533211C157.856 -0.166911 158.497 0.305394 158.528 1.27919C158.566 2.43607 158.998 3.00921 160.033 3.26924C161.413 3.61949 162.667 2.91103 162.79 1.7117C162.819 1.44901 162.803 1.18102 162.848 0.923636C162.946 0.377036 163.33 0.0612813 164.006 0.0214803C164.682 -0.0183207 165.215 0.156804 165.377 0.761779C165.736 2.10705 164.999 4.07057 162.978 4.89047C160.382 5.94387 157.246 5.06294 156.269 2.94818C156.059 2.48383 155.993 1.97438 155.859 1.48881Z" fill="#F3F2ED"/>
<g id="Group">
<g id="Group_2">
<path id="Vector_15" d="M15.5205 22.7885C15.8543 23.6542 16.7118 24.2348 17.5828 24.4601C18.4728 24.6907 19.428 24.6174 20.3234 24.4601C21.2623 24.2945 22.1713 23.9689 23.0206 23.5402C24.6189 22.7289 26.2578 21.4047 26.9878 19.7277C27.4816 18.5908 27.4816 17.2883 26.6784 16.2952C26.0733 15.549 25.0938 15.2179 24.1685 15.1148C23.0044 14.9845 21.7941 15.2152 20.6925 15.5869C19.9517 15.8393 20.2692 17.017 21.0181 16.7646C21.8783 16.4715 22.7629 16.287 23.6746 16.306C24.3313 16.3169 25.072 16.4525 25.5795 16.9057C25.6175 16.9383 25.8237 17.1716 25.7504 17.0766C25.802 17.1445 25.8508 17.2205 25.8942 17.2937C26.0055 17.4891 26.0163 17.5081 26.0787 17.7659C26.1656 18.1268 26.1195 18.5826 25.9621 19.0304C25.4845 20.3952 24.1549 21.4779 22.9528 22.1889C21.6178 22.9785 20.0141 23.4832 18.4511 23.3747C18.1581 23.353 17.8162 23.2797 17.5665 23.1766C17.3169 23.0708 17.1432 22.9514 17.0075 22.8265C16.937 22.7614 16.8719 22.6882 16.8067 22.6176C16.7091 22.5091 16.8773 22.7261 16.804 22.6122C16.785 22.5823 16.766 22.5552 16.747 22.5281C16.6982 22.4494 16.5951 22.197 16.6982 22.4656C16.5788 22.159 16.2885 21.9447 15.9466 22.0396C15.6535 22.1183 15.4039 22.4792 15.5205 22.7885Z" fill="#F3F2ED"/>
</g>
</g>
<g id="Group_3">
<g id="Group_4">
<path id="Vector_16" d="M24.3665 15.7686C24.5564 14.8569 24.418 13.899 23.878 13.1257C23.3164 12.3198 22.4833 11.8123 21.5499 11.5383C20.5432 11.2425 19.474 11.2506 18.4429 11.3863C17.4091 11.522 16.4078 11.7825 15.4581 12.2221C14.7092 12.5694 14.0009 13.0497 13.4447 13.6629C12.9182 14.2436 13.7784 15.1119 14.3076 14.5258C15.5395 13.1637 17.5529 12.602 19.3492 12.5233C20.3532 12.4799 21.4603 12.6101 22.2988 13.2179C22.9989 13.7281 23.3679 14.5882 23.1888 15.443C23.026 16.2109 24.2037 16.5365 24.3665 15.7686Z" fill="#F3F2ED"/>
</g>
</g>
<g id="Group_5">
<g id="Group_6">
<path id="Vector_17" d="M35.6078 23.1782C36.8967 21.6777 38.2698 20.0794 40.058 19.1677C40.56 18.9126 41.081 18.7064 41.6264 18.568C42.0877 18.4513 42.6466 18.3292 43.1106 18.492C44.2015 18.8746 43.5747 20.4349 43.2979 21.1458C43.1324 21.5664 43.6343 22.0494 44.0495 21.8974C44.9612 21.5637 46.0439 21.2733 47.0262 21.3927C47.2813 21.4226 47.6476 21.4986 47.748 21.7699C47.8186 21.9626 47.7426 22.2095 47.6964 22.3994C47.6286 22.6871 47.5526 22.972 47.4739 23.2569C47.2677 24.0167 48.4454 24.3396 48.6516 23.5825C48.8334 22.9177 49.1129 22.1607 48.9311 21.4687C48.771 20.8609 48.25 20.462 47.6693 20.2856C47.0941 20.112 46.4672 20.1445 45.8784 20.2151C45.1403 20.3019 44.4213 20.4647 43.7239 20.7225C43.9735 20.9721 44.2259 21.2245 44.4755 21.4741C44.8663 20.4729 45.1756 19.3929 44.679 18.3699C44.2096 17.4039 43.1432 17.1163 42.1474 17.2384C40.1312 17.4853 38.381 18.5924 36.9429 19.9709C36.1668 20.7116 35.445 21.5067 34.7449 22.318C34.2348 22.9069 35.095 23.7752 35.6078 23.1782Z" fill="#F3F2ED"/>
</g>
</g>
<g id="Group_7">
<g id="Group_8">
<path id="Vector_18" d="M48.5051 24.5651C46.8933 24.5868 45.2815 24.6085 43.6669 24.6275C40.3293 24.6682 36.9918 24.7062 33.6542 24.7414C31.8307 24.7604 30.0072 24.7767 28.1838 24.7876C28.3601 25.0942 28.5365 25.4008 28.7102 25.7074C29.4998 24.4022 30.6069 23.2734 32.0044 22.6303C33.3204 22.0225 34.8915 21.6345 36.3459 21.8217C36.6743 21.8651 36.9565 21.5097 36.9565 21.2112C36.9565 20.8449 36.6743 20.6441 36.3459 20.6006C34.6799 20.3836 32.8917 20.8828 31.3884 21.5748C29.8146 22.2993 28.5446 23.6208 27.6573 25.0888C27.4186 25.4849 27.7252 26.0114 28.1838 26.0086C31.5376 25.9869 34.8942 25.9517 38.2481 25.9137C41.1 25.8811 43.9546 25.8458 46.8065 25.8106C47.3709 25.8024 47.938 25.797 48.5024 25.7888C49.2893 25.7753 49.292 24.5542 48.5051 24.5651Z" fill="#F3F2ED"/>
</g>
</g>
<g id="Group_9">
<g id="Group_10">
<path id="Vector_19" d="M41.3297 18.3051C41.9049 16.1451 42.4015 13.9635 42.8655 11.7764C43.069 10.8158 43.3159 9.82268 43.069 8.84311C42.8384 7.9368 42.1736 7.14989 41.4301 6.6099C40.4722 5.91254 39.2918 5.75787 38.144 5.93967C37.8727 5.98309 37.7099 6.28157 37.6963 6.5285C37.6013 8.13489 37.9487 9.83082 39.2973 10.8457C40.19 11.5186 41.346 11.7384 42.4422 11.7411C42.8275 11.7411 43.2101 11.7086 43.5954 11.6706C43.9238 11.638 44.206 11.4128 44.206 11.06C44.206 10.7534 43.9265 10.4169 43.5954 10.4495C43.3024 10.4766 43.0066 10.5065 42.7108 10.5146C42.5046 10.52 42.2957 10.52 42.0894 10.5092C41.9809 10.5038 41.8724 10.4956 41.7638 10.4848C41.7068 10.4793 41.6526 10.4739 41.5956 10.4658C41.734 10.4848 41.563 10.4604 41.5169 10.4522C41.2781 10.4115 41.0393 10.3518 40.8087 10.2758C40.7517 10.2568 40.6947 10.2351 40.6404 10.2134C40.5428 10.1754 40.6974 10.2433 40.5726 10.1836C40.4532 10.1266 40.3392 10.0669 40.2253 9.99906C40.171 9.9665 40.1195 9.93393 40.0706 9.89866C40.0408 9.87966 39.9132 9.77926 40.0001 9.84981C39.8942 9.76298 39.7911 9.67072 39.6989 9.57033C39.5198 9.38038 39.4194 9.23928 39.2728 8.94351C39.1914 8.7807 39.1724 8.72914 39.11 8.53377C39.0503 8.34654 39.0069 8.15388 38.9716 7.95851C38.8902 7.49179 38.8957 6.99793 38.9255 6.52307C38.7763 6.71844 38.627 6.91653 38.4778 7.1119C39.9187 6.88668 41.6417 7.75229 41.9294 9.28812C42.084 10.1103 41.7964 10.9868 41.6254 11.7872C41.4165 12.7641 41.1994 13.7383 40.9715 14.7097C40.7164 15.8032 40.4505 16.894 40.1602 17.9767C39.9485 18.7419 41.1262 19.0648 41.3297 18.3051Z" fill="#F3F2ED"/>
</g>
</g>
<g id="Group_11">
<g id="Group_12">
<path id="Vector_20" d="M41.4283 16.0042C41.6643 16.0394 41.8977 16.1154 42.131 16.1643C42.5923 16.2647 43.0645 16.3352 43.5366 16.365C44.7034 16.4329 45.8811 16.1697 46.7874 15.4045C47.4169 14.8753 47.8158 14.1264 48.0655 13.3558C48.1414 13.1224 48.0193 12.7724 47.786 12.6666C47.0805 12.3491 46.3288 12.2487 45.5582 12.2948C44.9884 12.3301 44.4158 12.4034 43.8813 12.615C42.671 13.0899 41.6942 13.9745 41.0646 15.1114C40.682 15.7979 41.7376 16.4166 42.1202 15.7274C42.5923 14.8781 43.3657 14.1291 44.2069 13.7927C44.5922 13.638 44.9938 13.562 45.4062 13.5294C45.9896 13.4806 46.6273 13.4779 47.17 13.7248C47.0777 13.4942 46.9828 13.2662 46.8905 13.0356C46.7033 13.6109 46.4374 14.083 46.0168 14.4683C45.9734 14.509 45.9272 14.547 45.8811 14.585C45.9544 14.5253 45.816 14.6284 45.7943 14.6447C45.6857 14.718 45.5718 14.7858 45.4524 14.8455C45.4035 14.8699 45.352 14.8943 45.3031 14.916C45.238 14.9459 45.3113 14.9106 45.3221 14.9079C45.2868 14.9215 45.2543 14.935 45.219 14.9459C45.0996 14.9866 44.9775 15.0246 44.8554 15.0544C44.7496 15.0789 44.6465 15.1006 44.5406 15.1196C44.4321 15.1386 44.6085 15.1168 44.4647 15.1304C44.4022 15.1358 44.3425 15.144 44.2801 15.1467C44.0495 15.163 43.8188 15.163 43.5882 15.1521C43.4824 15.1467 43.3765 15.1386 43.2707 15.1277C43.2246 15.1223 43.1757 15.1168 43.1296 15.1114C42.9559 15.0924 43.1567 15.1168 43.0645 15.1033C42.88 15.0734 42.6955 15.0436 42.5137 15.0029C42.2613 14.9486 42.0117 14.8672 41.7566 14.8319C41.431 14.7858 41.0999 14.9133 41.0049 15.2579C40.9235 15.5401 41.0999 15.958 41.4283 16.0042Z" fill="#F3F2ED"/>
</g>
</g>
<g id="Group_13">
<g id="Group_14">
<path id="Vector_21" d="M11.1064 44.0535C11.6138 43.3507 11.8499 42.5123 11.9313 41.6575C12.0127 40.8082 12.0507 39.9507 12.1049 39.1014C12.1918 37.7311 12.2705 36.3581 12.3383 34.9878C12.4034 33.688 12.4604 32.3855 12.5201 31.0858C12.5499 30.4237 12.5961 29.7399 12.4441 29.0886C12.3084 28.4998 11.8282 27.8757 11.1444 28.0412C10.352 28.2339 9.97755 29.4767 9.71434 30.1252C9.31546 31.102 8.98442 32.1033 8.66151 33.1046C8.1758 34.6133 7.64938 36.1084 7.12839 37.6063C6.83533 38.4502 6.5477 39.2968 6.28178 40.1488C6.01857 40.9873 5.71466 41.8475 5.57355 42.7185C5.47858 43.3128 5.47858 43.9287 5.82591 44.4416C6.20037 44.9951 6.82176 45.2882 7.46757 45.3832C8.86502 45.5867 10.2408 45.1932 11.1064 44.0535C11.3045 43.7903 11.1471 43.3697 10.8866 43.2178C10.5745 43.036 10.2516 43.1744 10.0508 43.4376C10.1729 43.2775 10.0237 43.4701 9.99655 43.5C9.95313 43.5488 9.907 43.5977 9.85816 43.6438C9.69535 43.8012 9.63837 43.8392 9.41315 43.9559C8.91658 44.2163 8.28162 44.2679 7.73349 44.1946C7.53269 44.1675 7.30476 44.1078 7.15281 44.0264C7.04155 43.9667 6.99814 43.9341 6.96558 43.9043C6.93844 43.8772 6.91131 43.8527 6.88688 43.8229C6.77563 43.7062 6.93302 43.9097 6.85432 43.7795C6.83262 43.7442 6.81362 43.7089 6.79463 43.6737C6.7485 43.5922 6.83533 43.8093 6.79191 43.6709C6.77563 43.6167 6.76478 43.5597 6.74578 43.5054C6.70508 43.3806 6.75121 43.614 6.74578 43.5353C6.74307 43.4756 6.73764 43.4213 6.73764 43.3616C6.73493 43.1717 6.75935 42.9871 6.79734 42.8026C7.12296 41.2478 7.69008 39.7201 8.20835 38.2222C8.72392 36.7298 9.26119 35.2428 9.74419 33.7396C10.002 32.9336 10.2625 32.1305 10.5528 31.3354C10.7129 30.8958 10.8811 30.4589 11.063 30.0546C11.1416 29.881 11.2258 29.7073 11.318 29.5391C11.356 29.4685 11.3967 29.398 11.4401 29.3301C11.4618 29.2976 11.4835 29.2623 11.5053 29.2297C11.5731 29.1239 11.4374 29.322 11.5107 29.2216C11.5758 29.132 11.6084 29.1727 11.508 29.2026C11.5297 29.1945 11.6192 29.1619 11.5025 29.1972C11.432 29.2189 11.356 29.2542 11.28 29.227C11.1634 29.1863 11.1905 29.0941 11.2176 29.2216C11.223 29.2569 11.2773 29.4224 11.2936 29.5255C11.3804 30.0655 11.3207 30.6407 11.2963 31.1834C11.2448 32.334 11.1932 33.4845 11.1362 34.6323C11.0711 35.9755 10.9978 37.3187 10.9137 38.6618C10.8622 39.4894 10.8052 40.3198 10.7482 41.1474C10.6912 41.9804 10.5528 42.7456 10.0535 43.4376C9.86087 43.7062 10.0074 44.1187 10.2733 44.2733C10.5772 44.4524 10.911 44.3222 11.1064 44.0535Z" fill="#F3F2ED"/>
</g>
</g>
<g id="Group_15">
<g id="Group_16">
<path id="Vector_22" d="M2.18754 38.5151C4.55371 37.1421 6.93887 35.7989 9.3376 34.4829C10.0268 34.1057 9.41086 33.0502 8.72163 33.4273C6.3229 34.7434 3.93775 36.0866 1.57158 37.4596C0.890493 37.853 1.50646 38.9113 2.18754 38.5151Z" fill="#F3F2ED"/>
</g>
</g>
<g id="Group_17">
<g id="Group_18">
<path id="Vector_23" d="M12.1484 33.1122C14.0777 32.1082 16.0097 31.1069 17.939 30.1029C18.6364 29.7393 18.0204 28.6865 17.323 29.0474C15.3937 30.0514 13.4617 31.0527 11.5324 32.0567C10.8324 32.4203 11.451 33.4758 12.1484 33.1122Z" fill="#F3F2ED"/>
</g>
</g>
<g id="Group_19">
<g id="Group_20">
<path id="Vector_24" d="M4.58639 35.9398C3.91073 39.253 3.13196 42.5471 2.37489 45.844C2.2962 46.1914 2.2148 46.5387 2.13611 46.886C1.95973 47.6512 3.13739 47.9768 3.31376 47.2116C3.96229 44.4113 4.60267 41.6056 5.22406 38.7998C5.41129 37.9559 5.59581 37.1147 5.76676 36.2681C5.92143 35.4975 4.74378 35.1691 4.58639 35.9398Z" fill="#F3F2ED"/>
</g>
</g>
<g id="Group_21">
<g id="Group_22">
<path id="Vector_25" d="M17.3229 30.1058C20.5764 32.3227 23.8326 34.5369 27.0861 36.7539C27.949 37.34 28.8091 37.9288 29.672 38.5149C30.3233 38.9572 30.9338 37.9017 30.288 37.4594C27.0345 35.2424 23.7783 33.0282 20.5248 30.8113C19.6619 30.2252 18.8018 29.6364 17.9389 29.0503C17.2876 28.608 16.6744 29.6662 17.3229 30.1058Z" fill="#F3F2ED"/>
</g>
</g>
<g id="Group_23">
<g id="Group_24">
<path id="Vector_26" d="M25.912 37.9505C25.5484 40.4686 25.2255 42.9922 24.9134 45.5184C24.8727 45.8467 25.2227 46.129 25.5239 46.129C25.8875 46.129 26.0938 45.8467 26.1345 45.5184C26.4302 43.1007 26.7396 40.6857 27.0896 38.2761C27.1358 37.9505 27.0082 37.6194 26.6636 37.5245C26.376 37.4458 25.9581 37.6222 25.912 37.9505Z" fill="#F3F2ED"/>
</g>
</g>
<g id="Group_25">
<g id="Group_26">
<path id="Vector_27" d="M0.76586 46.5522C3.5689 46.0013 6.33123 45.6404 9.17226 45.3854C13.1774 45.0272 17.2422 44.8969 21.2446 45.3474C23.3204 45.5807 25.399 45.9959 27.3527 46.7503C27.6593 46.8697 28.0229 46.62 28.1043 46.3242C28.1993 45.9796 27.9876 45.692 27.6783 45.5726C23.9934 44.148 19.8878 43.8577 15.975 43.8468C12.1435 43.8387 8.3148 44.1697 4.52133 44.6989C3.15645 44.8888 1.79427 45.1059 0.440242 45.3718C-0.33039 45.5265 -0.00477208 46.7041 0.76586 46.5522Z" fill="#F3F2ED"/>
</g>
</g>
<g id="Group_27">
<g id="Group_28">
<path id="Vector_28" d="M19.7572 38.6882C19.5673 39.9852 19.3475 41.2714 19.087 42.5603C19.0246 42.8724 19.1765 43.236 19.513 43.312C19.8169 43.3825 20.1968 43.2197 20.2646 42.8859C20.5251 41.5998 20.7422 40.3136 20.9349 39.0138C20.981 38.699 20.8562 38.3408 20.5088 38.2622C20.2185 38.197 19.806 38.3517 19.7572 38.6882Z" fill="#F3F2ED"/>
</g>
</g>
<g id="Group_29">
<g id="Group_30">
<path id="Vector_29" d="M19.6761 39.3587C20.8239 39.3315 21.969 39.3207 23.1168 39.2935C22.9214 39.0358 22.7233 38.778 22.528 38.5202C22.1942 40.5743 21.9256 42.6393 21.5918 44.6934C21.5403 45.019 21.6759 45.3501 22.0178 45.445C22.3082 45.5237 22.7152 45.3446 22.7695 45.019C23.1032 42.9649 23.3719 40.8999 23.7056 38.8458C23.768 38.4686 23.5482 38.0616 23.1168 38.0725C21.969 38.0996 20.8239 38.1105 19.6761 38.1376C18.8919 38.1539 18.8892 39.375 19.6761 39.3587Z" fill="#F3F2ED"/>
</g>
</g>
<g id="Group_31">
<g id="Group_32">
<path id="Vector_30" d="M32.4163 46.4847C32.9481 44.3573 33.7025 42.2923 35.317 40.7375C36.8556 39.2532 38.9097 38.4337 40.9638 37.967C42.7004 37.5708 44.8766 37.2398 46.4722 38.1407C46.9796 38.4256 47.3161 38.7593 47.5711 39.2749C47.8316 39.804 47.8968 40.6751 47.913 41.3589C47.9537 43.223 47.6444 45.0601 47.4436 46.9052C47.4083 47.2336 47.7502 47.5158 48.0541 47.5158C48.415 47.5158 48.6294 47.2336 48.6647 46.9052C48.8546 45.1605 49.1368 43.4293 49.1368 41.6682C49.1368 40.8026 49.0961 39.8773 48.7949 39.0578C48.5344 38.3496 48.0731 37.7771 47.468 37.332C45.8128 36.1137 43.4901 36.2602 41.5798 36.5994C39.2651 37.0118 36.9804 37.8178 35.1216 39.2885C32.9427 41.0115 31.8899 43.5378 31.2359 46.1617C31.0487 46.9242 32.2263 47.2499 32.4163 46.4847Z" fill="#F3F2ED"/>
</g>
</g>
<g id="Group_33">
<g id="Group_34">
<path id="Vector_31" d="M33.5092 32.8962C38.0624 32.3834 42.6238 31.9709 47.1934 31.6561C48.5094 31.5666 49.8254 31.4852 51.1415 31.4092C51.923 31.3658 51.9284 30.1447 51.1415 30.1881C46.5693 30.4459 41.9997 30.8014 37.4438 31.2545C36.1332 31.3848 34.8198 31.5259 33.5119 31.6724C33.1836 31.7104 32.9014 31.9275 32.9014 32.283C32.8987 32.5869 33.1809 32.9342 33.5092 32.8962Z" fill="#F3F2ED"/>
</g>
</g>
<g id="Group_35">
<g id="Group_36">
<path id="Vector_32" d="M37.4276 36.8121C36.7899 40.109 36.2146 43.4221 35.6991 46.7435C35.6475 47.0691 35.7832 47.4001 36.1251 47.4951C36.4154 47.5738 36.8252 47.3974 36.8767 47.0691C37.3923 43.7505 37.9676 40.4373 38.6052 37.1377C38.6676 36.8148 38.513 36.4783 38.1792 36.386C37.878 36.3046 37.49 36.4864 37.4276 36.8121Z" fill="#F3F2ED"/>
</g>
</g>
<g id="Group_37">
<g id="Group_38">
<path id="Vector_33" d="M36.0764 42.7729C39.0476 42.469 42.0542 42.3957 45.039 42.4554C45.8259 42.4717 45.8259 41.2506 45.039 41.2344C42.0542 41.1774 39.0476 41.2479 36.0764 41.5518C35.748 41.5844 35.4658 41.8096 35.4658 42.1624C35.4658 42.4663 35.748 42.8082 36.0764 42.7729Z" fill="#F3F2ED"/>
</g>
</g>
<g id="Group_39">
<g id="Group_40">
<path id="Vector_34" d="M45.0259 37.1696C44.589 40.4312 44.1955 43.6983 43.8482 46.9708C43.8129 47.2991 44.1548 47.5813 44.4588 47.5813C44.8169 47.5813 45.034 47.2991 45.0693 46.9708C45.4193 43.6983 45.8101 40.4312 46.2469 37.1696C46.2904 36.8413 45.9349 36.5591 45.6364 36.5591C45.2701 36.5591 45.0693 36.8413 45.0259 37.1696Z" fill="#F3F2ED"/>
</g>
</g>
<g id="Group_41">
<g id="Group_42">
<path id="Vector_35" d="M5.32592 21.8545C5.57013 23.1814 6.40046 24.3184 7.61882 24.9099C8.91858 25.5422 10.3676 25.5693 11.765 25.2952C14.4134 24.777 16.7823 23.3171 18.3073 21.0758C19.0291 20.0148 19.4985 18.7313 19.3574 17.437C19.2163 16.1562 18.5433 15.1386 17.4471 14.4657C15.0402 12.9814 12.0445 13.7792 9.68107 14.9433C8.40302 15.5728 7.22807 16.4276 6.37061 17.5781C5.45345 18.8046 5.08984 20.3404 5.32592 21.8545C5.37747 22.1802 5.7845 22.362 6.07755 22.2806C6.42488 22.1856 6.55513 21.8573 6.50357 21.5289C6.15624 19.3093 7.71379 17.4858 9.50198 16.4248C11.3689 15.3177 13.8788 14.3843 16.0334 15.1332C16.842 15.4154 17.6994 15.9934 17.9925 16.8373C18.3453 17.8494 18.1227 18.9402 17.6208 19.8601C16.5598 21.8084 14.6902 23.1733 12.5954 23.8245C11.358 24.2098 10.004 24.4351 8.73949 24.047C7.52927 23.6753 6.73422 22.769 6.50629 21.5289C6.44659 21.2033 6.05313 21.0215 5.75465 21.1029C5.41275 21.1952 5.26622 21.5289 5.32592 21.8545Z" fill="#F3F2ED"/>
</g>
</g>
<g id="Group_43">
<g id="Group_44">
<path id="Vector_36" d="M13.4852 13.5518C12.1013 13.2045 10.8477 12.1326 10.5899 10.6891C10.3403 9.28076 10.7202 7.95115 11.2004 6.64324C11.3144 6.33391 11.0729 5.97572 10.7744 5.89161C10.4325 5.79935 10.1368 6.00829 10.0228 6.31762C9.43667 7.91316 9.06764 9.56025 9.46109 11.2562C9.85998 12.9793 11.4989 14.3089 13.1596 14.7267C13.9221 14.9221 14.2477 13.7445 13.4852 13.5518Z" fill="#F3F2ED"/>
</g>
</g>
<g id="Group_45">
<g id="Group_46">
<path id="Vector_37" d="M10.248 8.25781C10.8938 8.2958 11.5098 8.39077 12.1393 8.60513C12.4161 8.70011 12.4975 8.73267 12.7797 8.89005C12.8855 8.94975 12.9886 9.01216 13.089 9.08C13.1379 9.11256 13.184 9.14783 13.2301 9.1804C13.2654 9.20753 13.2573 9.19939 13.203 9.15869C13.2274 9.17768 13.2519 9.19939 13.2763 9.21838C13.4418 9.35677 13.5856 9.50873 13.7267 9.66882C13.7457 9.69053 13.8353 9.80993 13.7403 9.67968C13.7728 9.72581 13.8081 9.77194 13.8407 9.81807C13.8949 9.89676 13.9465 9.98088 13.9953 10.065C14.0415 10.1464 14.0849 10.2305 14.1256 10.3146C14.1419 10.3499 14.1582 10.3879 14.1744 10.4232C14.0985 10.2549 14.1717 10.4205 14.1853 10.4585C14.2477 10.624 14.2965 10.7922 14.3372 10.9632C14.4159 11.2834 14.7768 11.476 15.0889 11.3892C15.4172 11.2996 15.5936 10.9604 15.5149 10.6375C15.3005 9.74752 14.8202 8.90633 14.1039 8.32293C13.0103 7.43291 11.6265 7.11543 10.2453 7.03402C9.91697 7.01503 9.63477 7.32979 9.63477 7.64456C9.63748 7.9946 9.91697 8.23881 10.248 8.25781Z" fill="#F3F2ED"/>
</g>
</g>
<g id="Group_47">
<g id="Group_48">
<path id="Vector_38" d="M12.8967 13.6143C10.4735 11.7528 7.10609 11.495 4.31119 12.6266C3.12268 13.1069 1.97758 13.8096 1.16896 14.8191C0.897613 15.1583 0.710382 15.4188 0.846057 15.8773C0.95731 16.2491 1.11741 16.6154 1.31278 16.9492C1.70623 17.6248 2.24893 18.1974 2.87032 18.6668C3.55955 19.1905 4.38445 19.5812 5.2392 19.7386C5.6815 19.82 6.13194 19.8607 6.58238 19.8255C6.64751 19.82 6.71534 19.8119 6.78047 19.8038C7.18478 19.7549 6.75062 19.7929 6.97584 19.7902C7.09252 19.7875 7.2092 19.7902 7.32588 19.7902C8.11279 19.7902 8.11279 18.5691 7.32588 18.5691C6.84559 18.5691 6.37073 18.6424 5.89044 18.6044C5.29619 18.5583 4.70736 18.3548 4.18908 18.0698C3.14439 17.4946 2.28149 16.5449 1.97758 15.3753C1.95588 15.5327 1.93688 15.6901 1.91517 15.8448C2.64239 14.7865 3.90145 14.0294 5.13609 13.6143C6.6068 13.1177 8.21048 13.0037 9.71918 13.3945C10.658 13.6387 11.5128 14.0729 12.2834 14.6644C12.5439 14.8652 12.9672 14.7051 13.1192 14.4446C13.2983 14.1353 13.1572 13.8151 12.8967 13.6143Z" fill="#F3F2ED"/>
</g>
</g>
<g id="Group_49">
<g id="Group_50">
<path id="Vector_39" d="M42.6058 34.1229C41.9817 34.2965 41.2491 34.3291 40.6874 33.9573C40.0958 33.5639 39.9384 32.7824 39.9927 32.1176C40.0416 31.5152 40.2586 30.9454 40.6168 30.4651C40.8936 30.096 41.2653 29.803 41.7185 29.5723C41.7728 29.5452 41.827 29.5181 41.8813 29.4936C41.9817 29.4475 41.8487 29.5018 41.9519 29.4638C42.0685 29.4204 42.1825 29.3797 42.3019 29.3444C42.405 29.3146 42.5108 29.2874 42.6167 29.2684C42.6682 29.2576 42.7198 29.2494 42.7686 29.2413C42.8392 29.2277 42.7361 29.244 42.7306 29.244C42.7632 29.2413 42.7958 29.2359 42.8283 29.2332C43.021 29.2169 43.2055 29.2196 43.3954 29.2332C43.3113 29.2277 43.295 29.2114 43.3792 29.2359C43.4497 29.2549 43.5203 29.2684 43.5881 29.2901C43.7455 29.339 43.8893 29.4095 44.0277 29.4964C44.5134 29.803 44.8064 30.3728 44.8309 30.9345C44.8363 31.0919 44.8227 31.2466 44.8119 31.4039C44.8037 31.4935 44.8037 31.4609 44.8173 31.3822C44.8119 31.4202 44.8064 31.4609 44.7983 31.4989C44.782 31.5939 44.763 31.6861 44.744 31.7784C44.6952 31.9846 44.5975 32.2967 44.5432 32.4215C44.5595 32.3862 44.4944 32.5246 44.4781 32.5572C44.4483 32.6196 44.4157 32.682 44.3804 32.7417C44.3099 32.8665 44.2312 32.9913 44.1444 33.1053C44.1335 33.1189 44.1091 33.1487 44.0575 33.2084C44.006 33.2681 43.9517 33.3251 43.8974 33.3794C43.7862 33.4879 43.6912 33.572 43.5881 33.6453C43.2869 33.8651 42.9613 34.0143 42.6058 34.1229C41.8542 34.3481 42.1744 35.5285 42.9314 35.3005C44.3804 34.8664 45.4468 33.7945 45.8674 32.3401C46.2256 31.0973 46.0954 29.67 45.0724 28.761C44.0005 27.8086 42.595 27.8574 41.3495 28.4028C39.9737 29.0052 39.0267 30.2806 38.8151 31.7648C38.6577 32.8557 38.9127 34.0903 39.8082 34.8148C40.6847 35.523 41.8786 35.5909 42.9314 35.3005C43.6858 35.0916 43.3656 33.9112 42.6058 34.1229Z" fill="#F3F2ED"/>
</g>
</g>
<g id="Group_51">
<path id="Vector_40" d="M12.8906 17.6139C13.6097 17.4022 13.9706 16.9436 14.1198 16.3711C14.2799 16.9057 14.904 17.2665 15.3843 17.1661C14.8498 17.755 14.9583 18.1647 15.2378 18.664C14.9692 18.5473 14.1361 18.1864 13.4686 19.0385C13.5581 18.6911 13.5934 18.4659 13.4957 18.1539C13.3953 17.8364 13.1511 17.755 12.8906 17.641" fill="#F3F2ED"/>
<g id="Group_52">
<path id="Vector_41" d="M12.9969 17.9907C13.3713 17.8767 13.7295 17.6922 13.9982 17.4046C14.2424 17.1441 14.4052 16.8212 14.5002 16.4766C14.2478 16.4766 13.9982 16.4766 13.7458 16.4766C13.9765 17.1983 14.7389 17.6841 15.4906 17.5457C15.3631 17.3286 15.2382 17.1115 15.1107 16.8917C14.8475 17.1875 14.6358 17.5267 14.6196 17.9337C14.606 18.2647 14.7471 18.5795 14.9045 18.8617C15.0836 18.6826 15.2599 18.5062 15.439 18.3272C15.1351 18.1969 14.8285 18.0911 14.492 18.0965C13.9765 18.1047 13.5152 18.3624 13.195 18.7613C13.412 18.8888 13.6291 19.0137 13.8489 19.1412C13.9466 18.7532 13.9982 18.357 13.8489 17.9744C13.7078 17.6189 13.4256 17.448 13.0919 17.3042C12.8992 17.2201 12.674 17.2472 12.5573 17.4453C12.4596 17.6108 12.503 17.8957 12.6984 17.9798C12.8015 18.026 12.9101 18.0667 13.0077 18.1236C13.0159 18.1291 13.0891 18.1806 13.0484 18.1481C13.0077 18.1155 13.081 18.1806 13.081 18.1806C13.1326 18.2268 13.0729 18.1589 13.0919 18.1942C13.0973 18.205 13.1326 18.2756 13.1109 18.2186C13.138 18.2837 13.1543 18.357 13.1651 18.4276C13.157 18.3869 13.1651 18.4248 13.1651 18.4438C13.1651 18.4764 13.1678 18.509 13.1678 18.5415C13.1678 18.5741 13.1651 18.6066 13.1624 18.6419C13.1678 18.5822 13.157 18.6718 13.1543 18.6826C13.138 18.7667 13.119 18.8509 13.0973 18.935C13.0539 19.1032 13.1244 19.2877 13.2764 19.3773C13.4148 19.4587 13.6427 19.4505 13.7485 19.3149C13.8218 19.2226 13.9032 19.1358 13.9927 19.0598C13.952 19.0951 14.0579 19.0137 14.0714 19.0082C14.1121 18.9838 14.1555 18.9621 14.199 18.9404C14.123 18.9784 14.2451 18.9241 14.2641 18.9187C14.2939 18.9106 14.3265 18.9024 14.3563 18.8943C14.3781 18.8888 14.397 18.8861 14.4188 18.8834C14.3645 18.8889 14.3618 18.8916 14.4052 18.8861C14.4459 18.8834 14.4839 18.8807 14.5219 18.8807C14.5599 18.8807 14.5978 18.8834 14.6358 18.8861C14.6793 18.8916 14.6738 18.8888 14.6141 18.8807C14.6304 18.8834 14.6494 18.8861 14.6657 18.8888C14.7227 18.8997 14.7796 18.9133 14.8366 18.9296C14.8936 18.9458 14.9479 18.9648 15.0022 18.9838C15.0239 18.992 15.0483 19.0028 15.07 19.011C14.9452 18.9703 15.0157 18.9865 15.0456 19.0001C15.2084 19.0707 15.3848 19.0734 15.5177 18.9377C15.6425 18.8129 15.6642 18.6175 15.5801 18.4655C15.5503 18.4113 15.5204 18.357 15.4933 18.3027C15.4879 18.2946 15.4499 18.2078 15.4689 18.2539C15.4879 18.3 15.4553 18.2159 15.4499 18.205C15.4309 18.1535 15.42 18.1019 15.4065 18.0477C15.3875 17.9771 15.401 18.0857 15.4038 18.0422C15.4065 18.0178 15.401 17.988 15.401 17.9635C15.401 17.9418 15.4038 17.9201 15.4038 17.9011C15.4065 17.9825 15.4038 17.9066 15.4092 17.8767C15.4146 17.855 15.42 17.8333 15.4282 17.8116C15.4282 17.8116 15.4634 17.722 15.4472 17.7573C15.4282 17.798 15.4743 17.7085 15.4797 17.7003C15.496 17.6705 15.515 17.6406 15.534 17.6108C15.572 17.5511 15.61 17.5077 15.6642 17.4453C15.9329 17.1441 15.6697 16.7208 15.2844 16.7913C15.1948 16.8076 15.3278 16.7995 15.2789 16.7913C15.2545 16.7886 15.2247 16.794 15.1975 16.794C15.1812 16.794 15.0808 16.7778 15.1704 16.7967C15.1487 16.7913 15.127 16.7886 15.1053 16.7832C15.051 16.7696 14.9967 16.7533 14.9425 16.7343C15.0184 16.7642 14.918 16.7208 14.9099 16.7153C14.8828 16.7018 14.8583 16.6882 14.8339 16.6719C14.8095 16.6556 14.7851 16.6394 14.7607 16.6231C14.8068 16.6529 14.7634 16.6258 14.7417 16.6068C14.6955 16.5688 14.6548 16.5254 14.6168 16.482C14.5761 16.4359 14.6603 16.5525 14.6006 16.463C14.5843 16.4386 14.568 16.4141 14.5544 16.387C14.5409 16.3626 14.5273 16.3355 14.5137 16.3083C14.5436 16.3707 14.5083 16.2893 14.5029 16.2676C14.3889 15.9094 13.8543 15.885 13.7485 16.2676C13.7295 16.3327 13.7105 16.3979 13.6888 16.4603C13.6834 16.4711 13.64 16.5688 13.678 16.4901C13.6644 16.52 13.6508 16.5498 13.6346 16.5797C13.6047 16.6367 13.5694 16.6936 13.5342 16.7479C13.5287 16.756 13.4609 16.8402 13.5152 16.775C13.4935 16.7995 13.4717 16.8266 13.45 16.851C13.2737 17.0382 13.0566 17.1576 12.7934 17.2363C12.5926 17.2987 12.4623 17.5104 12.5193 17.7166C12.5709 17.9174 12.7934 18.0504 12.9969 17.9907Z" fill="#F3F2ED"/>
</g>
</g>
<g id="Group_53">
<path id="Vector_42" d="M22.0111 18.3217C22.665 18.2701 23.0531 17.9418 23.281 17.4805C23.3217 17.9662 23.9132 18.243 24.3392 18.243C23.6934 18.5767 23.726 19.038 23.9702 19.4803C23.7504 19.2741 23.0286 18.9729 22.2471 19.6431C22.3855 19.3609 22.4561 19.1764 22.4289 18.8915C22.4018 18.6039 22.2064 18.4899 22.0029 18.3461" fill="#F3F2ED"/>
<g id="Group_54">
<path id="Vector_43" d="M22.0108 18.7719C22.3716 18.7394 22.7325 18.6552 23.0337 18.4436C23.3051 18.2536 23.5222 18.004 23.6741 17.7082C23.3946 17.6323 23.1124 17.5563 22.8329 17.4803C22.8764 17.8846 23.0799 18.194 23.4163 18.4165C23.685 18.5955 24.0215 18.6878 24.3416 18.6932C24.2657 18.4137 24.1897 18.1315 24.1137 17.852C23.7827 18.0284 23.4625 18.3161 23.3892 18.7014C23.3187 19.0596 23.4136 19.3933 23.5846 19.7081C23.8207 19.5263 24.0567 19.3445 24.2928 19.16C24.0269 18.9185 23.6768 18.7991 23.3214 18.7801C22.7977 18.7502 22.3201 18.9944 21.9294 19.3228C22.1654 19.5046 22.4015 19.6864 22.6376 19.8709C22.8167 19.5073 22.9361 19.1437 22.8601 18.7339C22.7922 18.3676 22.5182 18.156 22.2333 17.9552C22.0406 17.8195 21.7231 17.9145 21.6146 18.118C21.4925 18.3486 21.5712 18.5901 21.7774 18.7366C21.8072 18.7584 21.8697 18.8208 21.9076 18.8289C21.8886 18.8235 21.8425 18.7719 21.8886 18.8153C21.9076 18.8316 21.9266 18.8479 21.9429 18.8642C21.9511 18.8696 21.9945 18.913 21.9918 18.9185C21.9972 18.9022 21.9239 18.8506 21.9728 18.8995C21.9782 18.9076 21.9836 18.9185 21.9863 18.9266C21.9646 18.8696 21.9592 18.8588 21.9701 18.8913C21.9755 18.9185 22.0108 18.9863 21.9782 18.8913C21.9945 18.9402 21.9863 19.0107 21.9836 19.0623C21.9836 19.0731 21.9836 19.0867 21.9809 19.0975C21.9782 19.1328 21.9782 19.122 21.9863 19.065C21.9863 19.065 21.9728 19.1274 21.9728 19.1328C21.9592 19.1898 21.9375 19.2468 21.9158 19.3011C21.9321 19.2604 21.9348 19.2604 21.9158 19.3011C21.8968 19.339 21.8805 19.377 21.8615 19.415C21.7611 19.6185 21.791 19.8546 21.9782 19.9984C22.1654 20.1422 22.3961 20.1097 22.5724 19.9631C22.6159 19.9279 22.6186 19.9252 22.586 19.9496C22.6077 19.9333 22.6321 19.917 22.6566 19.9007C22.7 19.8709 22.7461 19.841 22.7922 19.8139C22.8357 19.7895 22.8818 19.7678 22.9252 19.7461C22.8302 19.7922 22.9252 19.7488 22.9496 19.7406C22.9903 19.7271 23.0337 19.7135 23.0772 19.7027C23.0989 19.6972 23.1179 19.6945 23.1396 19.6891C23.1911 19.6809 23.1803 19.6809 23.1097 19.6918C23.1097 19.6918 23.3051 19.6837 23.3241 19.6864C23.3729 19.6891 23.4408 19.7216 23.3241 19.6837C23.3539 19.6945 23.3919 19.6945 23.4218 19.7027C23.4516 19.7108 23.4842 19.7189 23.514 19.7298C23.5303 19.7352 23.6253 19.7732 23.5439 19.7379C23.4625 19.7027 23.5493 19.7434 23.5656 19.7488C23.5873 19.7596 23.6117 19.7732 23.6334 19.7868C23.6524 19.7976 23.6714 19.8139 23.6904 19.8248C23.5792 19.7678 23.6171 19.7651 23.6578 19.8003C23.8261 19.9523 24.0676 19.9767 24.2521 19.8356C24.4312 19.6972 24.4773 19.453 24.3688 19.2522C24.3552 19.2278 24.3416 19.2007 24.3281 19.1762C24.3227 19.1627 24.3145 19.1518 24.3091 19.1382C24.2955 19.1057 24.3009 19.122 24.3281 19.1817C24.3281 19.141 24.2928 19.084 24.2819 19.0406C24.2765 19.0161 24.2738 18.989 24.2657 18.9646C24.2494 18.913 24.2711 19.0731 24.2711 18.9971C24.2711 18.9727 24.2711 18.9456 24.2711 18.9212C24.2684 18.837 24.244 19.0243 24.2657 18.9429C24.2711 18.9185 24.2792 18.894 24.2847 18.8696C24.3037 18.7963 24.244 18.9374 24.2738 18.894C24.2874 18.875 24.2955 18.8533 24.3064 18.8343C24.3634 18.7421 24.3009 18.8316 24.3037 18.8343C24.2901 18.8153 24.4936 18.6797 24.3796 18.7529C24.4448 18.7095 24.5072 18.6688 24.5777 18.6335C24.746 18.544 24.8436 18.3079 24.7867 18.1234C24.7242 17.9307 24.556 17.7951 24.3498 17.7924C24.3227 17.7924 24.2982 17.7924 24.2711 17.7896C24.2521 17.7896 24.1707 17.7869 24.2494 17.7896C24.3254 17.7924 24.2467 17.7869 24.2277 17.7842C24.2005 17.7788 24.1707 17.7706 24.1436 17.7625C24.1164 17.7544 24.0866 17.7462 24.0594 17.7354C24.0459 17.7299 23.9618 17.7028 24.0323 17.7272C24.1001 17.7517 24.0215 17.7218 24.0052 17.7137C23.978 17.7001 23.9536 17.6865 23.9292 17.6702C23.9075 17.6567 23.8885 17.6431 23.8668 17.6295C23.7854 17.5753 23.8804 17.635 23.8776 17.6404C23.8722 17.6458 23.7637 17.521 23.7582 17.5183C23.7827 17.521 23.8125 17.6051 23.7718 17.5291C23.7664 17.521 23.7474 17.4722 23.7392 17.4694C23.7637 17.5319 23.7691 17.5454 23.7582 17.5129C23.7528 17.4993 23.7501 17.4857 23.7447 17.4722C23.7365 17.4396 23.7284 17.3501 23.742 17.4803C23.7203 17.2876 23.6171 17.0923 23.4109 17.0434C23.2237 17 22.993 17.0679 22.9008 17.2524C22.8736 17.3039 22.8465 17.3555 22.8139 17.407C22.7977 17.4315 22.7814 17.4559 22.7651 17.4803C22.7108 17.5644 22.8302 17.4043 22.7651 17.4803C22.7271 17.5237 22.6891 17.5671 22.6484 17.6078C22.6267 17.6268 22.605 17.6458 22.5833 17.6648C22.51 17.7299 22.6674 17.6105 22.5833 17.6648C22.5345 17.6974 22.4829 17.7299 22.4313 17.7571C22.4096 17.7679 22.3716 17.7978 22.3499 17.7978C22.3662 17.7896 22.3825 17.7842 22.4015 17.7761C22.3825 17.7842 22.3608 17.7924 22.3418 17.7978C22.2848 17.8168 22.2251 17.8331 22.1654 17.8466C22.1301 17.8548 22.0976 17.8602 22.0623 17.8656C22.0297 17.871 22.0379 17.871 22.0922 17.8629C22.0677 17.8656 22.0433 17.8683 22.0189 17.871C21.7828 17.8928 21.5549 18.0637 21.5685 18.3215C21.5685 18.5467 21.7584 18.7963 22.0108 18.7719Z" fill="#F3F2ED"/>
</g>
</g>
</g>
</svg>
