<svg width="117" height="35" viewBox="0 0 117 35" fill="none" xmlns="http://www.w3.org/2000/svg">
<g id="Group 24">
<path id="Vector" d="M49.6232 30.7906C47.8707 30.6026 46.2985 30.1163 45.198 28.6359C44.5461 27.7585 44.284 26.747 44.2861 25.6686C44.2903 24.2033 44.7746 22.9303 45.8814 21.9621C46.9421 21.0328 48.2355 20.7021 49.6232 20.5617C49.6232 19.2001 49.6106 17.8947 49.6274 16.5894C49.64 15.7098 50.3087 15.2192 51.0801 15.5066C51.5769 15.6925 51.7404 16.1074 51.7404 16.6153C51.7404 17.7089 51.7404 18.8024 51.7404 19.896C51.7404 20.0905 51.7404 20.2872 51.7404 20.5379C52.1827 20.62 52.6062 20.6913 53.0254 20.7756C56.4171 21.4586 58.1528 25.0829 56.5178 28.1107C55.6499 29.7165 54.1951 30.4081 52.5034 30.6869C52.3315 30.715 52.1576 30.728 51.9857 30.7539C51.9186 30.7647 51.8557 30.7906 51.7383 30.8274C51.7383 31.5773 51.7425 32.3251 51.7362 33.075C51.7299 33.9287 51.3694 34.348 50.6566 34.3372C49.9879 34.3285 49.6274 33.892 49.6211 33.0772C49.619 32.3424 49.6232 31.6076 49.6232 30.7906ZM51.7404 22.5219C51.7404 24.6442 51.7404 26.7297 51.7404 28.8131C53.5264 28.9579 54.9267 27.5877 54.9581 25.7032C54.9875 23.8272 53.5788 22.416 51.7404 22.5219ZM49.663 22.5154C47.768 22.4376 46.3677 23.8532 46.4096 25.7442C46.4495 27.6029 47.8854 28.9709 49.663 28.811C49.663 26.7276 49.663 24.6398 49.663 22.5154Z" fill="#4C85AA"/>
<path id="Vector_2" d="M77.5321 13.2978C77.7468 13.2978 77.8705 13.2956 77.9963 13.2978C78.7228 13.3177 79.1413 13.7164 79.1587 14.4563C79.1804 15.3556 79.176 16.2571 79.1609 17.1587C79.15 17.8719 78.6859 18.3703 78.0808 18.3593C77.4714 18.3482 77.0442 17.852 77.0355 17.1343C77.029 16.5473 77.0312 15.9581 77.0268 15.3711C77.0268 15.3357 77.0116 15.3002 76.9943 15.2249C74.6651 15.2249 72.3272 15.2249 69.8982 15.2249C69.8982 15.6635 69.9004 16.1132 69.8982 16.5628C69.896 16.8375 69.8982 17.1144 69.8743 17.3891C69.8223 17.9606 69.4189 18.346 68.8876 18.3615C68.3606 18.377 67.8292 17.945 67.8119 17.4001C67.7793 16.3546 67.7837 15.3046 67.8119 14.2591C67.8249 13.7696 68.1285 13.4063 68.5991 13.3376C68.9678 13.2845 69.1738 13.0829 69.2584 12.7905C69.5208 11.9 69.8245 11.0096 69.9459 10.0947C70.1086 8.87866 70.1302 7.64263 70.1845 6.41547C70.2235 5.56044 70.551 5.17059 71.4076 5.15508C72.7609 5.13072 74.1164 5.14622 75.4697 5.14401C75.7408 5.14401 76.0119 5.13515 76.283 5.14844C77.1483 5.18831 77.5278 5.58703 77.53 6.4642C77.5343 8.52203 77.5321 10.5821 77.5321 12.6399C77.5321 12.8326 77.5321 13.0297 77.5321 13.2978ZM72.1493 7.1243C72.1407 9.25965 71.9932 11.3086 71.2211 13.2601C72.6243 13.2601 73.9689 13.2601 75.3222 13.2601C75.3222 11.1956 75.3222 9.16883 75.3222 7.1243C74.2573 7.1243 73.2337 7.1243 72.1493 7.1243Z" fill="#4C85AA"/>
<path id="Vector_3" d="M72.451 21.8474C73.3595 20.9289 74.4331 20.5646 75.6512 20.584C77.9286 20.6206 79.8962 22.5524 80.0655 24.9131C80.1914 26.6444 79.8983 28.2268 78.6595 29.4924C77.0222 31.1633 74.3526 31.2344 72.6224 29.6692C72.5873 29.6368 72.5419 29.6131 72.4283 29.5377C72.4283 30.6027 72.4283 31.6095 72.4283 32.6164C72.4283 32.8665 72.4428 33.1187 72.4221 33.3666C72.3684 33.9919 71.9555 34.3562 71.3464 34.3368C70.7745 34.3196 70.3925 33.9358 70.3698 33.3192C70.3513 32.819 70.3657 32.3188 70.3657 31.8165C70.3657 28.4726 70.3636 25.1287 70.3678 21.7849C70.3678 20.9376 70.8426 20.4654 71.5777 20.584C72.2384 20.6896 72.3767 21.2243 72.451 21.8474ZM72.4221 25.6483C72.4262 27.1273 73.0642 28.2139 74.1791 28.6322C75.5253 29.1388 76.9561 28.5783 77.6147 27.2869C78.3415 25.8596 77.9967 24.0163 76.8302 23.1259C75.93 22.4403 74.9389 22.3627 73.9644 22.8456C72.8619 23.391 72.4366 24.4173 72.4221 25.6483Z" fill="#4C85AA"/>
<path id="Vector_4" d="M108.936 21.8091C110.242 20.6383 111.749 20.3277 113.404 20.7461C115.584 21.2959 116.909 23.0922 116.997 25.5396C117.082 27.9267 115.806 29.8566 113.631 30.5574C112.341 30.9736 110.546 30.9606 108.901 29.5439C108.901 29.9838 108.901 30.3461 108.901 30.7083C108.901 31.5126 108.908 32.3191 108.899 33.1234C108.89 33.9105 108.475 34.3461 107.77 34.3374C107.08 34.3266 106.719 33.9169 106.719 33.1256C106.717 29.3671 106.717 25.6086 106.719 21.8523C106.719 21.0587 107.027 20.6383 107.648 20.5757C108.314 20.5067 108.665 20.7978 108.868 21.5806C108.886 21.6453 108.908 21.7121 108.936 21.8091ZM108.888 25.9191C108.877 26.8485 109.264 27.849 110.358 28.4571C111.672 29.186 113.326 28.7935 114.177 27.5924C115.125 26.2555 114.915 24.2674 113.701 23.2517C112.749 22.4539 111.651 22.3353 110.55 22.8248C109.347 23.3595 108.888 24.3989 108.888 25.9191Z" fill="#4C85AA"/>
<path id="Vector_5" d="M53.2953 9.28866C52.5814 10.1826 51.8696 11.0766 51.1537 11.9686C50.6452 12.6056 50.031 12.6098 49.5246 11.9747C48.8938 11.1855 48.2733 10.3882 47.6466 9.59487C47.5657 9.49417 47.4744 9.40169 47.3208 9.22906C47.3042 9.48595 47.2855 9.64625 47.2855 9.80861C47.2834 11.1218 47.2876 12.4351 47.2834 13.7483C47.2814 14.4614 46.8954 14.8725 46.2396 14.8704C45.6108 14.8684 45.2103 14.4655 45.2083 13.7832C45.2 11.276 45.2083 8.76871 45.2041 6.26349C45.2041 5.74149 45.4282 5.3654 45.9283 5.20304C46.4077 5.04685 46.8124 5.21126 47.1133 5.60379C48.0513 6.8266 48.9851 8.05146 49.921 9.27633C50.0538 9.45101 50.1908 9.62364 50.3568 9.83327C51.355 8.52003 52.3345 7.2479 53.2994 5.96139C53.6709 5.4661 54.0382 4.96259 54.7687 5.20304C55.495 5.44349 55.4887 6.05798 55.4867 6.67863C55.4742 9.03176 55.4846 11.3849 55.4804 13.738C55.4784 14.4861 55.028 14.9238 54.3329 14.8684C53.7601 14.8231 53.4115 14.4059 53.4073 13.7236C53.399 12.4269 53.4053 11.1321 53.4053 9.83532C53.4053 9.6668 53.4053 9.50034 53.4053 9.33181C53.3658 9.31948 53.3305 9.30304 53.2953 9.28866Z" fill="#4C85AA"/>
<path id="Vector_6" d="M87.5748 25.4258C88.336 24.4449 89.0666 23.5046 89.795 22.5621C90.1669 22.0824 90.5344 21.5984 90.9106 21.1207C91.3022 20.6239 91.7397 20.4576 92.2296 20.6346C92.7853 20.8371 92.9493 21.2529 92.9449 21.8116C92.9274 24.3575 92.9384 26.9056 92.9362 29.4515C92.9362 30.2298 92.5731 30.6498 91.8993 30.6648C91.2169 30.6797 90.7728 30.2298 90.7641 29.4536C90.7466 28.1103 90.7597 26.7648 90.7597 25.4215C90.7597 25.2637 90.7597 25.1059 90.7597 24.784C90.39 25.2253 90.11 25.5516 89.8409 25.8842C89.3553 26.4812 88.885 27.0868 88.3929 27.6775C87.8657 28.3107 87.2445 28.3107 86.7129 27.6689C86.0851 26.912 85.4792 26.138 84.8623 25.3725C84.7223 25.1976 84.578 25.027 84.3548 24.7584C84.3373 25.059 84.322 25.2275 84.322 25.3959C84.3198 26.7755 84.3286 28.1551 84.3133 29.5347C84.3045 30.266 83.9042 30.6626 83.2392 30.6626C82.5874 30.6626 82.128 30.2468 82.1236 29.5453C82.1061 26.9269 82.1083 24.3106 82.1236 21.6922C82.1258 21.174 82.3971 20.7646 82.9352 20.6175C83.4711 20.4725 83.8889 20.6921 84.2148 21.1122C85.2189 22.4129 86.2251 23.7114 87.2335 25.01C87.3254 25.1379 87.4304 25.2531 87.5748 25.4258Z" fill="#4C85AA"/>
<path id="Vector_7" d="M108.69 11.1052C110.014 9.40598 111.336 7.70673 112.659 6.00748C112.724 5.92529 112.783 5.83899 112.85 5.76091C113.318 5.19998 113.767 5.02944 114.282 5.21025C114.798 5.39107 114.98 5.71777 114.98 6.45541C114.98 8.85737 114.98 11.2593 114.98 13.6634C114.98 14.4421 114.612 14.8572 113.923 14.8654C113.201 14.8756 112.815 14.4565 112.815 13.6551C112.813 12.1223 112.815 10.5895 112.815 8.90258C112.618 9.13065 112.501 9.2601 112.395 9.39366C111.164 10.947 109.934 12.5004 108.703 14.0538C108.627 14.1483 108.549 14.2428 108.469 14.3353C108.112 14.7441 107.678 14.9887 107.098 14.8181C106.61 14.6743 106.357 14.2798 106.354 13.6366C106.348 11.2162 106.348 8.79779 106.354 6.37733C106.357 5.68078 106.697 5.24724 107.258 5.15888C107.992 5.04382 108.538 5.50818 108.547 6.30131C108.562 7.71495 108.551 9.13065 108.551 10.5443C108.551 10.7251 108.551 10.9039 108.551 11.0847C108.601 11.0929 108.645 11.0991 108.69 11.1052Z" fill="#4C85AA"/>
<path id="Vector_8" d="M97.252 26.608C97.4492 28.057 98.5797 29.0789 99.9753 29.175C100.981 29.2443 101.864 28.9693 102.716 28.4304C102.97 28.2716 103.472 28.2537 103.709 28.408C103.947 28.5646 104.083 29.0118 104.105 29.3405C104.118 29.5574 103.897 29.857 103.698 30.0113C101.925 31.3731 99.9687 31.5587 97.9794 30.6777C95.9397 29.7743 94.9275 28.0592 94.9669 25.8209C95.0042 23.625 96.0164 21.9636 98.0276 21.0311C100.9 19.7007 104.12 21.3464 104.64 24.4099C104.71 24.8258 104.708 25.2618 104.679 25.6845C104.64 26.2658 104.195 26.6035 103.522 26.6057C101.645 26.6102 99.7672 26.608 97.8896 26.608C97.6902 26.608 97.4908 26.608 97.252 26.608ZM97.3199 24.8236C99.0617 24.8236 100.764 24.8236 102.466 24.8236C102.479 23.5758 101.57 22.6232 100.308 22.5204C98.8382 22.3996 97.5434 23.379 97.3199 24.8236Z" fill="#4C85AA"/>
<path id="Vector_9" d="M60.9004 26.6287C61.0904 28.078 62.2259 29.1107 63.6431 29.2003C64.6258 29.263 65.4883 28.9942 66.3269 28.4723C66.5933 28.3065 67.0649 28.3222 67.3772 28.4387C67.7746 28.5887 67.8489 29.0412 67.7397 29.4422C67.6807 29.6572 67.5279 29.8767 67.3597 30.0246C65.1477 31.9577 61.3263 31.4716 59.5902 29.0502C57.8389 26.6063 58.4962 22.9977 61.038 21.3916C62.6539 20.3702 64.3834 20.2828 66.0626 21.2057C67.6218 22.0636 68.3227 23.5039 68.3402 25.2959C68.3489 26.2367 67.9712 26.6243 67.0628 26.6265C65.0079 26.631 62.9575 26.6287 60.9004 26.6287ZM66.0736 24.8479C66.1718 23.6719 65.2394 22.6594 63.9772 22.5362C62.5011 22.3951 61.1341 23.4367 60.9878 24.8479C62.6867 24.8479 64.3812 24.8479 66.0736 24.8479Z" fill="#4C85AA"/>
<path id="Vector_10" d="M62.3738 5.14111C65.1133 5.14317 67.2388 7.26992 67.2388 10.0081C67.2368 12.7607 65.0951 14.8751 62.3131 14.8731C59.604 14.869 57.4988 12.7113 57.5069 9.94842C57.515 7.23903 59.6405 5.13906 62.3738 5.14111ZM65.1477 9.99371C65.1356 8.32814 63.9239 7.0208 62.384 7.00845C60.8055 6.9961 59.5473 8.35079 59.5594 10.0472C59.5716 11.7231 60.7731 12.9831 62.3536 12.979C63.9543 12.9728 65.1599 11.686 65.1477 9.99371Z" fill="#4C85AA"/>
<path id="Vector_11" d="M83.2652 8.88812C84.6416 8.88812 85.9249 8.88812 87.2826 8.88812C87.2826 7.94287 87.2661 7.02639 87.2888 6.11197C87.3033 5.48523 87.7587 5.11124 88.3755 5.16056C88.8639 5.1996 89.2613 5.56332 89.2634 6.05443C89.2758 8.69702 89.2758 11.3396 89.2634 13.9801C89.2613 14.5165 88.8288 14.872 88.272 14.8699C87.7173 14.8699 87.3095 14.5226 87.2909 13.9699C87.264 13.1006 87.2764 12.2314 87.2723 11.3622C87.2723 11.1608 87.2723 10.9574 87.2723 10.717C85.9352 10.717 84.6395 10.717 83.2693 10.717C83.2693 11.5307 83.2693 12.3424 83.2693 13.1541C83.2693 13.3924 83.2735 13.6308 83.2652 13.8692C83.2424 14.4507 82.9092 14.8206 82.3752 14.8678C81.7998 14.9172 81.3652 14.6151 81.2285 14.0623C81.1996 13.9493 81.1954 13.826 81.1954 13.7089C81.1934 11.2533 81.1934 8.79976 81.1934 6.34417C81.1934 5.82429 81.3693 5.40303 81.895 5.20988C82.5677 4.96123 83.2445 5.41331 83.2611 6.14074C83.2818 7.04283 83.2652 7.94287 83.2652 8.88812Z" fill="#4C85AA"/>
<path id="Vector_12" d="M94.4675 8.3804C95.3538 8.3804 96.1452 8.32571 96.9264 8.39091C98.6948 8.53815 100.169 9.67398 100.105 11.7605C100.061 13.1971 99.1277 14.3582 97.7014 14.7011C97.2892 14.7999 96.8584 14.8483 96.4359 14.8588C95.4589 14.882 94.4819 14.8714 93.505 14.8651C92.8454 14.8609 92.4126 14.4823 92.4084 13.8176C92.3899 11.2725 92.3899 8.72745 92.4084 6.18446C92.4126 5.54293 92.8722 5.13488 93.4617 5.14119C94.0738 5.1475 94.451 5.53873 94.4634 6.21391C94.4778 6.89961 94.4675 7.59373 94.4675 8.3804ZM94.5025 10.2145C94.5025 11.1863 94.5025 12.1034 94.5025 13.1067C95.2837 13.0688 96.036 13.0878 96.7718 12.9826C97.5921 12.8669 97.9899 12.3642 97.9899 11.6259C97.992 10.8981 97.5262 10.3155 96.7265 10.2293C96.0051 10.1514 95.2672 10.2145 94.5025 10.2145Z" fill="#4C85AA"/>
<path id="Vector_13" d="M101.215 10.0107C101.215 8.75247 101.195 7.49223 101.223 6.23404C101.241 5.39662 102.242 4.86707 103.058 5.28989C103.395 5.46435 103.732 5.8728 103.74 6.18068C103.794 8.73194 103.781 11.2832 103.765 13.8365C103.763 14.4687 103.229 14.871 102.49 14.873C101.749 14.8771 101.233 14.4831 101.223 13.8386C101.2 12.5619 101.215 11.2873 101.215 10.0107Z" fill="#4C85AA"/>
<path id="Vector_14" d="M107.268 1.02465C107.307 0.590025 107.316 0.170007 107.938 0.0366974C108.641 -0.114874 109.083 0.210183 109.104 0.880385C109.131 1.67659 109.428 2.07104 110.14 2.25001C111.09 2.49106 111.953 2.00348 112.038 1.17805C112.057 0.997259 112.047 0.812817 112.077 0.635679C112.145 0.259489 112.409 0.0421759 112.874 0.0147835C113.34 -0.012609 113.707 0.107918 113.818 0.524283C114.065 1.45015 113.558 2.80151 112.167 3.36579C110.38 4.09078 108.222 3.48449 107.549 2.02904C107.405 1.70946 107.359 1.35884 107.268 1.02465Z" fill="#4C85AA"/>
<g id="Group">
<g id="Group_2">
<path id="Vector_15" d="M10.6823 15.6835C10.912 16.2793 11.5021 16.6789 12.1016 16.8339C12.7142 16.9927 13.3715 16.9422 13.9878 16.8339C14.634 16.72 15.2596 16.4959 15.8441 16.2008C16.9441 15.6425 18.0721 14.7311 18.5744 13.577C18.9143 12.7945 18.9143 11.8981 18.3616 11.2146C17.9451 10.701 17.2709 10.4732 16.6341 10.4022C15.8329 10.3125 15 10.4713 14.2418 10.7271C13.732 10.9008 13.9505 11.7113 14.4659 11.5376C15.0579 11.3359 15.6667 11.209 16.2942 11.222C16.7461 11.2295 17.256 11.3229 17.6052 11.6348C17.6313 11.6572 17.7733 11.8178 17.7229 11.7524C17.7583 11.7991 17.792 11.8514 17.8218 11.9018C17.8984 12.0363 17.9059 12.0493 17.9488 12.2268C18.0086 12.4751 17.9768 12.7889 17.8685 13.097C17.5398 14.0364 16.6248 14.7815 15.7974 15.2708C14.8786 15.8143 13.7749 16.1616 12.6992 16.0869C12.4975 16.072 12.2622 16.0216 12.0904 15.9506C11.9186 15.8778 11.7991 15.7956 11.7057 15.7097C11.6571 15.6649 11.6123 15.6144 11.5675 15.5659C11.5003 15.4912 11.6161 15.6406 11.5656 15.5622C11.5526 15.5416 11.5395 15.5229 11.5264 15.5043C11.4928 15.4501 11.4218 15.2764 11.4928 15.4613C11.4106 15.2503 11.2108 15.1027 10.9755 15.1681C10.7738 15.2223 10.602 15.4706 10.6823 15.6835Z" fill="#4C85AA"/>
</g>
</g>
<g id="Group_3">
<g id="Group_4">
<path id="Vector_16" d="M16.7705 10.8522C16.9013 10.2247 16.806 9.56548 16.4344 9.03324C16.0478 8.47858 15.4745 8.12935 14.8321 7.94073C14.1392 7.73717 13.4034 7.74278 12.6937 7.83615C11.9822 7.92953 11.2931 8.10881 10.6395 8.41135C10.124 8.65039 9.63661 8.98094 9.25377 9.403C8.89147 9.80265 9.48347 10.4003 9.84764 9.99688C10.6955 9.05938 12.0812 8.6728 13.3175 8.61864C14.0085 8.58876 14.7704 8.67841 15.3475 9.09673C15.8293 9.44782 16.0833 10.0398 15.96 10.6281C15.848 11.1566 16.6585 11.3807 16.7705 10.8522Z" fill="#4C85AA"/>
</g>
</g>
<g id="Group_5">
<g id="Group_6">
<path id="Vector_17" d="M24.506 15.9524C25.3931 14.9197 26.338 13.8197 27.5687 13.1922C27.9142 13.0167 28.2728 12.8747 28.6481 12.7795C28.9656 12.6992 29.3503 12.6151 29.6697 12.7272C30.4204 12.9905 29.989 14.0643 29.7985 14.5536C29.6846 14.8431 30.0301 15.1755 30.3158 15.0709C30.9433 14.8412 31.6885 14.6414 32.3645 14.7236C32.5401 14.7441 32.7922 14.7964 32.8613 14.9832C32.9098 15.1158 32.8575 15.2857 32.8258 15.4164C32.7791 15.6144 32.7268 15.8105 32.6727 16.0066C32.5307 16.5295 33.3412 16.7517 33.4832 16.2307C33.6083 15.7731 33.8006 15.2521 33.6755 14.7759C33.5653 14.3575 33.2068 14.083 32.8071 13.9616C32.4112 13.8421 31.9798 13.8645 31.5745 13.9131C31.0666 13.9728 30.5717 14.0849 30.0917 14.2623C30.2635 14.4341 30.4372 14.6078 30.609 14.7796C30.878 14.0905 31.0909 13.3472 30.7491 12.6432C30.426 11.9783 29.6921 11.7804 29.0067 11.8644C27.6191 12.0343 26.4146 12.7963 25.4248 13.745C24.8907 14.2548 24.3939 14.802 23.9121 15.3604C23.561 15.7657 24.153 16.3633 24.506 15.9524Z" fill="#4C85AA"/>
</g>
</g>
<g id="Group_7">
<g id="Group_8">
<path id="Vector_18" d="M33.3829 16.9068C32.2736 16.9218 31.1643 16.9367 30.0531 16.9498C27.7561 16.9778 25.459 17.004 23.162 17.0282C21.907 17.0413 20.652 17.0525 19.397 17.06C19.5184 17.271 19.6398 17.482 19.7593 17.6931C20.3028 16.7948 21.0647 16.0179 22.0265 15.5753C22.9323 15.157 24.0136 14.8899 25.0145 15.0188C25.2405 15.0487 25.4347 14.804 25.4347 14.5986C25.4347 14.3465 25.2405 14.2083 25.0145 14.1784C23.8679 14.029 22.6372 14.3726 21.6026 14.8488C20.5194 15.3475 19.6454 16.2569 19.0347 17.2673C18.8704 17.5399 19.0814 17.9022 19.397 17.9004C21.7053 17.8854 24.0154 17.8611 26.3237 17.835C28.2864 17.8126 30.2511 17.7883 32.2138 17.764C32.6023 17.7584 32.9926 17.7547 33.381 17.7491C33.9226 17.7398 33.9245 16.8994 33.3829 16.9068Z" fill="#4C85AA"/>
</g>
</g>
<g id="Group_9">
<g id="Group_10">
<path id="Vector_19" d="M28.4453 12.5985C28.8412 11.112 29.1829 9.61051 29.5023 8.10529C29.6424 7.44418 29.8123 6.76067 29.6424 6.08649C29.4836 5.46274 29.0261 4.92116 28.5144 4.54952C27.8551 4.06957 27.0428 3.96312 26.2528 4.08825C26.0661 4.11813 25.954 4.32355 25.9447 4.4935C25.8793 5.59907 26.1183 6.76627 27.0465 7.46473C27.6609 7.92787 28.4565 8.07914 29.211 8.08101C29.4761 8.08101 29.7395 8.0586 30.0047 8.03245C30.2306 8.01004 30.4248 7.85504 30.4248 7.61226C30.4248 7.40123 30.2325 7.16966 30.0047 7.19207C29.803 7.21074 29.5994 7.23128 29.3958 7.23689C29.2539 7.24062 29.1101 7.24062 28.9682 7.23315C28.8935 7.22942 28.8188 7.22381 28.7441 7.21634C28.7049 7.21261 28.6675 7.20887 28.6283 7.20327C28.7235 7.21634 28.6059 7.19954 28.5741 7.19393C28.4098 7.16592 28.2454 7.12484 28.0867 7.07255C28.0475 7.05947 28.0083 7.04453 27.9709 7.02959C27.9037 7.00345 28.0101 7.05014 27.9242 7.00905C27.8421 6.96983 27.7636 6.92875 27.6852 6.88206C27.6478 6.85965 27.6124 6.83724 27.5787 6.81296C27.5582 6.79989 27.4704 6.73079 27.5302 6.77934C27.4574 6.71958 27.3864 6.65609 27.3229 6.58699C27.1996 6.45626 27.1305 6.35915 27.0297 6.15559C26.9737 6.04354 26.9606 6.00806 26.9176 5.8736C26.8766 5.74474 26.8467 5.61214 26.8224 5.47768C26.7664 5.15647 26.7701 4.81658 26.7907 4.48976C26.6879 4.62422 26.5852 4.76055 26.4825 4.89501C27.4742 4.74001 28.66 5.33575 28.858 6.39277C28.9644 6.95863 28.7665 7.56184 28.6488 8.11275C28.505 8.78506 28.3556 9.4555 28.1988 10.1241C28.0232 10.8767 27.8402 11.6274 27.6404 12.3726C27.4947 12.8992 28.3052 13.1214 28.4453 12.5985Z" fill="#4C85AA"/>
</g>
</g>
<g id="Group_11">
<g id="Group_12">
<path id="Vector_20" d="M28.5129 11.0143C28.6754 11.0386 28.836 11.0909 28.9966 11.1245C29.3141 11.1936 29.639 11.2422 29.964 11.2627C30.767 11.3094 31.5775 11.1282 32.2012 10.6016C32.6345 10.2374 32.909 9.722 33.0808 9.19162C33.1331 9.03101 33.0491 8.7901 32.8885 8.71727C32.4029 8.49877 31.8856 8.42967 31.3553 8.46142C30.9631 8.4857 30.569 8.53612 30.2011 8.68179C29.3682 9.0086 28.6959 9.61741 28.2626 10.3999C27.9993 10.8724 28.7258 11.2982 28.9891 10.8238C29.3141 10.2393 29.8463 9.72386 30.4252 9.49229C30.6904 9.38584 30.9668 9.33355 31.2507 9.31114C31.6522 9.27753 32.0911 9.27566 32.4646 9.4456C32.4011 9.28686 32.3357 9.12999 32.2722 8.97125C32.1434 9.36717 31.9603 9.69212 31.6709 9.9573C31.641 9.98532 31.6092 10.0115 31.5775 10.0376C31.6279 9.99652 31.5327 10.0675 31.5177 10.0787C31.443 10.1291 31.3646 10.1758 31.2824 10.2169C31.2488 10.2337 31.2133 10.2505 31.1797 10.2654C31.1349 10.286 31.1853 10.2617 31.1928 10.2598C31.1685 10.2692 31.1461 10.2785 31.1218 10.286C31.0396 10.314 30.9556 10.3401 30.8716 10.3607C30.7987 10.3775 30.7278 10.3924 30.6549 10.4055C30.5802 10.4186 30.7016 10.4036 30.6026 10.413C30.5597 10.4167 30.5186 10.4223 30.4757 10.4242C30.3169 10.4354 30.1582 10.4354 29.9994 10.4279C29.9266 10.4242 29.8538 10.4186 29.7809 10.4111C29.7492 10.4074 29.7156 10.4036 29.6838 10.3999C29.5643 10.3868 29.7025 10.4036 29.639 10.3943C29.512 10.3738 29.385 10.3532 29.2599 10.3252C29.0862 10.2879 28.9144 10.2318 28.7389 10.2076C28.5148 10.1758 28.2869 10.2636 28.2216 10.5008C28.1655 10.695 28.2869 10.9826 28.5129 11.0143Z" fill="#4C85AA"/>
</g>
</g>
<g id="Group_13">
<g id="Group_14">
<path id="Vector_21" d="M7.64389 30.3191C7.99311 29.8355 8.15559 29.2584 8.21161 28.6701C8.26764 28.0856 8.29378 27.4955 8.33113 26.9109C8.39089 25.9678 8.44505 25.0229 8.49174 24.0798C8.53656 23.1852 8.57578 22.2888 8.61686 21.3943C8.63741 20.9386 8.66915 20.468 8.56457 20.0198C8.4712 19.6145 8.14065 19.185 7.67003 19.2989C7.12472 19.4315 6.867 20.2868 6.68585 20.7332C6.41132 21.4055 6.18349 22.0946 5.96125 22.7837C5.62696 23.822 5.26466 24.851 4.9061 25.8819C4.70441 26.4627 4.50645 27.0454 4.32343 27.6318C4.14228 28.2088 3.93312 28.8008 3.83601 29.4003C3.77065 29.8093 3.77064 30.2332 4.00969 30.5862C4.26741 30.9672 4.69507 31.1689 5.13954 31.2342C6.10131 31.3743 7.04815 31.1035 7.64389 30.3191C7.78022 30.138 7.6719 29.8485 7.49262 29.7439C7.27785 29.6188 7.05562 29.7141 6.91742 29.8952C7.00146 29.785 6.89875 29.9176 6.88007 29.9382C6.85019 29.9718 6.81844 30.0054 6.78482 30.0371C6.67277 30.1455 6.63356 30.1716 6.47855 30.2519C6.1368 30.4312 5.69979 30.4667 5.32255 30.4163C5.18436 30.3976 5.02749 30.3565 4.92291 30.3005C4.84634 30.2594 4.81646 30.237 4.79405 30.2164C4.77537 30.1978 4.7567 30.1809 4.73989 30.1604C4.66332 30.0801 4.77164 30.2202 4.71748 30.1305C4.70254 30.1062 4.68947 30.082 4.67639 30.0577C4.64465 30.0017 4.7044 30.1511 4.67452 30.0558C4.66332 30.0185 4.65585 29.9793 4.64278 29.9419C4.61476 29.856 4.64651 30.0166 4.64278 29.9624C4.64091 29.9214 4.63717 29.884 4.63717 29.8429C4.63531 29.7122 4.65212 29.5852 4.67826 29.4582C4.90236 28.3881 5.29267 27.3367 5.64937 26.3058C6.0042 25.2787 6.37397 24.2553 6.70639 23.2207C6.8838 22.666 7.06309 22.1133 7.26291 21.5661C7.37309 21.2635 7.48888 20.9629 7.61401 20.6846C7.66816 20.5651 7.72606 20.4456 7.78955 20.3298C7.8157 20.2812 7.84371 20.2327 7.87359 20.186C7.88853 20.1636 7.90347 20.1393 7.91841 20.1169C7.9651 20.044 7.87173 20.1804 7.92215 20.1113C7.96697 20.0496 7.98938 20.0777 7.92028 20.0982C7.93522 20.0926 7.99685 20.0702 7.91654 20.0945C7.86799 20.1094 7.8157 20.1337 7.76341 20.115C7.6831 20.087 7.70178 20.0235 7.72046 20.1113C7.72419 20.1355 7.76154 20.2495 7.77275 20.3204C7.83251 20.6921 7.79142 21.088 7.77461 21.4615C7.73913 22.2533 7.70365 23.0451 7.66443 23.8351C7.61961 24.7595 7.56918 25.684 7.51129 26.6084C7.47581 27.178 7.43659 27.7494 7.39737 28.319C7.35815 28.8924 7.26291 29.419 6.91929 29.8952C6.78669 30.0801 6.88754 30.364 7.07056 30.4704C7.27972 30.5937 7.50942 30.504 7.64389 30.3191Z" fill="#4C85AA"/>
</g>
</g>
<g id="Group_15">
<g id="Group_16">
<path id="Vector_22" d="M1.50571 26.5075C3.13419 25.5625 4.77574 24.6381 6.42662 23.7323C6.90098 23.4727 6.47705 22.7463 6.0027 23.0059C4.35181 23.9116 2.71026 24.836 1.08178 25.781C0.61303 26.0518 1.03696 26.7801 1.50571 26.5075Z" fill="#4C85AA"/>
</g>
</g>
<g id="Group_17">
<g id="Group_18">
<path id="Vector_23" d="M8.36039 22.7891C9.6882 22.0981 11.0179 21.409 12.3457 20.718C12.8256 20.4677 12.4017 19.7431 11.9218 19.9915C10.5939 20.6825 9.26427 21.3716 7.93646 22.0626C7.45464 22.3129 7.88044 23.0393 8.36039 22.7891Z" fill="#4C85AA"/>
</g>
</g>
<g id="Group_19">
<g id="Group_20">
<path id="Vector_24" d="M3.15575 24.735C2.69074 27.0152 2.15476 29.2824 1.63372 31.5514C1.57956 31.7905 1.52354 32.0295 1.46938 32.2685C1.34799 32.7952 2.1585 33.0193 2.27989 32.4926C2.72622 30.5654 3.16696 28.6343 3.59462 26.7033C3.72348 26.1225 3.85047 25.5436 3.96812 24.9609C4.07457 24.4305 3.26407 24.2046 3.15575 24.735Z" fill="#4C85AA"/>
</g>
</g>
<g id="Group_21">
<g id="Group_22">
<path id="Vector_25" d="M11.9224 20.7203C14.1616 22.246 16.4026 23.7699 18.6417 25.2957C19.2356 25.6991 19.8276 26.1043 20.4215 26.5077C20.8697 26.8121 21.2899 26.0856 20.8454 25.7812C18.6063 24.2555 16.3652 22.7316 14.1261 21.2058C13.5322 20.8024 12.9402 20.3972 12.3463 19.9938C11.8981 19.6894 11.4761 20.4177 11.9224 20.7203Z" fill="#4C85AA"/>
</g>
</g>
<g id="Group_23">
<g id="Group_24">
<path id="Vector_26" d="M17.833 26.1185C17.5828 27.8516 17.3606 29.5884 17.1458 31.327C17.1178 31.553 17.3587 31.7472 17.566 31.7472C17.8162 31.7472 17.9582 31.553 17.9862 31.327C18.1897 29.6631 18.4026 28.001 18.6435 26.3426C18.6753 26.1185 18.5875 25.8907 18.3503 25.8253C18.1524 25.7711 17.8648 25.8925 17.833 26.1185Z" fill="#4C85AA"/>
</g>
</g>
<g id="Group_25">
<g id="Group_26">
<path id="Vector_27" d="M0.527092 32.0388C2.45624 31.6597 4.35738 31.4113 6.31267 31.2357C9.06914 30.9892 11.8667 30.8996 14.6213 31.2096C16.0499 31.3702 17.4805 31.6559 18.8251 32.1751C19.0361 32.2573 19.2864 32.0855 19.3424 31.8819C19.4077 31.6447 19.2621 31.4468 19.0492 31.3646C16.5131 30.3842 13.6875 30.1843 10.9946 30.1769C8.35761 30.1713 5.72254 30.3991 3.11174 30.7633C2.17238 30.894 1.23488 31.0434 0.30299 31.2264C-0.227386 31.3329 -0.00328431 32.1434 0.527092 32.0388Z" fill="#4C85AA"/>
</g>
</g>
<g id="Group_27">
<g id="Group_28">
<path id="Vector_28" d="M13.5977 26.6265C13.4669 27.5192 13.3157 28.4044 13.1364 29.2914C13.0934 29.5062 13.198 29.7565 13.4296 29.8087C13.6388 29.8573 13.9002 29.7453 13.9469 29.5155C14.1262 28.6303 14.2756 27.7451 14.4082 26.8506C14.4399 26.634 14.354 26.3874 14.115 26.3333C13.9152 26.2885 13.6313 26.3949 13.5977 26.6265Z" fill="#4C85AA"/>
</g>
</g>
<g id="Group_29">
<g id="Group_30">
<path id="Vector_29" d="M13.5412 27.088C14.3312 27.0693 15.1193 27.0618 15.9092 27.0432C15.7748 26.8658 15.6385 26.6883 15.504 26.5109C15.2743 27.9246 15.0894 29.3458 14.8597 30.7595C14.8242 30.9836 14.9176 31.2115 15.1529 31.2768C15.3527 31.331 15.6329 31.2077 15.6702 30.9836C15.8999 29.5699 16.0848 28.1487 16.3145 26.735C16.3575 26.4754 16.2062 26.1953 15.9092 26.2028C15.1193 26.2215 14.3312 26.2289 13.5412 26.2476C13.0015 26.2588 12.9996 27.0992 13.5412 27.088Z" fill="#4C85AA"/>
</g>
</g>
<g id="Group_31">
<g id="Group_32">
<path id="Vector_30" d="M22.3106 31.9927C22.6766 30.5285 23.1958 29.1073 24.307 28.0372C25.3658 27.0157 26.7796 26.4517 28.1933 26.1305C29.3885 25.8578 30.8862 25.63 31.9843 26.25C32.3336 26.4461 32.5651 26.6758 32.7407 27.0306C32.92 27.3948 32.9648 27.9943 32.976 28.4649C33.004 29.7479 32.7911 31.0122 32.6529 32.2821C32.6286 32.5081 32.8639 32.7023 33.0731 32.7023C33.3215 32.7023 33.469 32.5081 33.4933 32.2821C33.624 31.0813 33.8182 29.8898 33.8182 28.6778C33.8182 28.0821 33.7902 27.4452 33.5829 26.8812C33.4037 26.3938 33.0862 25.9998 32.6697 25.6935C31.5305 24.855 29.9319 24.9558 28.6172 25.1893C27.0242 25.4731 25.4517 26.0278 24.1725 27.04C22.6729 28.2259 21.9483 29.9645 21.4982 31.7704C21.3693 32.2952 22.1798 32.5193 22.3106 31.9927Z" fill="#4C85AA"/>
</g>
</g>
<g id="Group_33">
<g id="Group_34">
<path id="Vector_31" d="M23.0629 22.64C26.1966 22.287 29.3359 22.0031 32.4808 21.7865C33.3865 21.7249 34.2923 21.6688 35.198 21.6166C35.7359 21.5867 35.7396 20.7463 35.198 20.7762C32.0513 20.9536 28.9063 21.1982 25.7708 21.5101C24.8688 21.5997 23.9649 21.6969 23.0647 21.7977C22.8388 21.8238 22.6445 21.9733 22.6445 22.2179C22.6427 22.4271 22.8369 22.6661 23.0629 22.64Z" fill="#4C85AA"/>
</g>
</g>
<g id="Group_35">
<g id="Group_36">
<path id="Vector_32" d="M25.7584 25.3353C25.3196 27.6044 24.9236 29.8846 24.5688 32.1705C24.5333 32.3946 24.6267 32.6224 24.862 32.6878C25.0618 32.7419 25.3438 32.6205 25.3793 32.3946C25.7342 30.1106 26.1301 27.8303 26.5689 25.5594C26.6119 25.3372 26.5054 25.1056 26.2757 25.0421C26.0684 24.9861 25.8014 25.1112 25.7584 25.3353Z" fill="#4C85AA"/>
</g>
</g>
<g id="Group_37">
<g id="Group_38">
<path id="Vector_33" d="M24.8284 29.4375C26.8733 29.2284 28.9425 29.1779 30.9968 29.219C31.5384 29.2302 31.5384 28.3898 30.9968 28.3786C28.9425 28.3394 26.8733 28.388 24.8284 28.5971C24.6024 28.6195 24.4082 28.7746 24.4082 29.0173C24.4082 29.2265 24.6024 29.4618 24.8284 29.4375Z" fill="#4C85AA"/>
</g>
</g>
<g id="Group_39">
<g id="Group_40">
<path id="Vector_34" d="M30.989 25.5818C30.6883 27.8266 30.4175 30.0751 30.1785 32.3273C30.1542 32.5533 30.3895 32.7475 30.5987 32.7475C30.8452 32.7475 30.9946 32.5533 31.0189 32.3273C31.2598 30.0751 31.5287 27.8266 31.8294 25.5818C31.8593 25.3558 31.6146 25.1616 31.4092 25.1616C31.1571 25.1616 31.0189 25.3558 30.989 25.5818Z" fill="#4C85AA"/>
</g>
</g>
<g id="Group_41">
<g id="Group_42">
<path id="Vector_35" d="M3.6654 15.0414C3.83348 15.9546 4.40494 16.7371 5.24346 17.1443C6.138 17.5794 7.13526 17.5981 8.09703 17.4094C9.91973 17.0528 11.5501 16.048 12.5996 14.5055C13.0964 13.7752 13.4195 12.8919 13.3224 12.0011C13.2252 11.1196 12.7621 10.4193 12.0076 9.95617C10.3511 8.93463 8.28939 9.48368 6.66278 10.2849C5.78317 10.7181 4.97454 11.3064 4.3844 12.0982C3.75318 12.9423 3.50293 13.9994 3.6654 15.0414C3.70089 15.2655 3.98101 15.3907 4.18271 15.3346C4.42175 15.2693 4.51139 15.0433 4.47591 14.8173C4.23686 13.2897 5.30882 12.0347 6.53952 11.3045C7.82437 10.5426 9.55183 9.90014 11.0346 10.4156C11.5912 10.6098 12.1813 11.0076 12.383 11.5884C12.6258 12.285 12.4726 13.0357 12.1271 13.6688C11.3969 15.0097 10.1102 15.949 8.66849 16.3973C7.8169 16.6624 6.88501 16.8174 6.01475 16.5504C5.18183 16.2945 4.63465 15.6708 4.47777 14.8173C4.43669 14.5932 4.1659 14.4681 3.96047 14.5241C3.72516 14.5876 3.62432 14.8173 3.6654 15.0414Z" fill="#4C85AA"/>
</g>
</g>
<g id="Group_43">
<g id="Group_44">
<path id="Vector_36" d="M9.28032 9.32718C8.32789 9.08814 7.46509 8.35047 7.28768 7.35694C7.11586 6.3877 7.37732 5.47261 7.70787 4.57247C7.78631 4.35957 7.6201 4.11306 7.41467 4.05516C7.17936 3.99167 6.9758 4.13547 6.89736 4.34837C6.49398 5.44647 6.24 6.58005 6.51079 7.74726C6.78531 8.93313 7.9133 9.84822 9.05622 10.1358C9.58099 10.2703 9.8051 9.45977 9.28032 9.32718Z" fill="#4C85AA"/>
</g>
</g>
<g id="Group_45">
<g id="Group_46">
<path id="Vector_37" d="M7.05292 5.68364C7.49739 5.70978 7.92132 5.77514 8.35458 5.92268C8.54507 5.98804 8.60109 6.01045 8.79532 6.11877C8.86815 6.15985 8.93912 6.20281 9.00821 6.2495C9.04183 6.27191 9.07358 6.29618 9.10533 6.31859C9.1296 6.33727 9.124 6.33167 9.08665 6.30365C9.10346 6.31673 9.12027 6.33167 9.13707 6.34474C9.25099 6.43998 9.34997 6.54456 9.44708 6.65475C9.46015 6.66969 9.52178 6.75186 9.45642 6.66222C9.47883 6.69397 9.50311 6.72571 9.52552 6.75746C9.56287 6.81162 9.59835 6.86951 9.63197 6.92741C9.66371 6.98343 9.6936 7.04132 9.72161 7.09922C9.73281 7.1235 9.74402 7.14964 9.75522 7.17392C9.70293 7.05813 9.75336 7.17205 9.76269 7.1982C9.80565 7.31212 9.83926 7.4279 9.86727 7.54556C9.92143 7.76592 10.1698 7.89852 10.3846 7.83876C10.6105 7.77713 10.7319 7.54369 10.6778 7.32145C10.5302 6.70891 10.1997 6.12997 9.70667 5.72846C8.95406 5.11591 8.00162 4.89741 7.05105 4.84138C6.82508 4.82831 6.63086 5.04494 6.63086 5.26158C6.63273 5.50249 6.82508 5.67056 7.05292 5.68364Z" fill="#4C85AA"/>
</g>
</g>
<g id="Group_47">
<g id="Group_48">
<path id="Vector_38" d="M8.87658 9.37056C7.20889 8.08944 4.89129 7.91203 2.96774 8.69078C2.14977 9.02134 1.36167 9.50502 0.805153 10.1997C0.618401 10.4332 0.489542 10.6125 0.582918 10.9281C0.659487 11.1839 0.76967 11.436 0.904132 11.6657C1.17492 12.1308 1.54843 12.5248 1.97609 12.8479C2.45044 13.2083 3.01817 13.4772 3.60644 13.5856C3.91084 13.6416 4.22085 13.6696 4.53086 13.6453C4.57568 13.6416 4.62237 13.636 4.66719 13.6304C4.94545 13.5968 4.64665 13.6229 4.80165 13.621C4.88195 13.6192 4.96226 13.621 5.04256 13.621C5.58414 13.621 5.58414 12.7807 5.04256 12.7807C4.71201 12.7807 4.38519 12.8311 4.05464 12.8049C3.64565 12.7732 3.2404 12.6331 2.88371 12.437C2.16471 12.0411 1.57084 11.3875 1.36167 10.5826C1.34673 10.6909 1.33366 10.7992 1.31872 10.9057C1.81922 10.1773 2.68575 9.65629 3.53547 9.37056C4.54767 9.02881 5.65137 8.95037 6.68971 9.21929C7.33588 9.38737 7.92415 9.68617 8.45452 10.0933C8.63381 10.2315 8.92514 10.1213 9.02972 9.94202C9.15298 9.72913 9.05587 9.50876 8.87658 9.37056Z" fill="#4C85AA"/>
</g>
</g>
<g id="Group_49">
<g id="Group_50">
<path id="Vector_39" d="M29.3235 23.4845C28.894 23.604 28.3897 23.6264 28.0031 23.3706C27.596 23.0998 27.4877 22.5619 27.5251 22.1044C27.5587 21.6898 27.7081 21.2976 27.9546 20.9671C28.1451 20.7131 28.4009 20.5114 28.7128 20.3527C28.7502 20.334 28.7875 20.3153 28.8249 20.2985C28.894 20.2668 28.8024 20.3041 28.8734 20.278C28.9537 20.2481 29.0322 20.2201 29.1143 20.1958C29.1853 20.1753 29.2581 20.1566 29.331 20.1435C29.3664 20.136 29.4019 20.1304 29.4355 20.1248C29.4841 20.1155 29.4131 20.1267 29.4094 20.1267C29.4318 20.1248 29.4542 20.1211 29.4766 20.1192C29.6092 20.108 29.7362 20.1099 29.8669 20.1192C29.809 20.1155 29.7978 20.1043 29.8557 20.1211C29.9043 20.1342 29.9528 20.1435 29.9995 20.1584C30.1078 20.1921 30.2068 20.2406 30.3021 20.3004C30.6364 20.5114 30.838 20.9036 30.8548 21.2902C30.8586 21.3985 30.8493 21.5049 30.8418 21.6132C30.8362 21.6749 30.8362 21.6525 30.8455 21.5983C30.8418 21.6244 30.838 21.6525 30.8324 21.6786C30.8212 21.744 30.8082 21.8075 30.7951 21.871C30.7615 22.0129 30.6942 22.2277 30.6569 22.3136C30.6681 22.2893 30.6233 22.3845 30.6121 22.4069C30.5915 22.4499 30.5691 22.4928 30.5448 22.5339C30.4963 22.6198 30.4421 22.7057 30.3824 22.7842C30.3749 22.7935 30.3581 22.8141 30.3226 22.8551C30.2871 22.8962 30.2498 22.9355 30.2124 22.9728C30.1359 23.0475 30.0705 23.1054 29.9995 23.1558C29.7922 23.3071 29.5681 23.4098 29.3235 23.4845C28.8062 23.6395 29.0265 24.4519 29.5476 24.295C30.5448 23.9962 31.2788 23.2585 31.5682 22.2575C31.8148 21.4022 31.7251 20.4199 31.0211 19.7943C30.2834 19.1388 29.316 19.1724 28.4588 19.5478C27.512 19.9624 26.8602 20.8401 26.7146 21.8616C26.6062 22.6124 26.7818 23.4621 27.3981 23.9607C28.0013 24.4481 28.823 24.4948 29.5476 24.295C30.0668 24.1512 29.8464 23.3388 29.3235 23.4845Z" fill="#4C85AA"/>
</g>
</g>
<g id="Group_51">
<path id="Vector_40" d="M8.87207 12.1224C9.36696 11.9767 9.61534 11.6611 9.71806 11.2671C9.82824 11.635 10.2578 11.8834 10.5883 11.8143C10.2204 12.2195 10.2951 12.5015 10.4875 12.8451C10.3026 12.7648 9.72926 12.5165 9.26985 13.1029C9.33148 12.8638 9.35576 12.7088 9.28853 12.4941C9.21943 12.2756 9.05135 12.2195 8.87207 12.1411" fill="#4C85AA"/>
<g id="Group_52">
<path id="Vector_41" d="M8.94439 12.3815C9.2021 12.3031 9.44862 12.1761 9.6335 11.9781C9.80158 11.7988 9.91363 11.5766 9.97899 11.3394C9.80531 11.3394 9.6335 11.3394 9.45982 11.3394C9.61856 11.8362 10.1433 12.1705 10.6606 12.0752C10.5729 11.9258 10.487 11.7764 10.3992 11.6252C10.218 11.8287 10.0724 12.0622 10.0612 12.3423C10.0518 12.5701 10.1489 12.7868 10.2573 12.981C10.3805 12.8577 10.5019 12.7363 10.6252 12.6131C10.416 12.5234 10.205 12.4506 9.97339 12.4543C9.61856 12.4599 9.30108 12.6374 9.08072 12.9119C9.23012 12.9997 9.37952 13.0856 9.53079 13.1733C9.59802 12.9063 9.6335 12.6336 9.53079 12.3703C9.43368 12.1257 9.23945 12.008 9.00975 11.909C8.87716 11.8511 8.72215 11.8698 8.64185 12.0061C8.57462 12.1201 8.6045 12.3161 8.73896 12.374C8.80992 12.4058 8.88463 12.4338 8.95186 12.473C8.95746 12.4768 9.00788 12.5122 8.97987 12.4898C8.95186 12.4674 9.00228 12.5122 9.00228 12.5122C9.03776 12.544 8.99668 12.4973 9.00975 12.5216C9.01348 12.529 9.03776 12.5776 9.02282 12.5384C9.0415 12.5832 9.0527 12.6336 9.06017 12.6822C9.05457 12.6542 9.06017 12.6803 9.06017 12.6934C9.06017 12.7158 9.06204 12.7382 9.06204 12.7606C9.06204 12.783 9.06017 12.8054 9.05831 12.8297C9.06204 12.7886 9.05457 12.8503 9.0527 12.8577C9.0415 12.9156 9.02842 12.9735 9.01348 13.0314C8.9836 13.1472 9.03216 13.2742 9.13674 13.3358C9.23198 13.3918 9.38886 13.3862 9.46169 13.2929C9.51211 13.2294 9.56814 13.1696 9.62977 13.1173C9.60175 13.1416 9.67459 13.0856 9.68393 13.0818C9.71194 13.065 9.74182 13.0501 9.7717 13.0351C9.71941 13.0613 9.80345 13.0239 9.81652 13.0202C9.83706 13.0146 9.85947 13.009 9.88001 13.0034C9.89496 12.9997 9.90803 12.9978 9.92297 12.9959C9.88562 12.9997 9.88375 13.0015 9.91363 12.9978C9.94164 12.9959 9.96779 12.9941 9.99393 12.9941C10.0201 12.9941 10.0462 12.9959 10.0724 12.9978C10.1023 13.0015 10.0985 12.9997 10.0574 12.9941C10.0686 12.9959 10.0817 12.9978 10.0929 12.9997C10.1321 13.0071 10.1713 13.0165 10.2106 13.0277C10.2498 13.0389 10.2871 13.052 10.3245 13.065C10.3394 13.0706 10.3562 13.0781 10.3712 13.0837C10.2853 13.0557 10.3338 13.0669 10.3544 13.0762C10.4664 13.1248 10.5878 13.1267 10.6793 13.0333C10.7652 12.9474 10.7802 12.8129 10.7223 12.7083C10.7017 12.671 10.6812 12.6336 10.6625 12.5963C10.6588 12.5907 10.6326 12.5309 10.6457 12.5627C10.6588 12.5944 10.6364 12.5365 10.6326 12.529C10.6196 12.4936 10.6121 12.4581 10.6027 12.4207C10.5897 12.3722 10.599 12.4469 10.6009 12.417C10.6027 12.4002 10.599 12.3796 10.599 12.3628C10.599 12.3479 10.6009 12.333 10.6009 12.3199C10.6027 12.3759 10.6009 12.3236 10.6046 12.3031C10.6083 12.2881 10.6121 12.2732 10.6177 12.2583C10.6177 12.2583 10.642 12.1966 10.6308 12.2209C10.6177 12.2489 10.6494 12.1873 10.6532 12.1817C10.6644 12.1611 10.6774 12.1406 10.6905 12.1201C10.7167 12.079 10.7428 12.0491 10.7802 12.0061C10.965 11.7988 10.7839 11.5075 10.5187 11.5561C10.4571 11.5673 10.5486 11.5617 10.515 11.5561C10.4982 11.5542 10.4776 11.5579 10.4589 11.5579C10.4477 11.5579 10.3786 11.5467 10.4403 11.5598C10.4253 11.5561 10.4104 11.5542 10.3955 11.5505C10.3581 11.5411 10.3207 11.5299 10.2834 11.5168C10.3357 11.5374 10.2666 11.5075 10.261 11.5038C10.2423 11.4944 10.2255 11.4851 10.2087 11.4739C10.1919 11.4627 10.1751 11.4515 10.1583 11.4403C10.19 11.4608 10.1601 11.4421 10.1452 11.4291C10.1135 11.4029 10.0854 11.373 10.0593 11.3432C10.0313 11.3114 10.0892 11.3917 10.0481 11.3301C10.0369 11.3133 10.0257 11.2965 10.0163 11.2778C10.007 11.261 9.99767 11.2423 9.98833 11.2236C10.0089 11.2666 9.9846 11.2106 9.98086 11.1956C9.90243 10.9491 9.53452 10.9323 9.46169 11.1956C9.44862 11.2405 9.43554 11.2853 9.4206 11.3282C9.41687 11.3357 9.38699 11.4029 9.41313 11.3488C9.4038 11.3693 9.39446 11.3899 9.38325 11.4104C9.36271 11.4496 9.33843 11.4888 9.31416 11.5262C9.31042 11.5318 9.26373 11.5897 9.30108 11.5449C9.28614 11.5617 9.2712 11.5803 9.25626 11.5972C9.13487 11.726 8.98547 11.8082 8.80432 11.8623C8.66613 11.9053 8.57648 12.051 8.6157 12.1929C8.65119 12.3311 8.80432 12.4226 8.94439 12.3815Z" fill="#4C85AA"/>
</g>
</g>
<g id="Group_53">
<path id="Vector_42" d="M15.1482 12.6097C15.5983 12.5742 15.8653 12.3482 16.0222 12.0308C16.0502 12.365 16.4573 12.5555 16.7505 12.5555C16.306 12.7852 16.3285 13.1027 16.4965 13.4071C16.3453 13.2652 15.8485 13.0579 15.3107 13.5192C15.4059 13.325 15.4545 13.198 15.4358 13.0019C15.4171 12.8039 15.2826 12.7255 15.1426 12.6265" fill="#4C85AA"/>
<g id="Group_54">
<path id="Vector_43" d="M15.1485 12.9195C15.3969 12.8971 15.6452 12.8392 15.8525 12.6936C16.0393 12.5628 16.1887 12.391 16.2933 12.1875C16.1009 12.1352 15.9067 12.0829 15.7143 12.0306C15.7442 12.3088 15.8843 12.5217 16.1159 12.6749C16.3007 12.7981 16.5323 12.8616 16.7527 12.8654C16.7004 12.673 16.6481 12.4788 16.5958 12.2864C16.368 12.4078 16.1476 12.6058 16.0972 12.871C16.0486 13.1175 16.114 13.3472 16.2316 13.5638C16.3941 13.4387 16.5566 13.3136 16.7191 13.1866C16.536 13.0204 16.2951 12.9382 16.0505 12.9251C15.6901 12.9046 15.3614 13.0727 15.0924 13.2986C15.2549 13.4238 15.4174 13.5489 15.5799 13.6759C15.7031 13.4256 15.7853 13.1754 15.733 12.8934C15.6863 12.6413 15.4977 12.4956 15.3016 12.3574C15.169 12.264 14.9505 12.3294 14.8758 12.4694C14.7918 12.6282 14.8459 12.7944 14.9879 12.8952C15.0084 12.9102 15.0514 12.9531 15.0775 12.9587C15.0644 12.955 15.0327 12.9195 15.0644 12.9494C15.0775 12.9606 15.0906 12.9718 15.1018 12.983C15.1074 12.9868 15.1373 13.0166 15.1354 13.0204C15.1391 13.0092 15.0887 12.9737 15.1223 13.0073C15.1261 13.0129 15.1298 13.0204 15.1317 13.026C15.1167 12.9868 15.113 12.9793 15.1205 13.0017C15.1242 13.0204 15.1485 13.0671 15.1261 13.0017C15.1373 13.0353 15.1317 13.0839 15.1298 13.1193C15.1298 13.1268 15.1298 13.1362 15.1279 13.1436C15.1261 13.1679 15.1261 13.1604 15.1317 13.1212C15.1317 13.1212 15.1223 13.1642 15.1223 13.1679C15.113 13.2071 15.0981 13.2463 15.0831 13.2837C15.0943 13.2557 15.0962 13.2557 15.0831 13.2837C15.07 13.3098 15.0588 13.336 15.0458 13.3621C14.9767 13.5022 14.9972 13.6647 15.1261 13.7636C15.2549 13.8626 15.4137 13.8402 15.5351 13.7394C15.5649 13.7151 15.5668 13.7132 15.5444 13.73C15.5593 13.7188 15.5761 13.7076 15.5929 13.6964C15.6228 13.6759 15.6546 13.6553 15.6863 13.6366C15.7162 13.6198 15.7479 13.6049 15.7778 13.59C15.7125 13.6217 15.7778 13.5918 15.7946 13.5862C15.8226 13.5769 15.8525 13.5676 15.8824 13.5601C15.8974 13.5563 15.9104 13.5545 15.9254 13.5507C15.9608 13.5451 15.9534 13.5451 15.9048 13.5526C15.9048 13.5526 16.0393 13.547 16.0524 13.5489C16.086 13.5507 16.1327 13.5732 16.0524 13.547C16.0729 13.5545 16.099 13.5545 16.1196 13.5601C16.1401 13.5657 16.1625 13.5713 16.1831 13.5788C16.1943 13.5825 16.2597 13.6086 16.2036 13.5844C16.1476 13.5601 16.2074 13.5881 16.2186 13.5918C16.2335 13.5993 16.2503 13.6086 16.2653 13.618C16.2783 13.6254 16.2914 13.6366 16.3045 13.6441C16.2279 13.6049 16.254 13.603 16.2821 13.6273C16.3978 13.7319 16.5641 13.7487 16.691 13.6516C16.8143 13.5563 16.8461 13.3883 16.7714 13.2501C16.762 13.2333 16.7527 13.2146 16.7433 13.1978C16.7396 13.1884 16.734 13.181 16.7303 13.1716C16.7209 13.1492 16.7247 13.1604 16.7433 13.2015C16.7433 13.1735 16.7191 13.1343 16.7116 13.1044C16.7079 13.0876 16.706 13.0689 16.7004 13.0521C16.6892 13.0166 16.7041 13.1268 16.7041 13.0745C16.7041 13.0577 16.7041 13.039 16.7041 13.0222C16.7023 12.9643 16.6854 13.0932 16.7004 13.0372C16.7041 13.0204 16.7097 13.0036 16.7135 12.9868C16.7265 12.9363 16.6854 13.0334 16.706 13.0036C16.7153 12.9905 16.7209 12.9755 16.7284 12.9625C16.7676 12.899 16.7247 12.9606 16.7265 12.9625C16.7172 12.9494 16.8573 12.856 16.7788 12.9064C16.8236 12.8766 16.8666 12.8486 16.9151 12.8243C17.0309 12.7626 17.0982 12.6002 17.0589 12.4732C17.016 12.3406 16.9002 12.2472 16.7583 12.2453C16.7396 12.2453 16.7228 12.2453 16.7041 12.2435C16.691 12.2435 16.635 12.2416 16.6892 12.2435C16.7415 12.2453 16.6873 12.2416 16.6742 12.2397C16.6556 12.236 16.635 12.2304 16.6163 12.2248C16.5977 12.2192 16.5771 12.2136 16.5585 12.2061C16.5491 12.2024 16.4912 12.1837 16.5398 12.2005C16.5865 12.2173 16.5323 12.1968 16.5211 12.1912C16.5024 12.1818 16.4856 12.1725 16.4688 12.1613C16.4539 12.152 16.4408 12.1426 16.4259 12.1333C16.3698 12.0959 16.4352 12.137 16.4333 12.1408C16.4296 12.1445 16.3549 12.0586 16.3512 12.0567C16.368 12.0586 16.3885 12.1165 16.3605 12.0642C16.3568 12.0586 16.3437 12.025 16.3381 12.0231C16.3549 12.0661 16.3586 12.0754 16.3512 12.053C16.3474 12.0437 16.3456 12.0343 16.3418 12.025C16.3362 12.0026 16.3306 11.9409 16.34 12.0306C16.325 11.898 16.254 11.7635 16.1121 11.7299C15.9833 11.7 15.8245 11.7467 15.761 11.8737C15.7423 11.9092 15.7237 11.9447 15.7013 11.9802C15.6901 11.997 15.6789 12.0138 15.6676 12.0306C15.6303 12.0885 15.7125 11.9783 15.6676 12.0306C15.6415 12.0605 15.6154 12.0903 15.5873 12.1184C15.5724 12.1314 15.5575 12.1445 15.5425 12.1576C15.4921 12.2024 15.6004 12.1202 15.5425 12.1576C15.5089 12.18 15.4734 12.2024 15.4379 12.2211C15.423 12.2285 15.3969 12.2491 15.3819 12.2491C15.3931 12.2435 15.4043 12.2397 15.4174 12.2341C15.4043 12.2397 15.3894 12.2453 15.3763 12.2491C15.3371 12.2622 15.296 12.2734 15.2549 12.2827C15.2306 12.2883 15.2082 12.292 15.184 12.2958C15.1615 12.2995 15.1672 12.2995 15.2045 12.2939C15.1877 12.2958 15.1709 12.2976 15.1541 12.2995C14.9916 12.3144 14.8347 12.4321 14.8441 12.6095C14.8441 12.7645 14.9748 12.9363 15.1485 12.9195Z" fill="#4C85AA"/>
</g>
</g>
</g>
</svg>
