<svg width="443" height="391" viewBox="0 0 443 391" fill="none" xmlns="http://www.w3.org/2000/svg">
<g clip-path="url(#clip0_328_4009)">
<path d="M163.917 317.189C187.677 289.552 215.432 264.786 247.565 247.352C263.532 238.371 280.813 231.968 298.773 228.38C315.134 225.38 334.9 225.816 344.22 241.968C354.82 260.376 346.78 282.014 339.637 300.089C339.549 300.415 339.548 300.759 339.635 301.086C339.722 301.413 339.894 301.712 340.133 301.951C340.371 302.19 340.669 302.362 340.996 302.449C341.322 302.536 341.666 302.536 341.992 302.447C353.108 298.279 364.597 295.188 376.302 293.218C386.966 291.148 397.846 290.416 408.691 291.039C416.935 291.756 426.178 294.012 431.888 300.448C439.876 309.446 435.985 322.163 433.373 332.52C430.174 345.689 426.311 358.686 421.8 371.464C420.955 373.797 424.668 374.797 425.513 372.489C429.968 360.081 433.578 347.416 436.804 334.623C439.518 323.932 443.384 311.549 437.214 301.294C426.793 283.937 400.344 286.219 383.445 288.475C368.95 290.295 354.713 293.788 341.02 298.884L343.401 301.242C350.058 284.219 356.996 265.35 350.698 247.096C348.304 239.623 343.424 233.198 336.872 228.893C329.492 224.634 321.023 222.646 312.522 223.176C293.755 223.611 274.987 230.098 258.114 237.943C241.011 246.029 224.88 256.032 210.03 267.76C192.311 281.738 176.016 297.436 161.382 314.625C159.769 316.497 162.483 319.24 164.096 317.343L163.917 317.189Z" fill="#F3F2ED"/>
<path d="M441.157 382.411L411.891 382.796L336.897 383.744C302.315 384.189 267.707 384.599 233.073 384.975C195.213 385.419 157.345 385.821 119.468 386.18C84.2202 386.539 48.955 386.847 13.6727 387.103H1.92052L3.58476 389.974C17.5237 366.142 36.5807 345.712 59.3759 330.162C81.933 315.189 109.099 306.293 135.624 301.781C149.549 299.148 163.79 298.621 177.871 300.217C180.303 300.55 181.353 296.858 178.895 296.525C152.369 292.91 124.512 298.525 99.5229 307.037C86.3445 311.308 73.6855 317.044 61.7826 324.137C50.2312 331.335 39.5812 339.89 30.0593 349.621C18.656 361.202 8.68424 374.113 0.358636 388.077C0.194943 388.371 0.110106 388.703 0.112348 389.039C0.11459 389.376 0.203855 389.706 0.371451 389.998C0.539046 390.289 0.779251 390.533 1.06867 390.704C1.35809 390.875 1.68681 390.968 2.02288 390.974C36.6907 390.735 71.367 390.453 106.052 390.128C143.758 389.769 181.481 389.368 219.221 388.923C254.572 388.53 289.931 388.111 325.299 387.667C351.859 387.359 378.418 387.026 404.978 386.667L429.558 386.36C433.245 386.36 437.086 386.539 440.773 386.206H441.259C441.768 386.206 442.257 386.003 442.617 385.643C442.977 385.282 443.179 384.793 443.179 384.283C443.179 383.773 442.977 383.284 442.617 382.923C442.257 382.563 441.768 382.36 441.259 382.36L441.157 382.411Z" fill="#F3F2ED"/>
<path d="M277.317 230.252C287.558 191.539 297.014 152.63 305.686 113.524C307.768 104.072 309.799 94.5944 311.779 85.0914C312.742 81.0763 313.351 76.9841 313.597 72.8622C313.747 68.2904 313.55 63.7138 313.008 59.1717C311.139 43.9173 305.046 29.1244 293.575 18.5873C280.645 6.69143 263.337 1.84591 246.233 0C245.728 0.0129775 245.247 0.219723 244.89 0.577548C244.532 0.935373 244.326 1.41695 244.313 1.92282C243.289 24.7147 250.33 46.7118 266.921 62.7097C279.237 74.6056 295.086 82.3225 311.165 87.4757C316.286 89.1422 321.714 90.3728 326.937 91.9623C329.293 92.6801 330.317 88.9627 327.961 88.2448C316.747 84.835 305.583 82.0918 294.958 77.0412C278.366 69.1704 263.542 57.2489 255.323 40.5075C249.749 28.4937 247.284 15.2691 248.154 2.05102L246.233 3.97385C261.596 5.61466 277.393 9.84487 289.35 20.0999C300.867 30.4764 307.993 44.8649 309.27 60.3254C309.696 64.1726 309.867 68.0438 309.782 71.9137C309.535 76.4678 308.875 80.9901 307.811 85.4247C305.865 94.7056 303.876 103.978 301.845 113.242C297.817 131.581 293.601 149.861 289.197 168.081C284.247 188.591 279.049 209.015 273.604 229.355C273.468 229.848 273.533 230.374 273.786 230.819C274.038 231.264 274.456 231.59 274.948 231.726C275.44 231.862 275.967 231.797 276.411 231.544C276.855 231.292 277.181 230.873 277.317 230.38V230.252Z" fill="#F3F2ED"/>
<path d="M291.424 176.156C295.316 176.156 299.234 176.977 303.125 177.361C309.76 178.045 316.441 178.165 323.097 177.72C342.911 176.237 361.879 169.072 377.736 157.082C390.429 147.306 401.499 135.582 410.534 122.343C410.777 121.91 410.84 121.399 410.711 120.92C410.582 120.44 410.27 120.031 409.843 119.779C375.969 104.14 332.826 116.805 308.349 143.879C300.62 152.63 294.344 162.567 289.76 173.311C288.762 175.541 292.09 177.515 293.089 175.259C300.36 158.774 311.012 143.853 325.887 133.572C339.687 124.037 355.749 118.307 372.461 116.959C384.607 116.006 396.798 118.113 407.923 123.086L407.231 120.523C392.714 141.033 373.69 159.415 349.674 168.26C335.277 173.361 319.93 175.2 304.739 173.644C300.335 173.259 295.88 172.336 291.45 172.311C290.941 172.311 290.452 172.513 290.092 172.874C289.732 173.235 289.53 173.724 289.53 174.234C289.53 174.744 289.732 175.233 290.092 175.593C290.452 175.954 290.941 176.156 291.45 176.156H291.424Z" fill="#F3F2ED"/>
</g>
<defs>
<clipPath id="clip0_328_4009">
<rect width="443" height="391" fill="white"/>
</clipPath>
</defs>
</svg>
