<svg width="312" height="275" viewBox="0 0 312 275" fill="none" xmlns="http://www.w3.org/2000/svg">
<g clip-path="url(#clip0_216_8161)">
<path d="M115.445 223.087C132.179 203.649 151.726 186.23 174.357 173.969C185.602 167.652 197.774 163.149 210.422 160.625C221.945 158.515 235.866 158.822 242.43 170.182C249.896 183.129 244.233 198.347 239.202 211.06C239.14 211.289 239.14 211.531 239.201 211.761C239.262 211.991 239.383 212.201 239.551 212.369C239.72 212.538 239.929 212.659 240.159 212.72C240.389 212.781 240.632 212.781 240.861 212.718C248.69 209.787 256.781 207.613 265.025 206.227C272.536 204.771 280.198 204.257 287.836 204.694C293.643 205.199 300.153 206.786 304.174 211.312C309.8 217.641 307.059 226.585 305.22 233.869C302.966 243.131 300.246 252.273 297.069 261.26C296.474 262.9 299.089 263.604 299.684 261.981C302.821 253.253 305.364 244.346 307.636 235.348C309.547 227.829 312.27 219.12 307.925 211.907C300.585 199.7 281.958 201.304 270.056 202.891C259.847 204.171 249.821 206.628 240.176 210.212L241.853 211.871C246.542 199.898 251.428 186.627 246.992 173.788C245.307 168.533 241.87 164.014 237.255 160.986C232.057 157.991 226.093 156.592 220.106 156.965C206.888 157.271 193.67 161.833 181.787 167.351C169.741 173.038 158.38 180.073 147.921 188.322C135.442 198.153 123.966 209.194 113.659 221.283C112.523 222.6 114.435 224.529 115.571 223.195L115.445 223.087Z" fill="#4C85AA"/>
<path d="M310.702 268.96L290.091 269.23L237.273 269.897C212.917 270.21 188.543 270.498 164.151 270.763C137.487 271.075 110.816 271.358 84.1403 271.61C59.3154 271.863 34.4785 272.079 9.62956 272.259H1.35261L2.52471 274.279C12.3418 257.517 25.7634 243.148 41.8178 232.211C57.7045 221.681 76.8371 215.424 95.5188 212.25C105.326 210.398 115.355 210.028 125.273 211.15C126.986 211.385 127.725 208.788 125.994 208.554C107.312 206.011 87.6927 209.96 70.0928 215.947C60.8115 218.951 51.8959 222.985 43.5128 227.974C35.3773 233.036 27.8766 239.053 21.1704 245.897C13.1392 254.042 6.11622 263.123 0.25259 272.945C0.137302 273.151 0.0775529 273.384 0.0791321 273.621C0.0807112 273.858 0.143579 274.09 0.261615 274.295C0.379651 274.5 0.548824 274.672 0.752658 274.792C0.956492 274.912 1.18801 274.978 1.4247 274.982C25.8408 274.814 50.263 274.616 74.6911 274.387C101.247 274.135 127.815 273.852 154.395 273.54C179.292 273.263 204.195 272.969 229.104 272.656C247.81 272.44 266.516 272.205 285.222 271.953L302.533 271.736C305.13 271.736 307.835 271.863 310.431 271.628H310.774C311.133 271.628 311.477 271.486 311.73 271.232C311.984 270.979 312.126 270.635 312.126 270.276C312.126 269.917 311.984 269.573 311.73 269.32C311.477 269.066 311.133 268.924 310.774 268.924L310.702 268.96Z" fill="#4C85AA"/>
<path d="M195.311 161.942C202.524 134.714 209.184 107.348 215.291 79.8439C216.758 73.1963 218.188 66.5306 219.583 59.8469C220.261 57.023 220.689 54.1448 220.863 51.2458C220.968 48.0303 220.83 44.8115 220.448 41.6169C219.132 30.8881 214.84 20.4839 206.761 13.0729C197.655 4.70625 185.465 1.29828 173.419 0C173.063 0.00912739 172.725 0.154536 172.473 0.406204C172.221 0.657871 172.076 0.996576 172.067 1.35237C171.345 17.3825 176.304 32.8536 187.99 44.1053C196.663 52.472 207.825 57.8995 219.15 61.5238C222.756 62.6959 226.579 63.5614 230.258 64.6794C231.917 65.1842 232.638 62.5697 230.979 62.0648C223.081 59.6666 215.219 57.7372 207.735 54.185C196.05 48.6493 185.609 40.2646 179.821 28.4899C175.896 20.0403 174.159 10.7391 174.772 1.44253L173.419 2.7949C184.239 3.94893 195.365 6.92414 203.786 14.1368C211.897 21.4348 216.916 31.5546 217.815 42.4284C218.115 45.1342 218.236 47.8569 218.176 50.5787C218.002 53.7817 217.537 56.9623 216.788 60.0813C215.417 66.6088 214.017 73.1302 212.586 79.6456C209.749 92.5442 206.779 105.401 203.678 118.215C200.192 132.64 196.531 147.006 192.696 161.311C192.6 161.657 192.646 162.028 192.824 162.341C193.001 162.654 193.296 162.883 193.643 162.979C193.989 163.074 194.36 163.028 194.673 162.851C194.986 162.673 195.215 162.379 195.311 162.032V161.942Z" fill="#4C85AA"/>
<path d="M205.247 123.895C207.988 123.895 210.747 124.472 213.488 124.743C218.161 125.223 222.866 125.308 227.553 124.995C241.508 123.952 254.868 118.913 266.035 110.48C274.975 103.604 282.771 95.3578 289.135 86.0468C289.306 85.7423 289.35 85.3829 289.259 85.0458C289.168 84.7087 288.949 84.4207 288.648 84.2436C264.791 73.2444 234.406 82.152 217.167 101.193C211.723 107.349 207.303 114.338 204.075 121.894C203.372 123.462 205.716 124.851 206.419 123.264C211.54 111.67 219.042 101.175 229.519 93.9446C239.237 87.2383 250.55 83.2084 262.32 82.2601C270.874 81.5901 279.46 83.0716 287.295 86.5697L286.808 84.7665C276.584 99.1918 263.186 112.121 246.271 118.341C236.132 121.929 225.323 123.222 214.624 122.128C211.522 121.858 208.385 121.208 205.265 121.19C204.906 121.19 204.562 121.333 204.309 121.586C204.055 121.84 203.913 122.184 203.913 122.543C203.913 122.901 204.055 123.245 204.309 123.499C204.562 123.753 204.906 123.895 205.265 123.895H205.247Z" fill="#4C85AA"/>
</g>
<defs>
<clipPath id="clip0_216_8161">
<rect width="312" height="275" fill="white"/>
</clipPath>
</defs>
</svg>
